<svg width="564" height="621" viewBox="0 0 564 621" fill="none" xmlns="http://www.w3.org/2000/svg">
<g clip-path="url(#clip0)">
<path d="M190.113 133.815C185.283 99.9294 192.888 61.3792 214.025 40.8684C212.827 78.3224 221.776 115.125 239.287 144.764C246.072 156.162 254.524 167.914 254.261 182.367C254.098 191.36 250.387 199.738 245.497 206.05C240.607 212.362 234.583 216.912 228.631 221.392L227.705 223.281C210.258 197.487 194.944 167.7 190.113 133.815Z" fill="#B0D6EE"/>
<path d="M214.67 42.042C205.899 68.1251 203.537 97.2172 207.917 125.186C208.78 131.23 210.354 137.054 212.582 142.446C214.879 147.606 218.175 151.853 222.126 154.748C225.769 157.545 229.739 159.846 232.807 163.771C234.355 165.811 235.561 168.263 236.346 170.966C237.131 173.669 237.476 176.562 237.361 179.455C237.214 186.673 235.124 193.391 232.908 199.867C230.448 207.056 227.807 214.472 227.966 222.555C227.986 223.534 226.841 223.517 226.822 222.539C226.544 208.476 234.195 197.182 235.9 183.688C236.696 177.391 236.068 170.738 232.737 165.857C229.824 161.589 225.731 159.212 222.024 156.422C218.139 153.674 214.819 149.703 212.354 144.856C209.927 139.632 208.187 133.898 207.208 127.898C204.841 114.437 204.082 100.566 204.959 86.7919C205.893 71.0644 208.845 55.6652 213.688 41.2605C213.988 40.3691 214.968 41.1564 214.67 42.042L214.67 42.042Z" fill="white"/>
<path d="M205.839 137.233C202.192 137.505 198.574 136.393 195.629 134.096C192.683 131.798 190.604 128.464 189.761 124.69C189.593 123.926 190.705 123.613 190.873 124.378C191.652 127.894 193.589 130.999 196.335 133.133C199.082 135.266 202.457 136.288 205.851 136.013C206.588 135.954 206.572 137.174 205.839 137.233Z" fill="white"/>
<path d="M223.63 154.724C228.58 148.784 231.238 141.083 231.075 133.155C231.058 132.37 232.208 132.384 232.224 133.168C232.38 141.418 229.598 149.426 224.434 155.595C223.942 156.183 223.14 155.308 223.63 154.724Z" fill="white"/>
<path d="M207.462 101.538C209.607 101.717 211.79 101.566 213.816 101.098C215.842 100.629 217.647 99.8584 219.07 98.8543C219.797 98.338 220.997 99.0989 220.274 99.6118C218.694 100.717 216.699 101.566 214.462 102.087C212.226 102.607 209.816 102.783 207.444 102.598C207.218 102.592 207.004 102.533 206.846 102.434C206.688 102.334 206.597 102.201 206.592 102.062C206.596 101.922 206.689 101.788 206.852 101.69C207.015 101.591 207.234 101.537 207.462 101.538Z" fill="white"/>
<path d="M305.915 66.786C305.62 67.169 305.325 67.552 305.033 67.9451C301.093 73.1162 297.555 78.6189 294.454 84.399C294.208 84.8419 293.964 85.2946 293.73 85.7441C286.398 99.7543 281.577 115.09 279.512 130.97C278.696 137.291 278.333 143.668 278.427 150.046C278.557 158.855 279.358 168.396 276.818 176.498C276.561 177.346 276.256 178.177 275.903 178.985L235.136 192.791C235.028 192.773 234.923 192.765 234.815 192.747L233.211 193.377C233.185 193.049 233.164 192.707 233.138 192.379C233.122 192.188 233.115 191.994 233.099 191.804C233.091 191.676 233.083 191.548 233.069 191.433C233.066 191.39 233.064 191.347 233.064 191.314C233.05 191.199 233.049 191.091 233.038 190.986C232.917 189.078 232.804 187.166 232.711 185.249C232.708 185.239 232.708 185.239 232.714 185.226C232.015 170.62 232.456 155.824 234.996 141.57C235.073 141.141 235.146 140.702 235.241 140.267C236.42 133.849 238.09 127.543 240.235 121.414C241.42 118.062 242.763 114.775 244.261 111.568C248.144 103.287 253.23 95.7074 259.33 89.1065C271.492 75.9495 287.477 67.0732 304.606 66.7937C305.044 66.7869 305.474 66.7829 305.915 66.786Z" fill="#55A9DD"/>
<path d="M304.907 68.9886C286.008 80.0619 270.878 97.1726 261.665 117.89C259.607 122.313 258.219 127.052 257.551 131.934C257.046 136.711 257.756 141.545 259.607 145.933C261.255 150.061 263.392 154.081 264.065 158.562C264.378 160.862 264.229 163.205 263.629 165.439C263.028 167.673 261.99 169.747 260.581 171.525C257.178 176.053 252.446 179.013 247.724 181.738C242.48 184.763 236.989 187.816 233.439 193.094C233.009 193.733 232.099 192.988 232.528 192.349C238.704 183.167 249.977 180.845 257.484 173.299C260.986 169.778 263.51 165.115 263.06 159.853C262.666 155.252 260.466 151.104 258.763 146.94C256.899 142.687 256.044 138.015 256.273 133.331C256.704 128.429 257.917 123.641 259.862 119.172C264.089 109.035 269.792 99.6668 276.761 91.41C284.666 81.9398 294.039 73.9742 304.475 67.858C305.121 67.4797 305.549 68.6128 304.907 68.9886Z" fill="white"/>
<path d="M259.3 119.328C256.234 117.216 253.975 114.016 252.928 110.3C251.88 106.584 252.111 102.594 253.579 99.0422C253.879 98.3247 254.944 98.7848 254.644 99.5033C253.271 102.808 253.056 106.525 254.038 109.983C255.021 113.442 257.136 116.413 260.001 118.362C260.624 118.786 259.919 119.75 259.3 119.328Z" fill="white"/>
<path d="M263.682 162.227C271.004 160.646 277.496 156.196 281.863 149.762C282.296 149.124 283.206 149.869 282.774 150.506C278.218 157.193 271.453 161.81 263.829 163.436C263.103 163.591 262.959 162.38 263.682 162.227Z" fill="white"/>
<path d="M278.03 94.8207C279.056 95.9002 280.318 96.6925 281.704 97.1264C283.09 97.5602 284.555 97.6221 285.969 97.3064C286.693 97.1422 286.836 98.353 286.117 98.5161C284.553 98.8571 282.935 98.7867 281.403 98.311C279.871 97.8352 278.472 96.9686 277.328 95.7869C277.212 95.6851 277.136 95.54 277.117 95.3811C277.097 95.2222 277.136 95.0614 277.224 94.9315C277.317 94.804 277.455 94.7209 277.606 94.7002C277.757 94.6794 277.909 94.7227 278.03 94.8206V94.8207Z" fill="white"/>
<path d="M421.621 282.991C421.728 283.49 421.798 283.997 421.83 284.507L459.251 307.415L468.347 301.859L478.044 315.329L462.842 326.826C461.614 327.755 460.135 328.236 458.628 328.197C457.12 328.158 455.665 327.601 454.481 326.61L415.893 294.307C414.152 294.991 412.255 295.096 410.456 294.608C408.657 294.121 407.04 293.063 405.821 291.577C404.602 290.091 403.838 288.246 403.631 286.288C403.424 284.329 403.784 282.351 404.663 280.615C405.542 278.879 406.898 277.468 408.55 276.57C410.203 275.672 412.075 275.329 413.916 275.587C415.757 275.845 417.48 276.691 418.856 278.014C420.233 279.337 421.197 281.073 421.621 282.991Z" fill="#FFB6B6"/>
<path d="M459.77 304.886C459.889 304.301 460.125 303.751 460.463 303.272C460.8 302.794 461.231 302.398 461.725 302.112L479.002 292.123C481.303 290.281 484.198 289.481 487.054 289.901C489.909 290.32 492.491 291.924 494.234 294.361C495.976 296.797 496.737 299.868 496.349 302.899C495.961 305.929 494.456 308.673 492.164 310.529L478.317 325.455C477.922 325.881 477.445 326.212 476.919 326.425C476.392 326.637 475.829 326.727 475.267 326.688C474.704 326.649 474.157 326.481 473.661 326.197C473.166 325.913 472.733 325.519 472.394 325.042L460.472 308.269C460.133 307.792 459.894 307.243 459.773 306.659C459.652 306.075 459.651 305.47 459.77 304.886Z" fill="#55A9DD"/>
<path d="M487.31 599.671H476.724L471.688 556.342L487.312 556.343L487.31 599.671Z" fill="#FFB6B6"/>
<path d="M489.855 247.626C492.341 239.219 497.994 231.509 505.811 228.667C513.629 225.826 525.077 230.155 530.954 236.37C541.705 247.74 542.036 261.658 534.65 274.001C533.181 273.919 528.111 273.858 526.624 273.799L524.521 266.359V273.725C512.914 273.345 500.831 273.583 488.741 273.83C487.658 265.091 487.369 256.032 489.855 247.626Z" fill="#E91F6F"/>
<path d="M552.553 599.671H541.967L536.931 556.342L552.555 556.343L552.553 599.671Z" fill="#FFB6B6"/>
<path d="M521.642 333.554L524.041 340.172L523.561 346.791L476.617 364.044L478.946 335.082L484.223 328.464L521.642 333.554Z" fill="#FFB6B6"/>
<path d="M506.799 274.002C516.059 274.002 523.566 266.036 523.566 256.21C523.566 246.384 516.059 238.419 506.799 238.419C497.539 238.419 490.033 246.384 490.033 256.21C490.033 266.036 497.539 274.002 506.799 274.002Z" fill="#FFB7B7"/>
<path d="M532.153 363.921V375.228C532.153 375.228 544.626 392.428 537.91 405.663L557.154 581.803H537.005L503.369 433.152L489.033 578.748H471.762L469.703 462.953C469.162 432.495 473.954 402.195 483.836 373.593V373.593L532.153 363.921Z" fill="#2F2E41"/>
<path d="M495.278 233.043C498.5 230.959 502.19 229.831 505.963 229.778C509.736 229.726 513.452 230.749 516.725 232.743C519.997 234.736 522.705 237.625 524.564 241.109C526.424 244.593 527.367 248.542 527.296 252.545C517.924 253.003 508.079 253.122 498.096 253.142L495.737 247.015L494.346 253.147C491.304 253.147 488.256 253.142 485.203 253.134C485.078 249.142 485.943 245.186 487.711 241.66C489.479 238.134 492.089 235.163 495.278 233.043Z" fill="#E91F6F"/>
<path d="M492.045 621H484.534L483.193 613.475L479.759 621H459.836C458.881 621 457.951 620.676 457.182 620.076C456.413 619.475 455.845 618.629 455.56 617.662C455.276 616.695 455.291 615.656 455.602 614.698C455.914 613.74 456.505 612.913 457.291 612.337L473.201 600.678V593.07L489.935 594.129L492.045 621Z" fill="#2F2E41"/>
<path d="M558.248 621H550.737L549.396 613.475L545.962 621H526.039C525.084 621 524.154 620.676 523.385 620.076C522.615 619.475 522.047 618.629 521.763 617.662C521.479 616.695 521.493 615.656 521.805 614.698C522.116 613.74 522.708 612.913 523.494 612.337L539.404 600.678V593.07L556.138 594.129L558.248 621Z" fill="#2F2E41"/>
<path d="M539.781 400.185C540.713 386.596 539.753 372.935 536.931 359.643C533.37 342.868 528.845 321.522 528.757 320.971C528.756 320.96 528.755 320.949 528.755 320.938L527.375 289.671C527.371 289.58 527.335 289.494 527.274 289.431C527.213 289.367 527.132 289.33 527.046 289.327L517.506 288.986C517.418 288.983 517.335 288.944 517.273 288.876C517.212 288.809 517.177 288.719 517.177 288.625C517.177 287.871 517.037 287.124 516.765 286.428C516.493 285.731 516.095 285.098 515.592 284.564C515.09 284.031 514.493 283.608 513.836 283.32C513.18 283.031 512.476 282.882 511.765 282.882H492.711C491.477 282.883 490.286 283.361 489.36 284.228C488.435 285.095 487.84 286.29 487.686 287.589C487.677 287.679 487.637 287.761 487.574 287.821C487.51 287.881 487.428 287.912 487.343 287.91L479.929 287.646C479.855 287.643 479.782 287.667 479.721 287.712C479.66 287.758 479.615 287.823 479.593 287.899L479.077 289.637C471.592 315.214 469.514 342.228 472.99 368.754C473.888 375.813 473.481 386.427 473.142 392.34C473.108 392.919 473.182 393.498 473.36 394.046C473.538 394.593 473.817 395.098 474.179 395.531C474.541 395.964 474.981 396.317 475.472 396.569C475.963 396.822 476.497 396.968 477.042 397.001C490.825 397.843 529.853 417.881 539.196 408.314C539.219 408.291 539.467 404.762 539.781 400.185Z" fill="#55A9DD"/>
<path d="M463.341 282.991C463.448 283.49 463.518 283.997 463.549 284.507L500.971 307.415L510.067 301.859L519.763 315.329L504.562 326.826C503.334 327.755 501.855 328.236 500.347 328.197C498.84 328.158 497.385 327.601 496.201 326.61L457.613 294.307C455.871 294.991 453.975 295.096 452.176 294.608C450.376 294.121 448.76 293.063 447.541 291.577C446.321 290.091 445.558 288.246 445.351 286.288C445.144 284.329 445.504 282.351 446.383 280.615C447.261 278.879 448.617 277.468 450.27 276.57C451.923 275.672 453.794 275.329 455.635 275.587C457.476 275.845 459.2 276.691 460.576 278.014C461.953 279.337 462.917 281.073 463.341 282.991Z" fill="#FFB6B6"/>
<path d="M501.49 304.886C501.609 304.302 501.845 303.751 502.182 303.273C502.52 302.794 502.95 302.398 503.445 302.112L520.722 292.123C523.023 290.281 525.918 289.483 528.773 289.903C531.628 290.322 534.209 291.926 535.951 294.362C537.693 296.799 538.454 299.868 538.067 302.899C537.679 305.929 536.175 308.673 533.884 310.529L520.037 325.455C519.642 325.881 519.165 326.212 518.638 326.425C518.112 326.637 517.548 326.727 516.986 326.688C516.424 326.649 515.877 326.481 515.381 326.197C514.885 325.913 514.453 325.519 514.114 325.042L502.192 308.269C501.853 307.792 501.614 307.243 501.493 306.659C501.372 306.075 501.371 305.47 501.49 304.886Z" fill="#55A9DD"/>
<path d="M43.6587 559.276C67.7708 559.276 87.3175 538.535 87.3175 512.949C87.3175 487.363 67.7708 466.621 43.6587 466.621C19.5467 466.621 0 487.363 0 512.949C0 538.535 19.5467 559.276 43.6587 559.276Z" fill="#B0D6EE"/>
<path d="M429.459 352.187L113.071 506.327C108.567 508.514 103.43 508.717 98.786 506.89C94.1419 505.063 90.3703 501.356 88.2987 496.582L10.2218 316.129C8.16038 311.35 7.96949 305.898 9.69101 300.97C11.4125 296.042 14.9059 292.04 19.4047 289.842L335.793 135.702C340.296 133.514 345.434 133.312 350.078 135.139C354.722 136.965 358.493 140.672 360.565 145.446L438.642 325.9C440.704 330.679 440.895 336.13 439.173 341.058C437.451 345.986 433.958 349.988 429.459 352.187Z" fill="white"/>
<path d="M24.6668 302.005C23.2053 302.719 22.0704 304.019 21.5111 305.62C20.9519 307.221 21.0139 308.992 21.6836 310.544L99.7605 490.998C100.434 492.549 101.659 493.753 103.167 494.347C104.676 494.94 106.345 494.874 107.808 494.164L424.196 340.024C425.658 339.309 426.793 338.009 427.352 336.408C427.911 334.807 427.849 333.036 427.18 331.484L349.103 151.03C348.43 149.479 347.204 148.275 345.696 147.682C344.187 147.088 342.518 147.154 341.055 147.865L24.6668 302.005Z" fill="#B0D6EE" fill-opacity="0.87"/>
<path d="M429.459 352.187L113.071 506.327C108.567 508.514 103.43 508.717 98.786 506.89C94.1419 505.063 90.3703 501.356 88.2987 496.582L10.2218 316.129C8.16038 311.35 7.96949 305.898 9.69101 300.97C11.4125 296.042 14.9059 292.04 19.4047 289.842L335.793 135.702C340.296 133.514 345.434 133.312 350.078 135.139C354.722 136.965 358.493 140.672 360.565 145.446L438.642 325.9C440.704 330.679 440.895 336.13 439.173 341.058C437.451 345.986 433.958 349.988 429.459 352.187ZM20.2142 291.713C16.1827 293.683 13.0522 297.269 11.5094 301.686C9.96673 306.102 10.1378 310.987 11.9852 315.269L90.062 495.723C91.9185 500.001 95.2984 503.323 99.4602 504.96C103.622 506.597 108.226 506.416 112.261 504.455L428.65 350.315C432.681 348.345 435.812 344.759 437.354 340.343C438.897 335.927 438.726 331.041 436.879 326.759L358.802 146.305C356.945 142.027 353.565 138.705 349.404 137.068C345.242 135.431 340.638 135.613 336.602 137.573L20.2142 291.713Z" fill="#55A9DD"/>
<path d="M350.401 270.299L99.0497 392.754C97.0253 393.737 94.7644 394.032 92.5757 393.601C90.387 393.169 88.3772 392.031 86.8206 390.343L13.2803 310.316C12.0742 309.004 11.1826 307.403 10.6806 305.649C10.1785 303.895 10.0807 302.039 10.3952 300.236C10.7098 298.434 11.4275 296.738 12.4881 295.291C13.5487 293.844 14.9212 292.688 16.4902 291.921L338.612 134.351C340.161 133.594 341.856 133.237 343.56 133.309C345.263 133.381 346.927 133.881 348.413 134.767C349.9 135.653 351.168 136.9 352.112 138.406C353.057 139.912 353.653 141.634 353.849 143.431L353.893 143.43L356.687 259.6C356.742 261.841 356.176 264.05 355.059 265.952C353.941 267.854 352.322 269.366 350.401 270.299ZM339.436 136.215L17.3022 293.791C16.0153 294.42 14.8896 295.368 14.0197 296.555C13.1498 297.742 12.5611 299.133 12.3031 300.611C12.0451 302.089 12.1254 303.612 12.5372 305.051C12.9489 306.489 13.6801 307.802 14.6693 308.879L88.2096 388.905C89.4863 390.29 91.1348 391.223 92.93 391.577C94.7252 391.932 96.5797 391.689 98.2402 390.883L349.592 268.428C351.167 267.662 352.495 266.422 353.412 264.862C354.328 263.302 354.793 261.491 354.747 259.653L351.978 144.511L352.365 144.501L351.978 144.511C351.94 142.958 351.54 141.438 350.813 140.089C350.086 138.74 349.054 137.603 347.811 136.781C346.568 135.959 345.152 135.476 343.691 135.378C342.229 135.279 340.767 135.567 339.436 136.215Z" fill="#55A9DD"/>
<path d="M192.782 435.96L114.471 474.112C113.903 474.389 113.288 474.545 112.663 474.571C112.038 474.596 111.414 474.491 110.828 474.26C110.241 474.03 109.703 473.679 109.244 473.228C108.785 472.777 108.415 472.234 108.154 471.631C107.893 471.027 107.747 470.375 107.723 469.712C107.7 469.049 107.8 468.387 108.017 467.765C108.235 467.142 108.566 466.572 108.992 466.085C109.418 465.599 109.929 465.206 110.498 464.93L188.809 426.778C189.956 426.22 191.265 426.169 192.448 426.635C193.631 427.101 194.591 428.046 195.117 429.263C195.644 430.48 195.694 431.869 195.256 433.124C194.818 434.38 193.928 435.4 192.782 435.96Z" fill="white"/>
<path d="M250.072 318.046C251.416 321.145 252.172 324.495 252.295 327.904C252.419 331.314 251.908 334.715 250.792 337.915C249.676 341.115 247.976 344.049 245.791 346.552C243.605 349.054 240.976 351.075 238.054 352.498C235.132 353.922 231.974 354.72 228.761 354.848C225.549 354.976 222.343 354.43 219.329 353.243C216.315 352.056 213.551 350.25 211.195 347.928C208.839 345.606 206.937 342.815 205.598 339.713" fill="#55A9DD"/>
<path d="M426.638 597.634H78.4969C73.544 597.628 68.7955 595.537 65.2932 591.821C61.791 588.105 59.821 583.066 59.8154 577.81V379.246C59.8211 373.99 61.7911 368.952 65.2934 365.235C68.7956 361.519 73.544 359.429 78.4969 359.423H426.638C431.591 359.429 436.339 361.519 439.841 365.235C443.344 368.952 445.314 373.99 445.319 379.246V577.81C445.314 583.066 443.344 588.105 439.841 591.821C436.339 595.537 431.591 597.628 426.638 597.634Z" fill="white"/>
<path d="M78.4971 372.806C76.8881 372.808 75.3455 373.487 74.2078 374.694C73.07 375.902 72.43 377.539 72.4282 379.246V577.81C72.43 579.518 73.07 581.154 74.2078 582.362C75.3455 583.569 76.8881 584.248 78.4971 584.25H426.638C428.247 584.248 429.79 583.569 430.927 582.362C432.065 581.154 432.705 579.518 432.707 577.81V379.246C432.705 377.539 432.065 375.902 430.927 374.694C429.79 373.487 428.247 372.808 426.638 372.806H78.4971Z" fill="#E91F6F"/>
<path d="M426.638 597.634H78.4969C73.544 597.628 68.7955 595.537 65.2932 591.821C61.791 588.105 59.821 583.066 59.8154 577.81V379.246C59.8211 373.99 61.7911 368.952 65.2934 365.235C68.7956 361.519 73.544 359.429 78.4969 359.423H426.638C431.591 359.429 436.339 361.519 439.841 365.235C443.344 368.952 445.314 373.99 445.319 379.246V577.81C445.314 583.066 443.344 588.105 439.841 591.821C436.339 595.537 431.591 597.628 426.638 597.634ZM78.4969 361.482C74.0584 361.487 69.8032 363.36 66.6647 366.691C63.5262 370.021 61.7608 374.536 61.7558 379.246V577.81C61.7608 582.52 63.5262 587.035 66.6647 590.366C69.8032 593.696 74.0584 595.569 78.4969 595.575H426.638C431.076 595.569 435.331 593.696 438.47 590.366C441.608 587.035 443.374 582.52 443.379 577.81V379.246C443.374 374.536 441.608 370.021 438.47 366.691C435.331 363.36 431.076 361.487 426.638 361.482H78.4969Z" fill="black" fill-opacity="0.87"/>
<path d="M386.989 488.212H110.412C108.186 488.209 106.015 487.476 104.196 486.115C102.376 484.754 100.997 482.83 100.246 480.606L64.8803 375.319C64.3003 373.592 64.1194 371.743 64.3529 369.926C64.5864 368.11 65.2274 366.379 66.222 364.881C67.2166 363.382 68.5358 362.158 70.0687 361.313C71.6016 360.467 73.3033 360.024 75.0309 360.022L429.731 359.443C431.436 359.441 433.117 359.867 434.637 360.687C436.157 361.507 437.472 362.698 438.475 364.161C439.477 365.624 440.139 367.319 440.406 369.106C440.672 370.893 440.536 372.721 440.008 374.441L440.048 374.46L396.908 481.272C396.078 483.333 394.695 485.089 392.931 486.323C391.168 487.557 389.101 488.214 386.989 488.212ZM429.746 361.502L75.0335 362.081C73.6166 362.083 72.2208 362.446 70.9636 363.139C69.7063 363.833 68.6243 364.836 67.8086 366.066C66.9928 367.295 66.467 368.714 66.2755 370.204C66.084 371.694 66.2324 373.211 66.7081 374.627L102.074 479.914C102.69 481.738 103.821 483.317 105.313 484.433C106.805 485.55 108.586 486.15 110.412 486.153H386.989C388.721 486.155 390.416 485.616 391.863 484.604C393.309 483.592 394.443 482.151 395.125 480.461L437.882 374.595L438.238 374.757L437.882 374.595C438.459 373.166 438.693 371.608 438.563 370.06C438.432 368.512 437.942 367.022 437.136 365.724C436.329 364.427 435.232 363.362 433.943 362.625C432.653 361.888 431.211 361.502 429.746 361.502Z" fill="black" fill-opacity="0.87"/>
<path d="M178.606 568.977H92.4359C91.1733 568.977 89.9624 568.445 89.0697 567.497C88.1769 566.55 87.6753 565.265 87.6753 563.925C87.6753 562.585 88.1769 561.3 89.0697 560.353C89.9624 559.406 91.1733 558.874 92.4359 558.874H178.606C179.868 558.874 181.079 559.406 181.972 560.353C182.865 561.3 183.366 562.585 183.366 563.925C183.366 565.265 182.865 566.55 181.972 567.497C181.079 568.445 179.868 568.977 178.606 568.977Z" fill="white"/>
<path d="M277.036 487.183C277.036 494.069 274.458 500.673 269.869 505.542C265.28 510.412 259.057 513.147 252.567 513.147C246.078 513.147 239.854 510.412 235.265 505.542C230.677 500.673 228.099 494.069 228.099 487.183" fill="#3F3D56"/>
<path d="M125.933 175.027C130.755 175.027 134.665 170.879 134.665 165.761C134.665 160.644 130.755 156.496 125.933 156.496C121.111 156.496 117.201 160.644 117.201 165.761C117.201 170.879 121.111 175.027 125.933 175.027Z" fill="#E91F6F"/>
<path d="M8.73175 411.028C13.5542 411.028 17.4635 406.88 17.4635 401.762C17.4635 396.645 13.5542 392.497 8.73175 392.497C3.90934 392.497 0 396.645 0 401.762C0 406.88 3.90934 411.028 8.73175 411.028Z" fill="#F39BBD"/>
<path d="M432.842 234.834C437.664 234.834 441.573 230.686 441.573 225.569C441.573 220.452 437.664 216.303 432.842 216.303C428.019 216.303 424.11 220.452 424.11 225.569C424.11 230.686 428.019 234.834 432.842 234.834Z" fill="#57A8DA"/>
<path d="M594.784 621H428.596C428.289 621 427.995 620.871 427.779 620.641C427.562 620.411 427.44 620.099 427.44 619.774C427.44 619.449 427.562 619.137 427.779 618.907C427.995 618.677 428.289 618.548 428.596 618.548H594.784C595.09 618.549 595.383 618.679 595.599 618.909C595.815 619.138 595.936 619.45 595.936 619.774C595.936 620.099 595.815 620.41 595.599 620.64C595.383 620.869 595.09 620.999 594.784 621Z" fill="#55A9DD"/>
<path d="M386.16 126.184C390.982 126.184 394.892 122.036 394.892 116.919C394.892 111.802 390.982 107.653 386.16 107.653C381.338 107.653 377.428 111.802 377.428 116.919C377.428 122.036 381.338 126.184 386.16 126.184Z" fill="#6F3E97" fill-opacity="0.87"/>
<path d="M64.3528 242.809C69.1752 242.809 73.0846 238.66 73.0846 233.543C73.0846 228.426 69.1752 224.278 64.3528 224.278C59.5304 224.278 55.6211 228.426 55.6211 233.543C55.6211 238.66 59.5304 242.809 64.3528 242.809Z" fill="#FFB6B6" fill-opacity="0.87"/>
</g>
<defs>
<clipPath id="clip0">
<rect width="587" height="621" fill="white"/>
</clipPath>
</defs>
</svg>
