<svg width="580" height="480" viewBox="0 0 580 480" fill="none" xmlns="http://www.w3.org/2000/svg">
<path d="M250.537 133.249H0V0H250.537V133.249Z" fill="white"/>
<path d="M250.238 0.89624H0.896484V32.5653H250.238V0.89624Z" fill="#B0D6EE"/>
<path d="M250.537 133.249H0V0H250.537V133.249ZM1.79382 131.457H248.743V1.79259H1.79382V131.457Z" fill="#55A9DD"/>
<path d="M113.029 58.9816C111.845 58.9854 110.886 60.5225 110.889 62.415C110.891 64.3022 111.848 65.8312 113.029 65.8349H214.149C215.334 65.8311 216.292 64.2939 216.29 62.4015C216.288 60.5142 215.331 58.9853 214.149 58.9816H113.029Z" fill="#B0D6EE"/>
<path d="M113.029 78.8381C111.845 78.8419 110.886 80.3791 110.889 82.2716C110.891 84.1588 111.848 85.6877 113.029 85.6915H214.149C215.334 85.6877 216.292 84.1505 216.29 82.258C216.288 80.3708 215.331 78.8419 214.149 78.8381H113.029Z" fill="#B0D6EE"/>
<path d="M113.029 98.4546C111.845 98.4584 110.886 99.9956 110.889 101.888C110.891 103.775 111.848 105.304 113.029 105.308H156.541C157.726 105.304 158.684 103.767 158.682 101.874C158.68 99.9873 157.723 98.4583 156.541 98.4546H113.029Z" fill="#B0D6EE"/>
<path d="M61.6869 109.306C76.8416 109.306 89.1268 97.029 89.1268 81.8848C89.1268 66.7406 76.8416 54.4637 61.6869 54.4637C46.5323 54.4637 34.2471 66.7406 34.2471 81.8848C34.2471 97.029 46.5323 109.306 61.6869 109.306Z" fill="#B0D6EE"/>
<path d="M548.909 133.249H298.372V0H548.909V133.249Z" fill="white"/>
<path d="M548.611 0.89624H299.27V32.5653H548.611V0.89624Z" fill="#55A9DD" fill-opacity="0.87"/>
<path d="M548.909 133.249H298.372V0H548.909V133.249ZM300.166 131.457H547.115V1.79259H300.166V131.457Z" fill="#55A9DD"/>
<path d="M411.402 58.9816C410.218 58.9854 409.259 60.5225 409.262 62.415C409.264 64.3022 410.221 65.8312 411.402 65.8349H512.522C513.707 65.8311 514.665 64.2939 514.663 62.4015C514.661 60.5142 513.704 58.9853 512.522 58.9816H411.402Z" fill="#55A9DD" fill-opacity="0.87"/>
<path d="M411.402 78.8381C410.218 78.8419 409.259 80.3791 409.262 82.2716C409.264 84.1588 410.221 85.6877 411.402 85.6915H512.522C513.707 85.6877 514.665 84.1505 514.663 82.258C514.661 80.3708 513.704 78.8419 512.522 78.8381H411.402Z" fill="#55A9DD" fill-opacity="0.87"/>
<path d="M411.402 98.4546C410.218 98.4584 409.259 99.9956 409.262 101.888C409.264 103.775 410.221 105.304 411.402 105.308H454.914C456.099 105.304 457.057 103.767 457.055 101.874C457.053 99.9873 456.096 98.4583 454.914 98.4546H411.402Z" fill="#55A9DD" fill-opacity="0.87"/>
<path d="M360.059 109.306C375.214 109.306 387.499 97.029 387.499 81.8848C387.499 66.7406 375.214 54.4637 360.059 54.4637C344.904 54.4637 332.619 66.7406 332.619 81.8848C332.619 97.029 344.904 109.306 360.059 109.306Z" fill="#55A9DD" fill-opacity="0.87"/>
<path d="M433.175 263.849H115.733V95.0157H433.175V263.849Z" fill="white"/>
<path d="M432.797 96.1514H116.87V136.278H432.797V96.1514Z" fill="#E91F6F" fill-opacity="0.87"/>
<path d="M433.175 263.849H115.733V95.0157H433.175V263.849ZM118.006 261.577H430.902V97.287H118.006V261.577Z" fill="#3F3D56"/>
<path d="M258.948 169.748C257.447 169.753 256.232 171.701 256.235 174.098C256.238 176.49 257.451 178.427 258.948 178.432H387.071C388.572 178.427 389.787 176.479 389.784 174.081C389.781 171.69 388.568 169.753 387.071 169.748H258.948Z" fill="#E91F6F" fill-opacity="0.87"/>
<path d="M258.948 194.907C257.447 194.912 256.232 196.86 256.235 199.258C256.238 201.649 257.451 203.586 258.948 203.591H387.071C388.572 203.586 389.787 201.638 389.784 199.24C389.781 196.849 388.568 194.912 387.071 194.907H258.948Z" fill="#E91F6F" fill-opacity="0.87"/>
<path d="M258.948 219.762C257.447 219.767 256.232 221.715 256.235 224.113C256.238 226.504 257.451 228.441 258.948 228.446H314.079C315.58 228.441 316.795 226.493 316.792 224.095C316.789 221.704 315.576 219.767 314.079 219.762H258.948Z" fill="#E91F6F" fill-opacity="0.87"/>
<path d="M193.894 233.511C213.095 233.511 228.661 217.956 228.661 198.767C228.661 179.579 213.095 164.024 193.894 164.024C174.692 164.024 159.126 179.579 159.126 198.767C159.126 217.956 174.692 233.511 193.894 233.511Z" fill="#E91F6F" fill-opacity="0.87"/>
<path d="M569.238 459.614L560.754 463.392L542.137 432.486L554.659 426.912L569.238 459.614Z" fill="#FFB6B6"/>
<path d="M575.065 466.87L547.708 479.049L547.554 478.703C546.296 475.881 546.211 472.675 547.318 469.791C548.425 466.906 550.634 464.579 553.458 463.322L553.458 463.321L570.167 455.883L575.065 466.87Z" fill="#2F2E41"/>
<path d="M526.479 286.684C527.336 285.859 528.002 284.857 528.43 283.747C528.857 282.638 529.036 281.448 528.954 280.262C528.871 279.076 528.529 277.922 527.953 276.882C527.376 275.842 526.578 274.941 525.615 274.243L516.626 200.711L502.609 204.16L513.84 276.475C512.773 278.17 512.365 280.196 512.693 282.171C513.022 284.146 514.064 285.932 515.622 287.19C517.18 288.448 519.146 289.092 521.147 288.999C523.148 288.905 525.045 288.082 526.479 286.684Z" fill="#FFB6B6"/>
<path d="M521.684 212.557C521.048 213.13 520.245 213.485 519.392 213.57L501.054 215.417C500.478 215.475 499.896 215.409 499.349 215.222C498.801 215.035 498.3 214.732 497.88 214.335C497.459 213.937 497.13 213.453 496.914 212.917C496.697 212.38 496.599 211.803 496.626 211.225L497.483 192.883C497.347 191.526 497.483 190.157 497.883 188.853C498.282 187.55 498.936 186.339 499.808 185.29C501.125 183.682 502.889 182.5 504.877 181.893C506.866 181.286 508.99 181.282 510.981 181.881C512.972 182.48 514.741 183.656 516.063 185.26C517.386 186.863 518.203 188.822 518.411 190.89L522.894 208.579C523.073 209.289 523.055 210.035 522.842 210.736C522.629 211.437 522.229 212.066 521.684 212.557Z" fill="#55A9DD"/>
<path d="M510.261 259.371L459.272 249.242L458.933 242.128L458.939 242.083L464.436 205.593C463.697 204.054 457.159 189.663 466.658 181.596C468.898 179.688 470.965 177.586 472.835 175.315C475.798 171.609 479.617 168.677 483.964 166.77C488.31 164.864 493.055 164.039 497.79 164.368C500.724 164.606 503.572 165.476 506.138 166.918C508.704 168.36 510.927 170.34 512.655 172.722C516.43 177.784 518.138 184.092 517.432 190.365L510.261 259.371Z" fill="#55A9DD"/>
<path d="M458.803 470.052L449.516 470.051L445.097 434.249L458.806 434.25L458.803 470.052Z" fill="#FFB6B6"/>
<path d="M461.173 479.049L431.224 479.048V478.669C431.224 475.58 432.452 472.617 434.638 470.432C436.824 468.248 439.789 467.02 442.881 467.02H442.881L461.173 467.021L461.173 479.049Z" fill="#2F2E41"/>
<path d="M444.54 456.151L442.521 307.068C441.861 284.793 447.695 262.807 459.313 243.785C459.313 243.785 504.391 243.407 511.589 258.927L565.38 445.931L550.227 452.745L485.83 312.681L462.722 456.909L444.54 456.151Z" fill="#2F2E41"/>
<path d="M437.175 206.338C437.495 206.683 437.786 207.053 438.048 207.445L480.245 207.491L485.395 198.633L499.788 204.652L492.197 221.218C491.584 222.557 490.553 223.66 489.258 224.363C487.964 225.066 486.477 225.331 485.019 225.117L437.521 218.148C436.36 219.541 434.803 220.548 433.056 221.035C431.309 221.523 429.455 221.467 427.74 220.875C426.026 220.284 424.532 219.184 423.458 217.724C422.384 216.263 421.78 214.511 421.727 212.699C421.674 210.887 422.175 209.102 423.162 207.582C424.148 206.061 425.575 204.876 427.252 204.186C428.929 203.495 430.777 203.331 432.549 203.716C434.322 204.1 435.935 205.014 437.175 206.338Z" fill="#FFB6B6"/>
<path d="M476.36 208.414L482.508 176.877C483.149 173.587 484.989 170.651 487.671 168.638C490.353 166.625 493.687 165.677 497.027 165.979C499.074 166.163 501.052 166.81 502.811 167.871C504.57 168.932 506.065 170.378 507.183 172.101C508.3 173.825 509.011 175.779 509.261 177.817C509.511 179.855 509.295 181.924 508.627 183.866L499.02 211.821L476.36 208.414Z" fill="#55A9DD"/>
<path d="M497.785 157.049C508.061 157.049 516.393 148.723 516.393 138.454C516.393 128.184 508.061 119.858 497.785 119.858C487.508 119.858 479.177 128.184 479.177 138.454C479.177 148.723 487.508 157.049 497.785 157.049Z" fill="#FFB6B6"/>
<path d="M475.224 127.949H504.771V115.079C498.285 112.504 491.939 110.315 488.103 115.079C484.687 115.079 481.411 116.435 478.996 118.849C476.581 121.262 475.224 124.536 475.224 127.949Z" fill="#E91F6F"/>
<path d="M506.406 112.808C524.07 112.808 529.014 134.933 529.014 147.416C529.014 154.377 525.864 156.867 520.914 157.709L519.165 148.391L515.071 158.11C513.68 158.117 512.219 158.09 510.705 158.062L509.316 155.205L506.22 158.011C493.821 158.029 483.799 159.835 483.799 147.416C483.799 134.933 488.135 112.808 506.406 112.808Z" fill="#E91F6F"/>
<path d="M597.297 480H353.337C353.167 480 353.004 479.909 352.884 479.746C352.764 479.584 352.696 479.363 352.696 479.134C352.696 478.904 352.764 478.683 352.884 478.521C353.004 478.358 353.167 478.267 353.337 478.267H597.297C597.467 478.267 597.63 478.358 597.75 478.521C597.87 478.683 597.938 478.904 597.938 479.134C597.938 479.363 597.87 479.584 597.75 479.746C597.63 479.909 597.467 480 597.297 480Z" fill="#55A9DD"/>
</svg>
