<svg width="813" height="625" viewBox="0 0 813 625" fill="none" xmlns="http://www.w3.org/2000/svg">
<path d="M779.313 549.479C776.084 523.523 759.995 497.949 735.236 489.502C745 516.218 744.998 545.526 735.23 572.241C731.426 582.53 726.123 593.578 729.701 603.948C731.928 610.4 737.375 615.337 743.464 618.424C749.553 621.51 756.31 622.982 762.983 624.423L764.297 625.509C774.89 601.594 782.541 575.436 779.313 549.479Z" fill="#B0D6EE" fill-opacity="0.87"/>
<path d="M734.991 489.993C749.409 506.145 758.371 526.429 760.602 547.964C761.165 552.591 760.995 557.278 760.098 561.853C759.08 566.28 756.895 570.355 753.769 573.653C750.917 576.786 747.636 579.661 745.595 583.433C744.579 585.379 743.986 587.519 743.855 589.71C743.723 591.902 744.057 594.096 744.834 596.15C746.636 601.317 750.187 605.529 753.803 609.527C757.819 613.966 762.06 618.514 763.766 624.399C763.973 625.112 765.068 624.749 764.861 624.038C761.892 613.798 751.95 607.982 747.209 598.76C744.997 594.457 744.068 589.461 746.142 584.918C747.956 580.946 751.336 577.978 754.252 574.831C757.348 571.658 759.62 567.776 760.87 563.523C761.997 559.009 762.348 554.337 761.907 549.705C761.081 539.262 758.617 529.014 754.607 519.336C750.091 508.266 743.715 498.049 735.754 489.129C735.261 488.577 734.501 489.445 734.991 489.993H734.991Z" fill="white"/>
<path d="M760.292 540.988C763.855 540.123 766.994 538.02 769.149 535.054C771.304 532.089 772.335 528.454 772.057 524.799C771.999 524.06 770.847 524.116 770.906 524.857C771.17 528.26 770.21 531.646 768.197 534.403C766.185 537.16 763.253 539.107 759.93 539.893C759.208 540.064 759.574 541.158 760.292 540.988Z" fill="white"/>
<path d="M755.424 572.254C748.989 568.413 744.239 562.288 742.12 555.1C741.911 554.387 740.816 554.75 741.025 555.461C743.244 562.937 748.2 569.301 754.906 573.284C755.545 573.663 756.06 572.632 755.424 572.254Z" fill="white"/>
<path d="M749.022 509.358C747.713 509.98 746.27 510.267 744.823 510.194C743.376 510.12 741.969 509.688 740.73 508.937C740.096 508.55 739.582 509.582 740.212 509.967C741.585 510.79 743.138 511.265 744.737 511.35C746.336 511.435 747.931 511.127 749.383 510.453C749.525 510.401 749.642 510.296 749.711 510.161C749.779 510.026 749.793 509.87 749.75 509.725C749.701 509.58 749.597 509.46 749.461 509.392C749.325 509.323 749.167 509.311 749.022 509.358Z" fill="white"/>
<path d="M659.768 535.863C660.157 536.116 660.546 536.369 660.936 536.632C666.15 540.06 671.077 543.906 675.668 548.132C676.028 548.453 676.389 548.784 676.739 549.114C687.692 559.413 696.637 571.656 703.12 585.22C705.695 590.62 707.855 596.208 709.581 601.935C711.966 609.845 713.922 618.611 718.641 625.081C719.126 625.762 719.653 626.412 720.218 627.027H762.87C762.967 626.978 763.064 626.939 763.161 626.891L764.864 626.969C764.796 626.667 764.718 626.356 764.65 626.054C764.611 625.879 764.563 625.704 764.524 625.529C764.495 625.412 764.465 625.295 764.446 625.188C764.436 625.149 764.426 625.11 764.417 625.081C764.397 624.974 764.368 624.877 764.348 624.78C763.92 623.038 763.479 621.296 763.025 619.555C763.025 619.545 763.025 619.545 763.015 619.535C759.522 606.274 754.89 593.188 748.419 581.221C748.224 580.861 748.03 580.492 747.815 580.132C744.868 574.754 741.487 569.625 737.704 564.798C735.625 562.162 733.413 559.632 731.077 557.219C725.031 550.996 718.043 545.762 710.37 541.71C695.072 533.635 677.362 530.541 661.013 535.474C660.595 535.6 660.186 535.727 659.768 535.863Z" fill="#55A9DD"/>
<path d="M659.864 536.404C681.103 540.622 700.472 551.423 715.222 567.274C718.458 570.63 721.144 574.475 723.183 578.667C725.036 582.815 725.745 587.384 725.235 591.898C724.845 596.117 723.957 600.387 724.598 604.628C724.959 606.793 725.774 608.858 726.989 610.687C728.204 612.516 729.792 614.067 731.649 615.24C736.199 618.281 741.571 619.506 746.866 620.521C752.745 621.649 758.87 622.727 763.776 626.398C764.371 626.843 765.026 625.895 764.433 625.451C755.896 619.063 744.456 620.403 735.117 615.894C730.759 613.789 727.009 610.359 725.93 605.484C724.986 601.221 725.898 596.816 726.331 592.548C726.892 588.151 726.369 583.684 724.806 579.536C722.987 575.253 720.453 571.311 717.312 567.879C710.364 560.038 702.226 553.338 693.196 548.025C682.924 541.904 671.681 537.585 659.952 535.255C659.226 535.111 659.142 536.261 659.864 536.404Z" fill="white"/>
<path d="M710.773 561.89C713.097 559.055 714.337 555.486 714.272 551.821C714.207 548.156 712.842 544.633 710.419 541.882C709.927 541.327 709.041 542.066 709.534 542.622C711.795 545.179 713.066 548.461 713.12 551.874C713.173 555.287 712.005 558.607 709.825 561.234C709.352 561.805 710.303 562.459 710.773 561.89H710.773Z" fill="white"/>
<path d="M725.715 589.785C718.264 590.591 710.782 588.56 704.762 584.096C704.166 583.654 703.51 584.602 704.106 585.044C710.379 589.677 718.169 591.775 725.921 590.919C726.66 590.837 726.45 589.703 725.715 589.785Z" fill="white"/>
<path d="M682.728 543.42C682.057 544.704 681.078 545.802 679.878 546.615C678.679 547.427 677.296 547.929 675.854 548.075C675.115 548.148 675.326 549.282 676.06 549.209C677.652 549.041 679.179 548.484 680.506 547.59C681.834 546.695 682.922 545.489 683.676 544.076C683.758 543.949 683.789 543.796 683.762 543.647C683.734 543.498 683.652 543.365 683.53 543.274C683.404 543.188 683.249 543.155 683.099 543.182C682.949 543.21 682.815 543.295 682.728 543.42Z" fill="white"/>
<path d="M591.091 93.3828L82.0696 0.140596C81.0333 -0.0585909 79.9674 -0.0460126 78.9361 0.17757C78.0007 0.382392 77.1226 0.79247 76.3651 1.37817C75.6248 1.95555 75.0291 2.69739 74.6252 3.5449C74.1956 4.46024 73.9771 5.46039 73.9859 6.47148V462.411C73.9764 463.422 74.1943 464.423 74.6233 465.339C75.0265 466.186 75.6215 466.929 76.3613 467.506C77.1182 468.093 77.9961 468.504 78.9313 468.709C79.9624 468.933 81.0283 468.947 82.0647 468.748L591.091 375.505C591.513 375.418 591.904 375.22 592.223 374.931C592.596 374.598 592.907 374.203 593.145 373.763C593.42 373.262 593.628 372.726 593.764 372.171C593.915 371.566 593.992 370.945 593.992 370.322V98.5812C593.992 97.9564 593.916 97.334 593.765 96.7278C593.629 96.1717 593.421 95.636 593.146 95.1341C592.908 94.6945 592.596 94.2994 592.224 93.9666C591.905 93.6773 591.514 93.4788 591.092 93.3916L591.091 93.3828Z" fill="#55A9DD"/>
<path d="M598.876 93.3828L89.8545 0.140596C88.8182 -0.0585909 87.7523 -0.0460126 86.721 0.17757C85.7857 0.382392 84.9075 0.792471 84.1501 1.37817C83.4097 1.95555 82.814 2.69739 82.4101 3.5449C81.9805 4.46024 81.762 5.46039 81.7708 6.47148V462.411C81.7613 463.422 81.9792 464.423 82.4082 465.339C82.8114 466.186 83.4064 466.929 84.1462 467.506C84.9031 468.093 85.781 468.504 86.7162 468.709C87.7473 468.933 88.8132 468.947 89.8496 468.748L598.876 375.505C599.298 375.418 599.689 375.22 600.008 374.931C600.38 374.598 600.692 374.203 600.929 373.763C601.205 373.262 601.413 372.726 601.549 372.171C601.7 371.566 601.777 370.945 601.777 370.322V98.5812C601.777 97.9564 601.701 97.334 601.55 96.7278C601.414 96.1717 601.206 95.636 600.93 95.1341C600.693 94.6945 600.381 94.2994 600.009 93.9666C599.69 93.6773 599.299 93.4788 598.877 93.3916L598.876 93.3828Z" fill="white"/>
<path d="M598.876 93.3828L89.8545 0.140596C88.8182 -0.0585909 87.7523 -0.0460126 86.721 0.17757C85.7857 0.382392 84.9075 0.79247 84.1501 1.37817C83.4097 1.95555 82.814 2.69739 82.4101 3.5449C81.9805 4.46024 81.762 5.46039 81.7708 6.47148V462.411C81.7613 463.422 81.9792 464.423 82.4082 465.339C82.8114 466.186 83.4064 466.929 84.1462 467.506C84.9031 468.093 85.781 468.504 86.7162 468.709C87.7473 468.933 88.8132 468.947 89.8496 468.748L598.876 375.505C599.298 375.418 599.689 375.22 600.008 374.931C600.38 374.598 600.692 374.203 600.929 373.763C601.205 373.262 601.413 372.726 601.549 372.171C601.7 371.566 601.777 370.945 601.777 370.322V98.5812C601.777 97.9564 601.701 97.334 601.55 96.7278C601.414 96.1717 601.206 95.636 600.93 95.1341C600.693 94.6945 600.381 94.2994 600.009 93.9666C599.69 93.6773 599.299 93.4788 598.877 93.3916L598.876 93.3828ZM600.813 370.486C600.813 370.904 600.762 371.319 600.661 371.724C600.57 372.095 600.431 372.453 600.247 372.787C600.089 373.081 599.881 373.344 599.632 373.566C599.419 373.758 599.159 373.89 598.878 373.947L89.8593 466.155C89.1687 466.286 88.4587 466.276 87.772 466.126C87.1497 465.988 86.5657 465.714 86.0622 465.323C85.5701 464.938 85.1744 464.444 84.9062 463.879C84.6212 463.271 84.4762 462.606 84.4819 461.934V6.956C84.476 6.28393 84.6206 5.61905 84.9052 5.01013C85.1729 4.44517 85.5683 3.95021 86.0603 3.56436C86.5634 3.17331 87.147 2.89882 87.7691 2.76071C88.4557 2.60986 89.1658 2.59959 89.8564 2.73054L598.878 94.9414C599.159 94.9989 599.419 95.1306 599.632 95.3228C599.881 95.5446 600.089 95.808 600.247 96.1012C600.431 96.4357 600.571 96.7929 600.662 97.1636C600.763 97.5684 600.814 97.984 600.814 98.4012V370.485L600.813 370.486Z" fill="#55A9DD" fill-opacity="0.87"/>
<path d="M0.000659161 142.31C-0.0238279 139.199 0.634212 136.121 1.92841 133.293C3.13795 130.68 4.92546 128.375 7.15599 126.554C9.40127 124.733 12.0225 123.433 14.831 122.747C17.8694 122.014 21.0268 121.919 24.1038 122.468C27.3312 123.03 30.428 124.179 33.2404 125.858C36.0189 127.511 38.506 129.61 40.6021 132.072C42.6805 134.498 44.3412 137.252 45.5163 140.223C46.6874 143.171 47.2954 146.312 47.3088 149.483C47.3306 152.483 46.7199 155.453 45.5163 158.201C44.386 160.754 42.7084 163.028 40.6021 164.861C38.4671 166.708 35.9548 168.067 33.2404 168.843C30.2709 169.681 27.1595 169.892 24.1038 169.463C20.8489 169.015 17.706 167.965 14.8358 166.366C11.9522 164.766 9.35858 162.692 7.16377 160.231C4.95968 157.775 3.19139 154.961 1.93521 151.91C0.67564 148.865 0.018666 145.605 0.000659161 142.31Z" fill="#55A9DD"/>
<path d="M0.000659161 236.684C-0.0238279 233.574 0.634212 230.496 1.92841 227.667C3.13795 225.054 4.92546 222.75 7.15599 220.929C9.40127 219.108 12.0225 217.808 14.831 217.122C17.8694 216.389 21.0268 216.294 24.1038 216.842C27.3312 217.404 30.428 218.554 33.2404 220.233C36.0189 221.886 38.506 223.985 40.6021 226.446C42.6805 228.872 44.3412 231.627 45.5163 234.598C46.6874 237.545 47.2954 240.686 47.3088 243.858C47.3306 246.857 46.7199 249.828 45.5163 252.575C44.386 255.129 42.7084 257.403 40.6021 259.236C38.4671 261.083 35.9548 262.442 33.2404 263.217C30.2709 264.056 27.1595 264.267 24.1038 263.838C20.8489 263.39 17.706 262.339 14.8358 260.74C11.9522 259.141 9.35858 257.067 7.16377 254.606C4.95968 252.15 3.19139 249.336 1.93521 246.284C0.67564 243.24 0.018666 239.979 0.000659161 236.684Z" fill="#55A9DD"/>
<path d="M0.000659161 331.059C-0.0238279 327.949 0.634212 324.871 1.92841 322.042C3.13795 319.429 4.92546 317.125 7.15599 315.303C9.40127 313.483 12.0225 312.182 14.831 311.496C17.8694 310.764 21.0268 310.668 24.1038 311.217C27.3312 311.779 30.428 312.928 33.2404 314.608C36.0189 316.261 38.506 318.36 40.6021 320.821C42.6805 323.247 44.3412 326.002 45.5163 328.972C46.6874 331.92 47.2954 335.061 47.3088 338.233C47.3306 341.232 46.7199 344.203 45.5163 346.95C44.386 349.503 42.7084 351.777 40.6021 353.611C38.4671 355.458 35.9548 356.816 33.2404 357.592C30.2709 358.43 27.1595 358.642 24.1038 358.213C20.8489 357.765 17.706 356.714 14.8358 355.115C11.9522 353.515 9.35858 351.442 7.16377 348.981C4.95968 346.525 3.19139 343.71 1.93521 340.659C0.67564 337.614 0.018666 334.354 0.000659161 331.059Z" fill="#55A9DD"/>
<path d="M5.83928 142.31C5.8148 139.199 6.47284 136.121 7.76703 133.293C8.97658 130.68 10.7641 128.375 12.9946 126.554C15.2399 124.733 17.8612 123.433 20.6696 122.747C23.708 122.014 26.8654 121.919 29.9424 122.468C33.1698 123.03 36.2666 124.179 39.0791 125.858C41.8575 127.511 44.3446 129.61 46.4407 132.072C48.5191 134.498 50.1798 137.252 51.3549 140.223C52.5261 143.171 53.1341 146.312 53.1474 149.483C53.1693 152.483 52.5585 155.453 51.3549 158.201C50.2246 160.754 48.547 163.028 46.4407 164.861C44.3057 166.708 41.7934 168.067 39.0791 168.843C36.1095 169.681 32.9981 169.892 29.9424 169.463C26.6875 169.015 23.5446 167.965 20.6745 166.366C17.7908 164.766 15.1972 162.692 13.0024 160.231C10.7983 157.775 9.03001 154.961 7.77383 151.91C6.51426 148.865 5.85729 145.605 5.83928 142.31Z" fill="#E91F6F"/>
<path d="M5.83936 236.041C5.82446 232.885 6.4816 229.761 7.76711 226.878C8.98784 224.162 10.7694 221.735 12.9947 219.756C15.2206 217.779 17.8346 216.288 20.6697 215.378C23.6621 214.426 26.8181 214.098 29.9425 214.414C33.1337 214.726 36.2354 215.648 39.0791 217.129C41.8484 218.57 44.3408 220.489 46.4408 222.799C48.5265 225.082 50.1904 227.717 51.355 230.582C52.5347 233.485 53.143 236.588 53.1465 239.721C53.16 242.764 52.5499 245.777 51.3541 248.575C50.2074 251.237 48.5262 253.636 46.4146 255.622C44.303 257.609 41.806 259.141 39.0782 260.123C36.153 261.174 33.0436 261.615 29.9415 261.418C26.7252 261.221 23.5778 260.401 20.6736 259.005C14.8755 256.218 10.2905 251.416 7.77489 245.496C6.50705 242.505 5.84903 239.29 5.83936 236.041Z" fill="#E91F6F"/>
<path d="M5.83937 329.773C5.83538 326.633 6.46728 323.524 7.69701 320.635C8.92674 317.745 10.7288 315.134 12.9947 312.96C15.781 310.292 19.175 308.343 22.8833 307.281C26.5917 306.219 30.503 306.076 34.2792 306.863C38.0554 307.651 41.5831 309.346 44.5573 311.802C47.5316 314.258 49.863 317.401 51.3502 320.96C52.812 324.502 53.3839 328.347 53.0159 332.161C52.6479 335.974 51.3513 339.64 49.2392 342.836C47.1272 346.033 44.2641 348.664 40.9003 350.499C37.5364 352.334 33.7742 353.317 29.9425 353.363C25.2516 353.431 20.6449 352.113 16.701 349.573C12.7571 347.032 9.65175 343.384 7.77491 339.085C6.49837 336.146 5.83956 332.977 5.83937 329.773Z" fill="#E91F6F"/>
<path d="M20.5422 142.203L27.609 143.289V136.322C27.6056 136.021 27.6674 135.722 27.79 135.447C27.9047 135.192 28.0753 134.967 28.2892 134.787C28.5052 134.607 28.7585 134.477 29.0307 134.407C29.3274 134.331 29.6366 134.318 29.9386 134.368C30.2587 134.419 30.5664 134.529 30.8466 134.693C31.1258 134.855 31.3764 135.062 31.5881 135.306C31.7994 135.547 31.9687 135.822 32.0892 136.12C32.2094 136.415 32.2725 136.73 32.2751 137.049V144.006L39.2076 145.069C39.5225 145.119 39.8255 145.227 40.1009 145.387C40.6532 145.708 41.0827 146.204 41.3212 146.796C41.4388 147.089 41.4999 147.402 41.5012 147.717C41.5035 148.016 41.4421 148.311 41.3212 148.584C41.2094 148.836 41.0433 149.06 40.8346 149.24C40.6228 149.42 40.374 149.551 40.1058 149.623C39.8145 149.701 39.5102 149.717 39.2125 149.67L32.2702 148.632V155.573C32.2725 155.874 32.2101 156.173 32.0873 156.448C31.9723 156.704 31.8022 156.931 31.5891 157.113C31.3738 157.295 31.1214 157.428 30.8495 157.502C30.5541 157.582 30.2452 157.6 29.9425 157.555C29.6229 157.508 29.3147 157.403 29.0336 157.243C28.7541 157.085 28.5031 156.881 28.2911 156.64C28.0794 156.401 27.91 156.127 27.79 155.831C27.6707 155.535 27.6093 155.219 27.609 154.9V147.933L20.5422 146.873C20.2175 146.823 19.9048 146.714 19.6197 146.551C19.336 146.389 19.0811 146.182 18.8655 145.937C18.6513 145.696 18.4792 145.42 18.3566 145.122C18.2344 144.823 18.171 144.503 18.1697 144.181C18.1674 143.876 18.2312 143.575 18.3566 143.298C18.4743 143.041 18.6482 142.814 18.8655 142.633C19.0853 142.449 19.3428 142.316 19.6197 142.244C19.9211 142.167 20.2352 142.153 20.5422 142.203Z" fill="white"/>
<path d="M25.5022 244.141L45.1261 245.563H45.1981L35.9953 228.858C35.9382 228.753 35.8564 228.664 35.7569 228.597C35.7081 228.565 35.6555 228.538 35.6002 228.519C35.5447 228.499 35.4868 228.486 35.428 228.481C35.3708 228.475 35.3132 228.478 35.2567 228.488C35.2023 228.499 35.1496 228.516 35.1001 228.541C35.0009 228.59 34.9181 228.667 34.8616 228.762L28.5996 239.054L28.298 239.549L25.5022 244.141Z" fill="white"/>
<path d="M14.3025 243.329L31.6162 244.584L28.2979 239.548L28.0585 239.184L23.7067 232.579C23.6296 232.476 23.5335 232.39 23.4235 232.324C23.3701 232.292 23.3137 232.265 23.2552 232.244C23.1946 232.222 23.132 232.207 23.0684 232.198C23.0068 232.19 22.9445 232.187 22.8825 232.191C22.8222 232.195 22.7625 232.206 22.7044 232.223C22.6472 232.239 22.5921 232.262 22.54 232.291C22.4875 232.319 22.4385 232.354 22.394 232.394L22.3794 232.411L22.3609 232.429L22.3463 232.447L22.3317 232.466L14.3025 243.329Z" fill="white"/>
<path d="M27.3958 226.109C27.795 226.143 28.1838 226.254 28.5412 226.436C28.8915 226.614 29.2075 226.852 29.4744 227.141C29.7408 227.428 29.9537 227.76 30.103 228.122C30.2545 228.488 30.3328 228.88 30.3337 229.276C30.3354 229.659 30.2568 230.039 30.103 230.39C29.957 230.723 29.7428 231.021 29.4744 231.266C29.2046 231.511 28.8868 231.698 28.5412 231.814C28.1727 231.937 27.7828 231.983 27.3958 231.949C26.9962 231.916 26.6067 231.806 26.2485 231.625C25.8965 231.448 25.5789 231.209 25.3104 230.921C25.0422 230.634 24.8276 230.301 24.6769 229.938C24.5241 229.57 24.4451 229.176 24.4444 228.778C24.4427 228.393 24.5219 228.012 24.6769 227.659C24.8244 227.326 25.0402 227.028 25.3104 226.784C25.5822 226.54 25.9016 226.355 26.2485 226.241C26.6179 226.119 27.0084 226.074 27.3958 226.109Z" fill="white"/>
<path d="M239.157 292.701L433.469 108.372L434.302 109.831L240.372 294.261L239.157 292.701Z" fill="#E6E6E6"/>
<path d="M239.188 83.78L240.407 82.3206L434.285 283.548L433.449 284.934L239.188 83.78Z" fill="#E6E6E6"/>
<path d="M431.504 105.681L242.621 79.7364C241.748 79.6117 240.858 79.6876 240.018 79.9583C239.219 80.2217 238.49 80.662 237.884 81.2464C237.258 81.851 236.766 82.5802 236.439 83.3869C236.082 84.2769 235.901 85.2279 235.907 86.187V289.472C235.904 290.444 236.085 291.408 236.439 292.313C236.769 293.155 237.259 293.924 237.883 294.578C238.485 295.208 239.212 295.705 240.017 296.037C240.842 296.374 241.731 296.523 242.62 296.473L431.504 286.073C432.141 286.031 432.759 285.83 433.299 285.489C433.871 285.128 434.367 284.658 434.759 284.106C435.191 283.503 435.523 282.834 435.742 282.124C435.982 281.354 436.104 280.552 436.103 279.745V112.38C436.102 111.564 435.98 110.751 435.742 109.97C435.52 109.237 435.189 108.542 434.759 107.908C434.367 107.323 433.872 106.814 433.299 106.405C432.766 106.025 432.151 105.777 431.504 105.681ZM242.621 294.381C241.986 294.416 241.352 294.308 240.764 294.066C240.189 293.828 239.671 293.472 239.242 293.021C238.796 292.553 238.447 292.002 238.212 291.4C237.96 290.755 237.831 290.067 237.833 289.374V86.439C237.829 85.7555 237.958 85.0779 238.212 84.4435C238.444 83.8666 238.795 83.3449 239.242 82.9121C239.674 82.4953 240.194 82.181 240.764 81.9927C241.363 81.7981 241.998 81.7425 242.621 81.8302L431.504 107.423C431.967 107.492 432.406 107.669 432.787 107.941C433.197 108.232 433.551 108.594 433.832 109.011C434.14 109.464 434.377 109.961 434.536 110.485C434.707 111.043 434.794 111.624 434.795 112.208V279.813C434.795 280.39 434.708 280.964 434.536 281.515C434.379 282.022 434.142 282.501 433.832 282.932C433.552 283.326 433.197 283.661 432.787 283.919C432.4 284.161 431.959 284.302 431.504 284.33L242.621 294.381Z" fill="#E6E6E6"/>
<path d="M236.364 317.941C235.862 317.996 235.383 318.182 234.976 318.48C234.526 318.81 234.143 319.223 233.849 319.697C233.514 320.226 233.261 320.803 233.098 321.408C232.917 322.067 232.829 322.749 232.838 323.433C232.842 324.088 232.94 324.739 233.13 325.366C233.295 325.918 233.551 326.437 233.889 326.904C234.183 327.314 234.564 327.654 235.005 327.899C235.421 328.127 235.893 328.233 236.367 328.206L567.037 300.83C567.3 300.808 567.547 300.695 567.735 300.51C567.976 300.28 568.171 300.007 568.31 299.704C568.486 299.332 568.616 298.94 568.699 298.537C568.797 298.07 568.848 297.595 568.851 297.118C568.856 296.647 568.813 296.175 568.722 295.712C568.647 295.319 568.521 294.937 568.348 294.575C568.217 294.286 568.027 294.028 567.79 293.817C567.599 293.647 567.351 293.556 567.095 293.56H567.037L236.364 317.941Z" fill="#55A9DD"/>
<path d="M236.364 349.094C235.859 349.164 235.381 349.363 234.976 349.671C234.526 350.012 234.144 350.434 233.849 350.915C233.515 351.452 233.262 352.035 233.098 352.646C232.917 353.31 232.829 353.996 232.838 354.684C232.841 355.337 232.94 355.985 233.13 356.609C233.294 357.155 233.551 357.668 233.889 358.126C234.182 358.528 234.563 358.857 235.003 359.09C235.422 359.308 235.895 359.401 236.365 359.36L567.037 322.888C567.302 322.858 567.548 322.738 567.735 322.549C567.976 322.312 568.17 322.034 568.31 321.727C568.486 321.349 568.616 320.952 568.699 320.544C568.797 320.075 568.848 319.599 568.851 319.12C568.856 318.649 568.813 318.179 568.722 317.717C568.647 317.327 568.522 316.948 568.349 316.591C568.216 316.307 568.025 316.055 567.787 315.851C567.594 315.686 567.346 315.601 567.092 315.613H567.034L236.364 349.094Z" fill="#55A9DD"/>
<path d="M236.364 379.744C235.857 379.828 235.379 380.04 234.976 380.359C234.526 380.712 234.144 381.144 233.849 381.633C233.515 382.178 233.262 382.768 233.098 383.385C232.917 384.051 232.83 384.739 232.838 385.429C232.841 386.078 232.939 386.724 233.13 387.345C233.293 387.885 233.55 388.391 233.889 388.842C234.182 389.235 234.564 389.555 235.003 389.776C235.425 389.982 235.898 390.063 236.365 390.008L567.037 344.589C567.303 344.551 567.549 344.425 567.735 344.231C567.975 343.988 568.17 343.704 568.31 343.393C568.485 343.012 568.616 342.611 568.699 342.199C568.797 341.73 568.848 341.252 568.851 340.772C568.856 340.302 568.813 339.834 568.722 339.373C568.648 338.986 568.522 338.61 568.348 338.256C568.217 337.976 568.025 337.729 567.787 337.532C567.593 337.372 567.343 337.293 567.092 337.312H567.034L236.364 379.744Z" fill="#55A9DD"/>
<path d="M39.3758 319.902L20.4993 319.676C20.1845 319.665 19.8703 319.709 19.5709 319.807C19.2815 319.902 19.0106 320.046 18.7701 320.232C18.5303 320.418 18.3248 320.644 18.1628 320.901C17.9968 321.164 17.8798 321.455 17.8174 321.76C17.7551 322.124 17.7741 322.497 17.8728 322.853C17.9222 323.031 17.9907 323.203 18.0772 323.366C18.2536 323.698 18.5003 323.988 18.8002 324.216C19.25 324.556 19.7977 324.743 20.3621 324.748L26.0393 324.799C26.307 324.801 26.5684 324.881 26.7914 325.029C27.0143 325.177 27.1892 325.387 27.2946 325.633C27.3654 325.8 27.4018 325.979 27.4016 326.159V337.294C27.3876 337.908 27.5924 338.508 27.9797 338.986C28.3671 339.465 28.9112 339.792 29.5162 339.91C30.0645 340.002 30.6279 339.912 31.12 339.653C31.6121 339.394 32.0058 338.981 32.2409 338.478C32.3958 338.146 32.4761 337.784 32.4764 337.418V326.191C32.4766 326.015 32.5112 325.842 32.5783 325.68C32.6455 325.518 32.7439 325.371 32.8678 325.248C32.9918 325.124 33.139 325.026 33.3009 324.959C33.4628 324.892 33.6363 324.857 33.8115 324.858L33.8242 324.858L39.2474 324.901C39.8528 324.92 40.4456 324.724 40.9201 324.348C41.3947 323.971 41.7202 323.439 41.8388 322.845C41.8983 322.485 41.8794 322.117 41.7835 321.766C41.6876 321.414 41.5168 321.087 41.283 320.808C41.0491 320.528 40.7576 320.303 40.4285 320.146C40.0993 319.99 39.7403 319.906 39.3758 319.902Z" fill="white"/>
<path d="M39.3769 334.902C39.9152 334.902 40.4392 335.075 40.8713 335.396C41.3034 335.717 41.6207 336.168 41.7762 336.684C41.9317 337.199 41.917 337.75 41.7345 338.257C41.552 338.763 41.2112 339.197 40.7627 339.494C40.3142 339.792 39.7817 339.937 39.2443 339.908C38.7068 339.88 38.1928 339.679 37.7785 339.335C37.3641 338.992 37.0715 338.524 36.9438 338.001C36.8161 337.478 36.8603 336.928 37.0697 336.433C37.2604 335.979 37.5813 335.591 37.9918 335.319C38.4023 335.046 38.8843 334.901 39.3769 334.902Z" fill="white"/>
<path d="M481.802 187.349C481.715 188.028 481.574 188.699 481.381 189.356L520.73 236.461L535.426 233.93L542.147 255.605L516.566 262.615C514.499 263.181 512.305 263.062 510.312 262.275C508.319 261.488 506.635 260.076 505.512 258.251L468.942 198.767C466.303 198.774 463.725 197.978 461.55 196.485C459.375 194.992 457.706 192.872 456.766 190.407C455.825 187.942 455.657 185.25 456.285 182.687C456.912 180.125 458.305 177.814 460.278 176.063C462.251 174.311 464.71 173.202 467.329 172.882C469.948 172.562 472.603 173.047 474.939 174.272C477.276 175.497 479.184 177.404 480.41 179.74C481.636 182.076 482.122 184.73 481.802 187.349Z" fill="#FFB6B6"/>
<path d="M522.472 233.835C522.893 233.154 523.455 232.572 524.121 232.128C524.787 231.684 525.541 231.389 526.332 231.264L553.938 226.862C557.844 225.63 562.079 225.996 565.714 227.881C569.35 229.766 572.089 233.016 573.332 236.917C574.575 240.818 574.22 245.053 572.345 248.693C570.47 252.333 567.227 255.081 563.329 256.334L538.106 268.595C537.386 268.945 536.599 269.136 535.799 269.154C534.999 269.172 534.204 269.018 533.469 268.702C532.733 268.386 532.075 267.914 531.538 267.321C531.002 266.727 530.599 266.025 530.358 265.261L521.899 238.437C521.657 237.674 521.584 236.868 521.683 236.074C521.782 235.279 522.051 234.516 522.472 233.835Z" fill="#E91F6F"/>
<path d="M524.011 615.399H512.081L506.406 569.391L524.013 569.392L524.011 615.399Z" fill="#FFB6B6"/>
<path d="M527.054 626.962L488.586 626.96V626.474C488.586 622.504 490.164 618.696 492.972 615.889C495.78 613.081 499.588 611.504 503.559 611.504H503.56L527.055 611.505L527.054 626.962Z" fill="#2F2E41"/>
<path d="M648.57 615.399H636.64L630.965 569.391L648.572 569.392L648.57 615.399Z" fill="#FFB6B6"/>
<path d="M651.613 626.962L613.145 626.96V626.474C613.145 622.504 614.723 618.696 617.531 615.889C620.339 613.081 624.147 611.504 628.118 611.504H628.119L651.614 611.505L651.613 626.962Z" fill="#2F2E41"/>
<path d="M528.67 335.147L580.367 320.21C599.2 333.565 612.203 360.334 607.992 394.97C601.205 450.785 640.493 522.551 657.436 595.267L628.138 596.187L563.98 442.678L526.367 599.383L500.194 600.206L517.697 384.439L528.67 335.147Z" fill="#2F2E41"/>
<path d="M551.689 199.409C566.459 199.409 578.433 187.438 578.433 172.671C578.433 157.904 566.459 145.933 551.689 145.933C536.92 145.933 524.946 157.904 524.946 172.671C524.946 187.438 536.92 199.409 551.689 199.409Z" fill="#FFB6B6"/>
<path d="M524.479 291.566C518.568 281.192 515.647 268.593 520.792 257.818C522.088 255.105 525.62 252.541 527.469 250.17L548.132 219.367L571.464 215.615C591.655 232.546 574.406 290.392 590.949 328.336L521.858 365.308C526.796 346.451 533.462 307.332 524.479 291.566Z" fill="#E91F6F"/>
<path d="M524.777 161.964C524.777 161.964 526.588 158.611 537.427 162.937C541.221 164.451 543 164.103 543.247 167.398C544.126 179.799 548.663 191.661 556.283 201.484L556.366 201.591L561.785 196.646L568.753 202.209L598.174 202.827C598.174 202.827 602.82 179.958 587.335 154C571.85 128.041 540.107 142.256 540.107 142.256C518.428 143.492 524.777 161.964 524.777 161.964Z" fill="#2F2E41"/>
<path d="M456.503 127.787L267.621 101.843C266.748 101.718 265.857 101.794 265.018 102.065C264.219 102.328 263.489 102.769 262.884 103.353C262.258 103.958 261.765 104.687 261.439 105.494C261.081 106.384 260.901 107.335 260.906 108.294V311.579C260.904 312.551 261.084 313.515 261.439 314.42C261.768 315.261 262.259 316.031 262.883 316.685C263.485 317.315 264.212 317.812 265.017 318.144C265.841 318.481 266.731 318.63 267.62 318.58L456.503 308.179C457.141 308.137 457.758 307.937 458.299 307.595C458.871 307.234 459.367 306.765 459.758 306.213C460.19 305.609 460.522 304.94 460.741 304.231C460.981 303.461 461.103 302.658 461.102 301.851V134.487C461.101 133.67 460.98 132.858 460.741 132.077C460.519 131.344 460.188 130.649 459.758 130.014C459.366 129.43 458.872 128.92 458.299 128.511C457.766 128.131 457.151 127.883 456.503 127.787Z" fill="#E91F6F"/>
<path opacity="0.2" d="M456.503 127.787L267.621 101.843C266.748 101.718 265.857 101.794 265.018 102.065C264.219 102.328 263.489 102.769 262.884 103.353C262.258 103.958 261.765 104.687 261.439 105.494C261.081 106.384 260.901 107.335 260.906 108.294V311.579C260.904 312.551 261.084 313.515 261.439 314.42C261.768 315.261 262.259 316.031 262.883 316.685C263.485 317.315 264.212 317.812 265.017 318.144C265.841 318.481 266.731 318.63 267.62 318.58L456.503 308.179C457.141 308.137 457.758 307.937 458.299 307.595C458.871 307.234 459.367 306.765 459.758 306.213C460.19 305.609 460.522 304.94 460.741 304.231C460.981 303.461 461.103 302.658 461.102 301.851V134.487C461.101 133.67 460.98 132.858 460.741 132.077C460.519 131.344 460.188 130.649 459.758 130.014C459.366 129.43 458.872 128.92 458.299 128.511C457.766 128.131 457.151 127.883 456.503 127.787Z" fill="black"/>
<path d="M464.288 127.787L275.406 101.843C274.533 101.718 273.643 101.794 272.803 102.065C272.004 102.328 271.274 102.769 270.669 103.353C270.043 103.958 269.55 104.687 269.224 105.494C268.866 106.384 268.686 107.335 268.692 108.294V311.579C268.689 312.551 268.869 313.515 269.224 314.42C269.553 315.261 270.044 316.031 270.668 316.685C271.27 317.315 271.997 317.812 272.802 318.144C273.626 318.481 274.516 318.63 275.405 318.58L464.288 308.179C464.926 308.137 465.543 307.937 466.084 307.595C466.656 307.234 467.152 306.765 467.543 306.213C467.976 305.609 468.307 304.94 468.526 304.231C468.766 303.461 468.888 302.658 468.887 301.851V134.487C468.887 133.67 468.765 132.858 468.526 132.077C468.305 131.344 467.973 130.649 467.543 130.014C467.151 129.43 466.657 128.92 466.084 128.511C465.551 128.131 464.936 127.883 464.288 127.787Z" fill="#E91F6F"/>
<path d="M463.478 290.307C463.992 290.76 464.469 291.252 464.906 291.78L525.972 285.539L532.098 271.945L553.826 278.507L545.32 303.626C544.633 305.655 543.306 307.407 541.538 308.618C539.771 309.829 537.658 310.434 535.517 310.342L465.744 307.354C464.274 309.544 462.171 311.235 459.716 312.201C457.261 313.168 454.57 313.364 452.001 312.764C449.431 312.164 447.106 310.796 445.333 308.842C443.56 306.888 442.424 304.441 442.077 301.826C441.729 299.211 442.186 296.552 443.386 294.203C444.587 291.854 446.474 289.926 448.798 288.675C451.121 287.425 453.77 286.911 456.392 287.203C459.014 287.494 461.486 288.577 463.478 290.307V290.307Z" fill="#FFB6B6"/>
<path d="M524.771 282.626C524.441 281.896 524.274 281.104 524.278 280.304C524.283 279.504 524.461 278.714 524.799 277.989L536.6 252.651C537.765 248.725 540.438 245.421 544.035 243.464C547.633 241.506 551.859 241.054 555.789 242.208C559.719 243.361 563.03 246.026 564.998 249.617C566.965 253.208 567.428 257.433 566.285 261.365L562.332 289.126C562.219 289.918 561.936 290.677 561.504 291.35C561.071 292.023 560.499 292.596 559.825 293.028C559.151 293.46 558.392 293.742 557.6 293.854C556.807 293.967 556 293.907 555.233 293.679L528.264 285.677C527.496 285.449 526.787 285.059 526.184 284.533C525.581 284.006 525.099 283.356 524.771 282.626Z" fill="#E91F6F"/>
</svg>
