<svg width="604" height="558" viewBox="0 0 604 558" fill="none" xmlns="http://www.w3.org/2000/svg">
<g clip-path="url(#clip0)">
<path d="M474.204 534.288C452.866 534.378 431.55 535.532 410.402 531.047C409.712 530.907 409.012 530.752 408.316 530.588C403.125 529.422 397.932 528.09 392.883 526.627C370.162 520.066 348.736 510.483 329.199 498.142C264.188 457.077 223.312 465.817 200.47 480.379C175.75 496.14 166.247 521.925 166.154 522.183L165.341 521.455C165.435 521.192 175.06 495.023 200.05 479.055C214.702 469.692 231.7 465.601 250.575 466.89C274.136 468.501 300.706 478.555 329.547 496.771C349.025 509.075 370.391 518.631 393.051 525.175C398.088 526.634 403.269 527.964 408.451 529.127C409.143 529.29 409.837 525.036 410.525 525.175C467.85 537.627 523.152 530.118 559.451 521.627C589.371 514.628 608.625 510.852 608.817 510.771L609.061 512.196C608.87 512.278 589.567 517.123 559.588 524.135C531.32 530.783 502.784 534.176 474.204 534.288Z" fill="#3F3D56"/>
<path d="M471 110.334C454.738 110.334 438.906 109.186 423.632 106.892C388.532 101.62 356.311 90.2443 327.862 73.0816C263.716 34.3816 223.384 42.6174 200.846 56.3419C176.455 71.1939 167.079 95.4941 166.987 95.7377L166.185 95.0508C166.278 94.8035 175.775 70.1422 200.432 55.0935C214.89 46.27 231.661 42.4122 250.285 43.6291C273.532 45.1472 299.748 54.6216 328.205 71.7894C392.453 110.55 463.945 112.073 512.606 106.53C565.349 100.519 603.381 85.1375 603.759 84.9829L604 86.3254C603.622 86.4807 565.522 101.892 512.696 107.915C498.552 109.528 484.625 110.334 471 110.334Z" fill="#3F3D56"/>
<path d="M403.83 6.78368C403.83 6.78368 379.613 -3.0672 364.045 36.3363C348.477 75.7398 324.26 119.084 324.26 119.084L338.098 123.024C338.098 123.024 341.558 95.4416 350.207 91.5012L346.747 126.964C346.747 126.964 450.534 168.338 497.237 123.024L495.508 109.233C495.508 109.233 502.427 111.203 502.427 123.024L507.616 117.114C507.616 117.114 502.427 105.292 486.859 89.5311C476.641 79.186 473.129 59.5045 471.923 47.1994C471.019 36.9244 467.409 27.2005 461.568 19.303C451.222 5.64658 432.371 -8.86828 403.83 6.78368Z" fill="#2F2E41"/>
<path d="M550.809 229.753C550.809 229.753 596.38 274.025 603.081 299.977C609.783 325.929 577.615 328.982 577.615 328.982L507.919 336.615C507.919 336.615 506.579 373.253 494.516 377.833C482.453 382.413 492.067 317.246 492.067 317.246L560.191 295.397L529.364 258.758L550.809 229.753Z" fill="#FBBEBE"/>
<path d="M337.698 275.551L332.337 356.461L302.85 493.855C302.85 493.855 276.044 556.445 298.829 557.972C321.614 559.498 320.274 498.434 320.274 498.434L363.164 368.674L367.185 280.131L337.698 275.551Z" fill="#FBBEBE"/>
<path d="M412.756 133.577C437.184 133.577 456.987 111.023 456.987 83.1997C456.987 55.3768 437.184 32.8219 412.756 32.8219C388.328 32.8219 368.525 55.3768 368.525 83.1997C368.525 111.023 388.328 133.577 412.756 133.577Z" fill="#FBBEBE"/>
<path d="M392.651 107.625C392.651 107.625 408.735 173.269 383.269 190.062C357.803 206.854 447.604 219.067 471.73 168.689C471.73 168.689 428.84 151.897 440.903 107.625H392.651Z" fill="#FBBEBE"/>
<path d="M361.824 197.695L353.782 194.641C353.782 194.641 337.698 202.274 337.698 216.014C337.698 229.753 335.018 284.711 335.018 284.711L371.206 289.29L361.824 197.695Z" fill="#E91F6F"/>
<path d="M523.017 529.06C473.538 537.408 400.276 542.173 330.26 498.311C328.994 496.955 323.089 494.589 323.089 493.789C323.089 489.026 323.113 493.539 323.433 488.883C327.264 431.552 353.196 383.755 363.229 367.192C363.734 366.35 364.203 365.592 364.621 364.919C366.241 362.33 367.184 360.962 367.184 360.962C367.184 360.962 444.922 359.517 485.131 377.834C487.07 378.761 488.844 380.083 490.367 381.735C505.359 397.492 517.843 475.609 523.017 529.06Z" fill="#2F2E41"/>
<path d="M490.495 176.322C490.495 176.322 507.919 165.636 525.343 188.535L560.191 234.333L533.385 267.918L482.453 232.806L490.495 176.322Z" fill="#E91F6F"/>
<path d="M364.961 83.5191C380.619 70.6123 393.294 55.7463 401.678 38.0625C401.678 38.0625 430.413 74.4278 447.974 76.2461C465.534 78.0643 449.57 32.6077 449.57 32.6077L417.642 23.5164L387.311 27.1529L363.365 45.3355L364.961 83.5191Z" fill="#2F2E41"/>
<path d="M465.029 165.636C465.029 165.636 446.272 199.414 389.975 183.288L358.028 193.309L353.782 194.641C353.782 194.641 357.803 286.237 368.526 303.03C379.248 319.822 376.568 328.982 373.887 330.509C371.206 332.035 364.505 328.982 368.526 336.615C372.547 344.248 377.908 339.668 372.547 344.248C367.185 348.828 364.505 365.62 364.505 365.62L490.495 383.94C490.495 383.94 486.474 324.402 497.196 293.87C507.919 263.338 510.6 251.125 510.6 251.125L502.558 174.796L465.029 165.636Z" fill="#E91F6F"/>
<path d="M203.018 119.378H7.58154V397.925H203.018V119.378Z" fill="#B0D6EE"/>
<path d="M79.6848 156.446H42.728V184.508H79.6848V156.446Z" fill="white"/>
<path d="M185.936 211.167H43.0361V220.989H185.936V211.167Z" fill="white"/>
<path d="M185.936 237.124H43.0361V246.946H185.936V237.124Z" fill="white"/>
<path d="M185.936 263.082H43.0361V272.903H185.936V263.082Z" fill="white"/>
<path d="M185.936 289.039H43.0361V298.861H185.936V289.039Z" fill="white"/>
<path d="M185.936 314.996H43.0361V324.818H185.936V314.996Z" fill="white"/>
<path d="M237.059 380.942C237.051 390.208 234.108 399.16 228.77 406.152C223.432 413.145 216.058 417.708 208.002 419.004C199.947 420.3 191.751 418.242 184.922 413.207C178.092 408.173 173.087 400.5 170.826 391.599C168.565 382.698 169.2 373.167 172.615 364.756C176.029 356.346 181.994 349.621 189.412 345.819C196.831 342.016 205.205 341.39 212.997 344.056C220.788 346.722 227.473 352.501 231.823 360.331C235.245 366.499 237.06 373.646 237.059 380.942Z" fill="#E91F6F"/>
<path d="M231.823 360.331L198.476 398.306C196.38 394.61 184.704 377.434 184.704 377.434C186.2 375.712 187.797 374.106 189.483 372.629L199.166 387.333L227.918 354.585C229.376 356.355 230.684 358.279 231.823 360.331Z" fill="white"/>
</g>
<defs>
<clipPath id="clip0">
<rect width="604" height="558" fill="white"/>
</clipPath>
</defs>
</svg>
