<svg width="476" height="525" viewBox="0 0 476 525" fill="none" xmlns="http://www.w3.org/2000/svg">
<g clip-path="url(#clip0)">
<path d="M420.868 280.226C418.255 302.603 412.826 320.568 405.374 334.896C395.457 353.987 378.495 361.679 363.342 369.728C358.963 372.049 354.411 374.028 349.726 375.645C322.153 385.211 291.292 382.673 267.051 377.623C250.049 374.078 232.79 371.897 215.44 371.101C210.491 370.878 205.538 370.767 200.58 370.769C192.934 370.779 55.2658 373.39 21.7474 305.561C13.472 288.83 7.79965 268.391 5.76177 243.476C-0.00476694 173.04 31.6889 126.78 72.5704 96.5431C149.905 39.3449 255.91 41.7436 332.104 100.449C382.858 139.552 430.379 198.733 420.868 280.226Z" fill="#F2F2F2"/>
<path d="M148.75 259.834C148.75 315.822 115.451 335.37 74.375 335.37C33.2988 335.37 0 315.822 0 259.834C0 203.846 74.375 132.621 74.375 132.621C74.375 132.621 148.75 203.846 148.75 259.834Z" fill="#57A8DA"/>
<path d="M71.6657 326.806L72.4274 279.949L104.128 221.981L72.5468 272.599L72.889 251.53L94.7369 209.591L72.9797 245.955L73.5955 208.062L96.9909 174.673L73.6922 202.103L74.077 132.621L71.6588 224.603L71.8576 220.809L48.0715 184.416L71.4763 228.092L69.26 270.413L69.194 269.289L41.7729 230.992L69.1107 273.257L68.8335 278.55L68.784 278.629L68.8068 279.064L63.184 386.433H70.6964L71.5978 330.975L98.8687 288.813L71.6657 326.806Z" fill="#3F3D56"/>
<path d="M476 263.303C476 319.291 442.701 338.84 401.625 338.84C360.549 338.84 327.25 319.291 327.25 263.303C327.25 207.315 401.625 136.09 401.625 136.09C401.625 136.09 476 207.315 476 263.303Z" fill="#57A8DA"/>
<path d="M398.916 330.275L399.677 283.418L431.378 225.45L399.797 276.068L400.139 255L421.987 213.06L400.23 249.424L400.846 211.531L424.241 178.142L400.942 205.573L401.327 136.091L398.909 228.072L399.108 224.278L375.322 187.886L398.726 231.562L396.51 273.882L396.444 272.758L369.023 234.461L396.361 276.727L396.084 282.019L396.034 282.099L396.057 282.533L390.434 389.902H397.946L398.848 334.444L426.119 292.282L398.916 330.275Z" fill="#3F3D56"/>
<path d="M321.3 215.753C321.3 276.966 284.894 298.34 239.984 298.34C195.074 298.34 158.667 276.966 158.667 215.753C158.667 154.54 239.984 76.6673 239.984 76.6673C239.984 76.6673 321.3 154.54 321.3 215.753Z" fill="#57A8DA"/>
<path d="M237.021 288.976L237.854 237.746L272.513 174.367L237.985 229.71L238.359 206.675L262.246 160.821L238.458 200.579L239.131 159.149L264.71 122.644L239.237 152.635L239.658 76.6675L237.014 177.234L237.231 173.085L211.225 133.297L236.814 181.049L234.391 227.319L234.319 226.091L204.338 184.22L234.228 230.43L233.925 236.216L233.871 236.303L233.895 236.778L227.748 354.169H235.962L236.947 293.534L266.763 247.437L237.021 288.976Z" fill="#3F3D56"/>
<path d="M412.533 394.979C412.533 408.117 326.4 449 220.15 449C113.9 449 27.7666 408.117 27.7666 394.979C27.7666 381.84 106.958 352.356 213.208 352.356C319.459 352.356 412.533 381.84 412.533 394.979Z" fill="#3F3D56"/>
<path opacity="0.1" d="M412.533 394.979C412.533 408.117 326.4 449 220.15 449C113.9 449 27.7666 408.117 27.7666 394.979C27.7666 381.84 106.958 352.356 213.208 352.356C319.459 352.356 412.533 381.84 412.533 394.979Z" fill="#E7206F"/>
<path d="M412.533 394.979C412.533 408.117 326.4 418.768 220.15 418.768C113.9 418.768 27.7666 408.117 27.7666 394.979C27.7666 381.84 106.958 352.356 213.208 352.356C319.459 352.356 412.533 381.84 412.533 394.979Z" fill="#E7206F"/>
<path d="M284.821 329.102C284.821 347.95 296.65 363.201 311.269 363.201L284.821 329.102Z" fill="#3F3D56"/>
<path d="M311.269 363.201C311.269 344.142 324.47 328.719 340.784 328.719L311.269 363.201Z" fill="#6F3E97"/>
<path d="M294.403 330.811C294.403 348.714 301.947 363.201 311.269 363.201L294.403 330.811Z" fill="#57A8DA"/>
<path d="M311.269 363.201C311.269 338.848 326.527 319.141 345.383 319.141L311.269 363.201Z" fill="#3F3D56"/>
<path d="M305.705 363.442C305.705 363.442 309.456 363.326 310.586 362.522C311.717 361.717 316.356 360.756 316.636 362.047C316.917 363.337 322.273 368.464 318.038 368.498C313.804 368.533 308.199 367.839 307.071 367.152C305.943 366.465 305.705 363.442 305.705 363.442Z" fill="#A8A8A8"/>
<path opacity="0.2" d="M318.114 368.049C313.879 368.083 308.275 367.39 307.146 366.703C306.287 366.18 305.945 364.303 305.83 363.437C305.751 363.44 305.705 363.442 305.705 363.442C305.705 363.442 305.943 366.465 307.071 367.152C308.199 367.839 313.804 368.533 318.038 368.498C319.261 368.489 319.683 368.054 319.66 367.41C319.49 367.799 319.024 368.042 318.114 368.049Z" fill="black"/>
<path opacity="0.1" d="M222.629 402.908C258.776 402.908 288.079 398.249 288.079 392.501C288.079 386.752 258.776 382.093 222.629 382.093C186.482 382.093 157.179 386.752 157.179 392.501C157.179 398.249 186.482 402.908 222.629 402.908Z" fill="black"/>
<path d="M251.388 369.207H244.942V384.075H251.388V369.207Z" fill="#FFB9B9"/>
<path d="M251.884 168.485H227.092V213.09H251.884V168.485Z" fill="#FF6584"/>
<path d="M270.091 252.903L270.949 259.764L248.353 266.626L245.493 254.047L270.091 252.903Z" fill="#FFB9B9"/>
<path d="M236.626 186.861C236.626 186.861 236.054 192.008 234.91 192.008C233.766 192.008 229.761 194.009 229.761 194.009L228.617 199.441L236.626 204.301L249.783 202.872L253.501 197.154L249.783 193.437C249.783 193.437 246.637 186.576 247.781 185.146C248.925 183.717 236.626 186.861 236.626 186.861Z" fill="#FFB9B9"/>
<path opacity="0.1" d="M236.626 186.861C236.626 186.861 236.054 192.008 234.91 192.008C233.766 192.008 229.761 194.009 229.761 194.009L228.617 199.441L236.626 204.301L249.783 202.872L253.501 197.154L249.783 193.437C249.783 193.437 246.637 186.576 247.781 185.146C248.925 183.717 236.626 186.861 236.626 186.861Z" fill="black"/>
<path d="M200.873 364.973C200.873 364.973 198.299 382.127 195.152 383.271C192.006 384.414 207.165 386.415 207.165 386.415L208.31 380.126C208.31 380.126 208.596 368.69 209.74 366.975C210.884 365.259 200.873 364.973 200.873 364.973Z" fill="#FFB9B9"/>
<path d="M230.048 265.196C230.048 265.196 271.521 257.763 271.807 256.334C272.093 254.904 280.388 267.198 275.239 291.213C270.091 315.228 257.22 371.835 257.22 371.835C257.22 371.835 244.063 375.837 244.349 372.692C244.635 369.548 248.925 314.942 248.925 314.942L246.065 291.785L241.203 294.643L220.895 334.669L210.598 369.262C210.598 369.262 197.441 371.549 199.443 366.689C201.445 361.828 208.024 324.091 208.024 324.091L226.043 270.914C226.043 270.914 225.471 265.196 230.048 265.196Z" fill="#2F2E41"/>
<path d="M240.487 190.721C247.122 190.721 252.5 185.345 252.5 178.713C252.5 172.082 247.122 166.706 240.487 166.706C233.853 166.706 228.474 172.082 228.474 178.713C228.474 185.345 233.853 190.721 240.487 190.721Z" fill="#FFB9B9"/>
<path d="M252.929 193.723C252.929 193.723 247.209 199.155 233.766 197.725C220.323 196.296 237.484 228.316 237.484 228.316L242.918 260.622C242.918 260.622 266.944 257.763 267.802 252.331C268.661 246.899 252.929 193.723 252.929 193.723Z" fill="#F2F2F2"/>
<path d="M247.209 224.314C247.209 224.314 240.344 220.883 237.77 211.448C235.196 202.014 232.908 192.293 231.478 192.579C230.27 192.821 219.071 197.138 215.442 200.026C214.773 200.558 214.361 201.042 214.316 201.442C214.03 204.015 224.613 229.746 224.613 229.746C224.613 229.746 232.908 248.329 229.475 254.332C226.043 260.336 225.757 268.055 232.05 267.484C238.342 266.912 259.222 265.768 256.362 249.758C256.362 249.758 261.796 260.908 276.955 252.903C276.955 252.903 286.108 251.473 285.822 248.329C285.536 245.184 271.235 218.024 271.235 218.024C271.235 218.024 268.947 206.016 273.237 201.442L263.512 190.006C263.512 190.006 261.224 186.576 258.936 188.291C256.648 190.006 251.499 192.865 250.641 193.151C249.783 193.437 249.219 192.124 249.219 192.124C247.237 196.267 246.443 200.877 246.923 205.445C247.781 212.878 247.209 224.314 247.209 224.314Z" fill="#2F2E41"/>
<path d="M201.731 379.84C201.731 379.84 201.093 377.839 197.408 379.84C197.408 379.84 198.585 373.55 194.581 373.55C190.576 373.55 189.146 380.983 189.146 380.983C189.146 380.983 188.002 385.844 180.28 387.845C172.557 389.846 178.563 396.708 183.998 396.708C189.432 396.708 196.583 392.419 196.583 392.419C196.583 392.419 211.456 392.705 211.742 389.846C212.028 386.987 210.312 378.41 209.168 378.41C208.024 378.41 205.736 382.413 205.736 382.413L201.731 379.84Z" fill="#2F2E41"/>
<path d="M250.355 374.808C250.355 374.808 246.351 370.52 244.063 377.667C241.774 384.815 240.058 387.674 241.488 388.817C242.918 389.961 244.063 389.389 243.49 391.676C242.918 393.963 245.207 398.824 250.355 398.824C255.503 398.824 256.934 395.107 256.648 392.534C256.362 389.961 254.073 386.816 254.073 386.816L251.785 378.811L250.355 374.808Z" fill="#2F2E41"/>
<path d="M272.951 173.71L257.792 178.856C257.792 178.856 244.063 186.861 250.069 188.577C256.076 190.292 261.224 183.431 261.224 183.431L274.381 180L272.951 173.71Z" fill="#FFB9B9"/>
<path d="M232.314 160.145C230.514 161.378 229.081 163.066 227.719 164.769C224.951 168.23 222.239 172.363 222.921 176.742C223.18 178.404 223.919 179.952 224.336 181.583C224.897 183.783 224.86 186.086 224.82 188.357C224.853 189.322 224.733 190.286 224.465 191.214C224.065 192.117 223.593 192.988 223.056 193.818C221.678 196.383 221.645 199.43 221.643 202.341C221.577 203.321 221.711 204.304 222.035 205.231C222.412 206.106 223.112 206.792 223.693 207.548C224.655 208.824 225.297 210.312 225.565 211.887C225.833 213.463 225.72 215.079 225.234 216.602C225.98 216.605 226.712 216.395 227.344 215.997C227.975 215.599 228.48 215.03 228.799 214.355C228.898 215.08 228.835 215.819 228.616 216.517C228.396 217.216 228.025 217.857 227.528 218.395C230.802 217.423 234.312 215.783 235.507 212.585C235.858 211.498 236.055 210.368 236.095 209.226C236.73 201.204 237.093 192.881 234.215 185.365C233.294 182.96 232.04 180.633 231.732 178.077C231.423 175.52 232.367 172.566 234.716 171.511C234.771 172.165 235.062 172.777 235.534 173.233C236.057 173.621 237.024 173.378 237.034 172.727L238.169 174.306C238.604 174.093 238.976 173.769 239.246 173.367L240.024 174.319L241.679 173.116L243.116 174.664C243.669 174.349 244.11 173.87 244.378 173.292C244.686 173.754 245.069 174.261 245.622 174.311C246.827 174.42 247.076 172.509 248.128 171.913C248.517 171.741 248.955 171.714 249.361 171.837C249.768 171.961 250.117 172.226 250.345 172.584C250.779 173.322 250.938 174.19 250.792 175.034C250.356 178.965 247 182.552 247.995 186.38C248.555 188.533 250.439 190.259 250.581 192.479C250.695 194.252 249.652 195.93 249.668 197.708C249.686 199.791 251.126 201.56 252.532 203.098C255.033 205.835 257.666 208.444 260.431 210.924L259.577 209.431C259.975 209.4 260.376 209.455 260.751 209.593C261.127 209.731 261.468 209.948 261.751 210.23C261.997 209.372 261.59 208.478 261.206 207.672C258.906 202.845 257.05 197.706 256.772 192.367C256.387 184.946 259.056 177.409 257.365 170.173C256.392 166.122 254.124 162.498 250.905 159.851C249.34 158.564 248.154 157.792 246.127 157.65C243.862 157.454 241.584 157.472 239.322 157.704C236.823 157.942 234.419 158.779 232.314 160.145Z" fill="#E7206F"/>
<path d="M261.224 190.292C261.224 190.292 264.37 190.578 265.801 190.292C267.231 190.006 269.233 188.577 269.233 188.577L280.102 180.572L270.663 182.001C270.663 182.001 272.379 168.85 271.807 168.564C271.235 168.278 299.551 162.846 298.979 171.709C298.407 180.572 282.39 198.011 273.237 201.442L267.231 202.3L261.224 190.292Z" fill="#2F2E41"/>
<path d="M292.046 291.649H157.179V323.368H292.046V291.649Z" fill="white"/>
<path d="M274.444 298.835H174.286V315.686H274.444V298.835Z" fill="#3F3D56"/>
<path d="M197.561 306.891C197.521 306.459 195.609 306.266 192.985 306.374C194.506 304.235 195.386 302.527 195.045 302.258C194.724 302.005 193.409 303.102 191.808 304.883C191.657 302.493 191.305 300.817 190.896 300.817C190.449 300.817 190.072 302.811 189.947 305.551C187.72 303.95 185.921 303.01 185.644 303.36C185.379 303.695 186.583 305.108 188.497 306.798C185.971 307.172 184.191 307.701 184.231 308.126C184.271 308.558 186.183 308.75 188.806 308.642C187.286 310.782 186.405 312.489 186.746 312.758C187.067 313.012 188.382 311.915 189.984 310.133C190.135 312.523 190.486 314.199 190.896 314.199C191.342 314.199 191.72 312.205 191.844 309.465C194.072 311.067 195.871 312.006 196.148 311.656C196.412 311.322 195.208 309.909 193.294 308.219C195.82 307.844 197.6 307.315 197.561 306.891Z" fill="white"/>
<path d="M214.419 306.891C214.379 306.459 212.467 306.266 209.844 306.374C211.364 304.235 212.245 302.527 211.904 302.258C211.583 302.005 210.268 303.102 208.666 304.883C208.515 302.493 208.164 300.817 207.754 300.817C207.308 300.817 206.93 302.811 206.806 305.551C204.578 303.95 202.779 303.01 202.502 303.36C202.238 303.695 203.442 305.108 205.356 306.798C202.83 307.172 201.05 307.701 201.089 308.126C201.129 308.558 203.041 308.75 205.665 308.642C204.144 310.782 203.264 312.489 203.604 312.758C203.926 313.012 205.241 311.915 206.842 310.133C206.993 312.523 207.345 314.199 207.754 314.199C208.201 314.199 208.578 312.205 208.703 309.465C210.93 311.067 212.729 312.006 213.006 311.656C213.271 311.322 212.067 309.909 210.152 308.219C212.679 307.844 214.459 307.315 214.419 306.891Z" fill="white"/>
<path d="M231.278 306.891C231.238 306.459 229.326 306.266 226.702 306.374C228.222 304.235 229.103 302.527 228.762 302.258C228.441 302.005 227.126 303.102 225.525 304.883C225.374 302.493 225.022 300.817 224.613 300.817C224.166 300.817 223.788 302.811 223.664 305.551C221.436 303.95 219.637 303.01 219.36 303.36C219.096 303.695 220.3 305.108 222.214 306.798C219.688 307.172 217.908 307.701 217.947 308.126C217.987 308.558 219.9 308.75 222.523 308.642C221.003 310.782 220.122 312.489 220.463 312.758C220.784 313.012 222.099 311.915 223.7 310.133C223.852 312.523 224.203 314.199 224.613 314.199C225.059 314.199 225.437 312.205 225.561 309.465C227.789 311.067 229.588 312.006 229.865 311.656C230.129 311.322 228.925 309.909 227.011 308.219C229.537 307.844 231.317 307.315 231.278 306.891Z" fill="white"/>
<path d="M248.136 306.891C248.096 306.459 246.184 306.266 243.561 306.374C245.081 304.235 245.961 302.527 245.621 302.258C245.299 302.005 243.984 303.102 242.383 304.883C242.232 302.493 241.881 300.817 241.471 300.817C241.024 300.817 240.647 302.811 240.523 305.551C238.295 303.95 236.496 303.01 236.219 303.36C235.954 303.695 237.158 305.108 239.073 306.798C236.546 307.172 234.766 307.701 234.806 308.126C234.846 308.558 236.758 308.75 239.381 308.642C237.861 310.782 236.981 312.489 237.321 312.758C237.643 313.012 238.958 311.915 240.559 310.133C240.71 312.523 241.061 314.199 241.471 314.199C241.918 314.199 242.295 312.205 242.419 309.465C244.647 311.067 246.446 312.006 246.723 311.656C246.988 311.322 245.784 309.909 243.869 308.219C246.396 307.844 248.176 307.315 248.136 306.891Z" fill="white"/>
<path d="M264.995 306.891C264.955 306.459 263.042 306.266 260.419 306.374C261.939 304.235 262.82 302.527 262.479 302.258C262.158 302.005 260.843 303.102 259.242 304.883C259.09 302.493 258.739 300.817 258.329 300.817C257.883 300.817 257.505 302.811 257.381 305.551C255.153 303.95 253.354 303.01 253.077 303.36C252.813 303.695 254.017 305.108 255.931 306.798C253.405 307.172 251.625 307.701 251.664 308.126C251.704 308.558 253.616 308.75 256.24 308.642C254.72 310.782 253.839 312.489 254.18 312.758C254.501 313.012 255.816 311.915 257.417 310.133C257.568 312.523 257.92 314.199 258.329 314.199C258.776 314.199 259.154 312.205 259.278 309.465C261.506 311.067 263.305 312.006 263.582 311.656C263.846 311.322 262.642 309.909 260.728 308.219C263.254 307.844 265.034 307.315 264.995 306.891Z" fill="white"/>
<path d="M212.6 278.062C212.6 278.062 211.17 296.931 218.034 297.788C224.899 298.646 218.606 276.346 218.606 276.346L212.6 278.062Z" fill="#FFB9B9"/>
<path d="M216.318 200.87L214.316 201.442C214.316 201.442 206.021 267.769 211.456 280.635C211.456 280.635 217.176 277.49 220.037 278.062L224.613 224.028L216.318 200.87Z" fill="#2F2E41"/>
</g>
<path d="M308 16.1053C317.324 16.1053 320.552 5.36842 321.448 0C321.897 5.36842 327.199 16.102 334 16.1053C327.186 16.1053 322.793 28.0351 321.448 34C320.103 28.0351 315.531 16.1053 308 16.1053Z" fill="white"/>
<path d="M106 491.105C115.324 491.105 118.552 480.368 119.448 475C119.897 480.368 125.199 491.102 132 491.105C125.186 491.105 120.793 503.035 119.448 509C118.103 503.035 113.531 491.105 106 491.105Z" fill="white"/>
<path d="M356 43.7368C374.29 43.7368 380.621 22.5789 382.379 12C383.259 22.5789 393.66 43.7304 407 43.7368C393.634 43.7368 385.017 67.2456 382.379 79C379.741 67.2456 370.772 43.7368 356 43.7368Z" fill="white"/>
<path d="M38 489.737C56.2897 489.737 62.6207 468.579 64.3793 458C65.2586 468.579 75.6598 489.73 89 489.737C75.6345 489.737 67.0172 513.246 64.3793 525C61.7414 513.246 52.7724 489.737 38 489.737Z" fill="white"/>
<defs>
<clipPath id="clip0">
<rect width="476" height="394" fill="white" transform="translate(0 55)"/>
</clipPath>
</defs>
</svg>
