<svg width="527" height="435" viewBox="0 0 527 435" fill="none" xmlns="http://www.w3.org/2000/svg">
<g clip-path="url(#clip0)">
<path d="M177.296 255.38H73.437V352.606H177.296V255.38Z" fill="#B0D6EE"/>
<path d="M219.733 386.411H31V221.574H219.733V386.411ZM32.1168 385.294H218.617V222.692H32.1168V385.294Z" fill="#B0D6EE"/>
<path d="M443.5 159.111C427.777 159.111 412.406 154.445 399.332 145.703C386.259 136.962 376.069 124.537 370.052 110C364.034 95.463 362.46 79.4671 365.528 64.0349C368.595 48.6026 376.167 34.4272 387.285 23.3012C398.403 12.1752 412.569 4.59826 427.99 1.5286C443.412 -1.54106 459.397 0.0344065 473.924 6.05577C488.45 12.0771 500.866 22.2739 509.602 35.3568C518.338 48.4396 523 63.8208 523 79.5554C522.976 100.647 514.593 120.869 499.689 135.783C484.785 150.698 464.578 159.087 443.5 159.111ZM443.5 1.17857C428.009 1.17857 412.867 5.77528 399.987 14.3874C387.107 22.9996 377.068 35.2404 371.14 49.5618C365.212 63.8833 363.661 79.6423 366.683 94.8459C369.705 110.05 377.164 124.015 388.118 134.976C399.071 145.937 413.027 153.402 428.22 156.426C443.413 159.45 459.161 157.898 473.473 151.966C487.784 146.034 500.017 135.988 508.623 123.099C517.229 110.21 521.822 95.0568 521.822 79.5554C521.799 58.7757 513.54 38.8539 498.857 24.1605C484.173 9.46704 464.265 1.20199 443.5 1.17859V1.17857Z" fill="#B0D6EE"/>
<path d="M441.145 117.86C462.285 117.86 479.422 100.71 479.422 79.5554C479.422 58.4004 462.285 41.2509 441.145 41.2509C420.004 41.2509 402.867 58.4004 402.867 79.5554C402.867 100.71 420.004 117.86 441.145 117.86Z" fill="#B0D6EE"/>
<path d="M508.941 195.705L486.203 208.842L499.331 231.595L522.069 218.459L508.941 195.705Z" fill="#E7206F"/>
<path d="M161.927 68.1859L139.189 81.3228L152.317 104.076L175.055 90.9396L161.927 68.1859Z" fill="#B0D6EE"/>
<path d="M477.263 339.074L454.525 352.21L467.653 374.964L490.391 361.827L477.263 339.074Z" fill="#FFB8B8"/>
<path d="M134.859 294.494H115.874V313.492H134.859V294.494Z" fill="#57A8DA"/>
<path d="M441.144 88.9841C446.348 88.9841 450.567 84.7627 450.567 79.5554C450.567 74.348 446.348 70.1266 441.144 70.1266C435.941 70.1266 431.722 74.348 431.722 79.5554C431.722 84.7627 435.941 88.9841 441.144 88.9841Z" fill="#57A8DA"/>
<path d="M412.931 207.576L364.156 235.756L392.316 284.564L441.091 256.385L412.931 207.576Z" fill="#57A8DA"/>
<path d="M431.247 433.559H128.87V435H431.247V433.559Z" fill="#CBCBCB"/>
<path d="M243.622 239.219C242.746 238.092 242.127 236.787 241.809 235.395C241.492 234.004 241.483 232.559 241.784 231.164C242.085 229.768 242.687 228.455 243.55 227.318C244.412 226.181 245.513 225.247 246.776 224.582L244.738 202.361L257.93 197.828L260.368 229.249C261.344 231.445 261.481 233.923 260.753 236.214C260.026 238.504 258.484 240.448 256.42 241.677C254.356 242.906 251.913 243.334 249.554 242.881C247.195 242.428 245.085 241.125 243.622 239.219Z" fill="#FFB8B8"/>
<path d="M257.784 111.682C257.784 111.682 266.838 92.6693 274.882 99.3572C282.927 106.045 263.853 162.261 263.853 162.261L260.952 216.834L245.663 215.304L241.341 162.136L257.784 111.682Z" fill="#E7206F"/>
<path d="M136.351 392.961L147.7 402.155L188.536 362.724L171.786 349.156L136.351 392.961Z" fill="#FFB8B8"/>
<path d="M136.455 386.909L158.806 405.014L158.807 405.014C162.584 408.075 164.992 412.511 165.5 417.348C166.009 422.184 164.577 427.025 161.52 430.806L161.145 431.269L124.551 401.626L136.455 386.909Z" fill="#2F2E41"/>
<path d="M294.077 418.482L308.679 418.481L315.625 362.122L294.075 362.123L294.077 418.482Z" fill="#FFB8B8"/>
<path d="M290.353 413.711L319.108 413.71H319.109C323.969 413.71 328.63 415.642 332.067 419.081C335.503 422.52 337.434 427.184 337.435 432.048V432.644L290.353 432.645L290.353 413.711Z" fill="#2F2E41"/>
<path d="M319.699 154.265C319.699 154.265 347.092 187.636 341.137 221.007C335.182 254.378 330.418 279.407 330.418 279.407L320.889 354.492C320.889 354.492 324.462 374.941 319.699 380.21C319.699 380.21 326.844 392.63 313.743 397.398C300.642 402.165 293.574 395.751 293.574 395.751C293.574 395.751 283.968 381.904 289.923 378.328L292.432 230.976L197.025 355.684C197.025 355.684 195.272 370.853 183.048 371.015L168.441 381.904L151.767 372.369L160.104 361.643C160.104 361.643 155.34 349.725 166.059 347.341L227.991 266.297L243.474 224.582C243.474 224.582 251.811 192.403 274.44 179.293V165.343L319.699 154.265Z" fill="#2F2E41"/>
<path d="M272.654 96.4609C276.26 92.1961 281.308 89.4077 286.836 88.6266C292.364 87.8456 297.985 89.1265 302.631 92.2254L303.62 92.8854C314.192 104.866 321.297 119.505 324.171 135.227L328.631 159.628L272.654 171.762L259.531 126.472C257.865 120.724 258.266 114.573 260.664 109.09C263.062 103.606 267.304 99.1376 272.654 96.4609V96.4609Z" fill="#E7206F"/>
<path d="M364.621 244.407C363.069 243.899 361.647 243.057 360.456 241.94C359.264 240.823 358.332 239.458 357.724 237.942C357.117 236.425 356.849 234.794 356.94 233.163C357.031 231.531 357.478 229.94 358.25 228.5L342.102 208.724L351.718 195.973L374.13 224.221C376.461 225.68 378.176 227.943 378.951 230.582C379.726 233.221 379.507 236.053 378.335 238.541C377.163 241.029 375.119 243 372.592 244.082C370.064 245.163 367.228 245.278 364.621 244.407Z" fill="#FFB8B8"/>
<path d="M296.474 114.338C296.474 114.338 292.901 90.5017 304.811 91.6936C316.721 92.8854 334.586 158.436 334.586 158.436L366.743 212.068L351.26 220.411L313.148 172.738L296.474 114.338Z" fill="#E7206F"/>
<path d="M318.284 79.4902H261.569C260.403 79.4889 259.284 79.0246 258.459 78.1991C257.634 77.3736 257.17 76.2543 257.169 75.0869V50.6239C257.169 41.93 260.62 33.5922 266.763 27.4447C272.907 21.2972 281.239 17.8435 289.927 17.8435C298.614 17.8435 306.946 21.2972 313.09 27.4447C319.233 33.5922 322.684 41.93 322.684 50.6239V75.0869C322.683 76.2543 322.219 77.3736 321.394 78.1991C320.569 79.0246 319.451 79.4889 318.284 79.4902Z" fill="#E7206F"/>
<path d="M317.731 66.4152C324.094 54.7685 319.816 40.1658 308.178 33.7991C296.539 27.4325 281.947 31.7128 275.584 43.3595C269.222 55.0062 273.499 69.609 285.138 75.9756C296.777 82.3423 311.369 78.0619 317.731 66.4152Z" fill="#FFB9B9"/>
<path d="M330.434 53.0702H300.209L299.899 48.0878L298.35 53.0702H293.696L293.082 43.1952L290.01 53.0702H281.005V52.581C281.005 38.2825 291.136 26.6502 303.589 26.6502H307.85C320.303 26.6502 330.434 38.2825 330.434 52.581L330.434 53.0702Z" fill="#E7206F"/>
<path d="M301.46 84.0567C301.09 84.0565 300.722 84.028 300.357 83.9717L264.381 78.4267V40.9299C264.381 39.0333 264.755 37.1552 265.48 35.4029C266.205 33.6507 267.268 32.0585 268.609 30.7174C269.949 29.3762 271.54 28.3124 273.291 27.5866C275.042 26.8607 276.919 26.4872 278.814 26.4872H303.983L303.003 27.4858C289.362 41.3836 299.639 63.9191 306.979 76.1152C307.518 76.9918 307.761 78.0184 307.673 79.0438C307.585 80.0692 307.171 81.0393 306.491 81.8114C305.866 82.5295 305.092 83.1025 304.223 83.4904C303.354 83.8782 302.411 84.0715 301.46 84.0567Z" fill="#E7206F"/>
</g>
<defs>
<clipPath id="clip0">
<rect width="527" height="435" fill="white"/>
</clipPath>
</defs>
</svg>
