<svg width="499" height="435" viewBox="0 0 499 435" fill="none" xmlns="http://www.w3.org/2000/svg">
<g clip-path="url(#clip0)">
<line x1="-27" y1="417.5" x2="521" y2="417.5" stroke="white"/>
<path d="M214.442 177.78C214.156 178.075 213.893 178.391 213.656 178.727L176.836 177.827L172.541 169.981L159.848 174.913L166.102 189.542C166.607 190.723 167.482 191.709 168.596 192.352C169.709 192.994 171.001 193.258 172.278 193.104L213.877 188.08C214.858 189.322 216.195 190.236 217.708 190.7C219.221 191.164 220.84 191.157 222.35 190.679C223.859 190.201 225.186 189.275 226.156 188.024C227.126 186.773 227.692 185.257 227.779 183.677C227.865 182.097 227.469 180.528 226.641 179.178C225.814 177.829 224.596 176.764 223.148 176.123C221.7 175.483 220.092 175.299 218.537 175.595C216.981 175.891 215.553 176.653 214.442 177.78H214.442Z" fill="#FFB9B9"/>
<path d="M94.4154 401.303H106.522L112.281 354.625L94.4133 354.625L94.4154 401.303Z" fill="#FFB7B7"/>
<path d="M91.3274 397.352L115.17 397.351H115.17C119.2 397.352 123.065 398.952 125.914 401.8C128.763 404.648 130.364 408.511 130.365 412.539V413.033L91.3281 413.034L91.3274 397.352Z" fill="#2F2E41"/>
<path d="M204.347 401.034L215.48 396.28L202.432 351.092L186.002 358.109L204.347 401.034Z" fill="#FFB7B7"/>
<path d="M199.954 398.613L221.88 389.25L221.88 389.25C225.586 387.668 229.769 387.622 233.509 389.122C237.248 390.622 240.238 393.546 241.822 397.25L242.016 397.704L206.118 413.034L199.954 398.613Z" fill="#2F2E41"/>
<path d="M153.261 187.892L154.137 202.073L128.547 204.811L101.771 207.675L109.651 186.142L153.261 187.892Z" fill="#FFB9B9"/>
<path d="M154.16 192.981C153.87 192.867 124.967 181.628 107.213 190.818L106.776 191.044L103.234 173.617L101.216 136.151L114.349 129.948L117.964 121.852L142.592 120.395L147.653 127.333L164.884 132.978L154.586 193.149L154.16 192.981Z" fill="#B0D6EE"/>
<path d="M155.065 159.162L158.112 135.236L165.048 133.126L165.165 133.169C165.325 133.228 169.095 134.67 170.126 139.887C171.117 144.894 178.577 176.055 178.652 176.369L178.726 176.681L161.2 183.691L155.065 159.162Z" fill="#B0D6EE"/>
<path d="M195.33 392.831L218.661 388.047L181.371 285.191L168.609 250.109C168.609 250.109 160.515 221.98 156.858 211.095L154.651 196.489L102.406 202.269C102.406 202.269 87.814 223.691 92.2469 258.606L90.2419 389.841L113.573 391.037L133.115 258.68L167.413 331.237C167.413 331.237 178.223 362.2 185.958 368.911L195.33 392.831Z" fill="#6C63FF"/>
<path d="M123.357 207.14C122.946 207.131 122.535 207.153 122.128 207.208L97.7548 179.606L100.59 171.123L88.3418 165.173L81.8626 179.703C81.3392 180.877 81.2108 182.189 81.4967 183.442C81.7826 184.695 82.4674 185.821 83.4483 186.652L115.417 213.73C115.173 215.293 115.411 216.894 116.1 218.319C116.789 219.744 117.895 220.925 119.271 221.707C120.648 222.488 122.23 222.831 123.807 222.692C125.384 222.552 126.881 221.936 128.099 220.925C129.317 219.915 130.199 218.557 130.626 217.033C131.053 215.51 131.007 213.892 130.492 212.396C129.977 210.899 129.019 209.595 127.744 208.656C126.47 207.717 124.94 207.189 123.357 207.14Z" fill="#FFB9B9"/>
<path d="M86.1353 169.262L95.6638 142.131C96.7346 138.933 98.0765 136.99 99.6523 136.356C99.9627 136.217 100.299 136.143 100.639 136.14C100.979 136.137 101.317 136.204 101.63 136.338L105.902 141.734L109.868 158.386L99.7005 182.292L86.1353 169.262Z" fill="#B0D6EE"/>
<path d="M149.205 114.781H107.375C106.514 114.78 105.689 114.438 105.081 113.83C104.473 113.222 104.13 112.397 104.129 111.537V93.5135C104.129 87.1081 106.675 80.9652 111.206 76.4359C115.737 71.9067 121.882 69.3622 128.29 69.3622C134.698 69.3622 140.843 71.9067 145.374 76.4359C149.905 80.9652 152.45 87.1081 152.45 93.5135V111.537C152.45 112.397 152.107 113.222 151.499 113.83C150.89 114.438 150.065 114.78 149.205 114.781Z" fill="#57A8DA"/>
<path d="M133.255 114.362C143.038 114.362 150.968 106.434 150.968 96.6546C150.968 86.8754 143.038 78.9478 133.255 78.9478C123.472 78.9478 115.541 86.8754 115.541 96.6546C115.541 106.434 123.472 114.362 133.255 114.362Z" fill="#FFB9B9"/>
<path d="M158.166 95.3158H132.588L132.326 91.6449L131.014 95.3158H127.076L126.556 88.0403L123.957 95.3158H116.336V94.9553C116.342 89.8902 118.357 85.0342 121.94 81.4526C125.523 77.871 130.381 75.8563 135.448 75.8506H139.054C144.121 75.8563 148.979 77.8709 152.562 81.4525C156.145 85.0341 158.161 89.8902 158.166 94.9553L158.166 95.3158Z" fill="#57A8DA"/>
<path d="M132.379 118.145C132.186 118.145 131.994 118.128 131.804 118.095L113.075 114.791V83.849H133.692L133.182 84.4439C126.08 92.7234 131.431 106.149 135.252 113.414C135.534 113.946 135.659 114.547 135.614 115.148C135.569 115.748 135.356 116.324 134.998 116.808C134.698 117.222 134.305 117.559 133.849 117.792C133.394 118.024 132.89 118.145 132.379 118.145Z" fill="#57A8DA"/>
<path d="M215.749 144.863C214.581 144.981 213.407 145.008 212.235 144.945C212.035 144.923 211.835 144.981 211.677 145.105C211.519 145.229 211.417 145.411 211.391 145.61L209.15 162.416C208.977 163.636 208.478 164.787 207.704 165.746C207.066 166.509 206.592 167.395 206.31 168.349C206.029 169.303 205.947 170.305 206.07 171.292V199.841C206.07 199.841 205.925 203.648 208.851 203.648C212.353 204.087 215.896 204.087 219.398 203.648C219.398 203.648 221.74 203.204 221.74 199.692V171.581C221.919 170.6 221.882 169.592 221.633 168.627C221.383 167.662 220.926 166.763 220.294 165.992C219.546 165.029 219.063 163.888 218.892 162.682L216.563 145.523C216.537 145.33 216.438 145.155 216.287 145.032C216.135 144.909 215.943 144.849 215.749 144.863Z" fill="white"/>
<path d="M214.115 204.458C212.345 204.459 210.577 204.349 208.82 204.129C208.428 204.139 208.038 204.067 207.675 203.918C207.311 203.769 206.983 203.547 206.71 203.266C205.519 202.03 205.585 199.912 205.589 199.823L205.588 171.321C205.464 170.273 205.555 169.211 205.855 168.199C206.155 167.188 206.659 166.248 207.334 165.437C208.051 164.547 208.513 163.48 208.673 162.349L210.914 145.546C210.958 145.223 211.125 144.93 211.382 144.728C211.638 144.526 211.963 144.432 212.288 144.466C213.426 144.526 214.567 144.499 215.701 144.384L215.714 144.383C216.031 144.36 216.344 144.458 216.591 144.658C216.837 144.857 216.998 145.143 217.041 145.458L219.37 162.617C219.53 163.739 219.98 164.801 220.675 165.696C221.345 166.514 221.83 167.468 222.098 168.491C222.365 169.514 222.407 170.583 222.223 171.624V199.692C222.223 203.559 219.515 204.116 219.488 204.121C217.706 204.346 215.911 204.458 214.115 204.458ZM212.17 145.424C212.098 145.421 212.028 145.444 211.972 145.49C211.917 145.535 211.88 145.6 211.87 145.671L209.628 162.48C209.444 163.788 208.909 165.021 208.079 166.049C207.483 166.762 207.04 167.591 206.777 168.482C206.514 169.374 206.436 170.31 206.549 171.233L206.552 171.292V199.841C206.551 199.877 206.5 201.662 207.406 202.6C207.594 202.79 207.819 202.939 208.068 203.037C208.317 203.135 208.584 203.178 208.852 203.166L208.912 203.17C212.374 203.604 215.876 203.604 219.338 203.17C219.384 203.158 221.259 202.731 221.259 199.692L221.267 171.495C221.433 170.583 221.4 169.645 221.167 168.748C220.935 167.85 220.51 167.014 219.922 166.297C219.119 165.266 218.599 164.043 218.415 162.749L216.086 145.588C216.076 145.517 216.04 145.453 215.985 145.408C215.93 145.363 215.86 145.34 215.789 145.343C214.6 145.462 213.403 145.49 212.209 145.426C212.196 145.425 212.183 145.424 212.17 145.424Z" fill="#3F3D56"/>
<path d="M212.211 171.803H215.763C217.176 171.803 218.531 172.364 219.53 173.362C220.529 174.361 221.09 175.715 221.09 177.127V190.488C221.09 191.901 220.529 193.255 219.53 194.253C218.531 195.252 217.176 195.813 215.763 195.813H212.211C210.798 195.813 209.443 195.252 208.445 194.253C207.446 193.255 206.885 191.901 206.885 190.488V177.127C206.885 175.715 207.446 174.361 208.445 173.362C209.443 172.364 210.798 171.803 212.211 171.803Z" fill="#57A8DA"/>
<path d="M82.766 151.432C81.5985 151.549 80.4237 151.577 79.252 151.513C79.0522 151.492 78.8519 151.549 78.6942 151.673C78.5364 151.798 78.4338 151.979 78.4085 152.178L76.167 168.985C75.9946 170.205 75.4949 171.356 74.7209 172.315C74.0829 173.078 73.6086 173.964 73.3275 174.918C73.0464 175.872 72.9645 176.873 73.0869 177.861V206.41C73.0869 206.41 72.9423 210.216 75.8682 210.216C79.37 210.656 82.9131 210.656 86.4149 210.216C86.4149 210.216 88.7575 209.773 88.7575 206.26V178.15C88.9362 177.169 88.8995 176.161 88.6498 175.196C88.4001 174.231 87.9434 173.331 87.3115 172.56C86.5634 171.598 86.0799 170.457 85.9088 169.25L83.5806 152.092C83.5541 151.899 83.4552 151.723 83.3039 151.601C83.1526 151.478 82.9602 151.418 82.766 151.432Z" fill="white"/>
<path d="M80.1392 211.027C78.3694 211.027 76.6012 210.917 74.8451 210.698C74.4527 210.707 74.0626 210.635 73.6993 210.486C73.3361 210.338 73.0075 210.116 72.7342 209.834C71.5435 208.598 71.6097 206.481 71.6132 206.391L71.6128 177.89C71.4886 176.842 71.5793 175.78 71.8796 174.768C72.1798 173.756 72.6832 172.816 73.359 172.006C74.0754 171.116 74.538 170.049 74.6976 168.918L76.9386 152.115C76.9823 151.791 77.1501 151.498 77.4065 151.296C77.6629 151.095 77.9878 151.001 78.3123 151.034C79.4505 151.094 80.5917 151.067 81.7257 150.952L81.7391 150.951C82.0556 150.928 82.3689 151.026 82.6154 151.226C82.8619 151.426 83.023 151.712 83.0661 152.026L85.3944 169.185C85.5545 170.308 86.0044 171.369 86.7 172.264C87.3699 173.083 87.855 174.036 88.1221 175.059C88.3892 176.082 88.432 177.151 88.2475 178.192V206.26C88.2475 210.127 85.5399 210.684 85.5125 210.69C83.7302 210.914 81.9356 211.027 80.1392 211.027ZM78.1944 151.992C78.1227 151.989 78.0523 152.012 77.9969 152.058C77.9415 152.103 77.905 152.168 77.8946 152.239L75.6527 169.049C75.4684 170.356 74.9332 171.589 74.104 172.617C73.508 173.331 73.0647 174.159 72.8014 175.051C72.5381 175.942 72.4605 176.878 72.5732 177.801L72.5769 177.86V206.409C72.5759 206.445 72.5247 208.23 73.4309 209.168C73.6184 209.359 73.844 209.508 74.0931 209.605C74.3421 209.703 74.609 209.747 74.8762 209.734L74.9363 209.738C78.3982 210.172 81.9008 210.172 85.3627 209.738C85.4085 209.727 87.2835 209.299 87.2835 206.26L87.2913 178.063C87.4581 177.151 87.4243 176.214 87.1921 175.316C86.9598 174.419 86.5348 173.582 85.9465 172.865C85.1435 171.834 84.624 170.611 84.4396 169.318L82.1109 152.156C82.1007 152.086 82.0646 152.022 82.0096 151.977C81.9547 151.931 81.8848 151.908 81.8138 151.912C80.6244 152.031 79.4277 152.058 78.2341 151.995C78.2209 151.993 78.2077 151.992 78.1944 151.992H78.1944Z" fill="#3F3D56"/>
<path d="M78.2358 178.371H81.7883C83.201 178.371 84.5557 178.932 85.5546 179.931C86.5535 180.929 87.1147 182.283 87.1147 183.696V197.057C87.1147 198.469 86.5535 199.823 85.5546 200.822C84.5557 201.82 83.201 202.381 81.7883 202.381H78.2358C76.8232 202.381 75.4684 201.82 74.4695 200.822C73.4706 199.823 72.9094 198.469 72.9094 197.057V183.696C72.9094 182.996 73.0472 182.304 73.3149 181.658C73.5825 181.012 73.9749 180.425 74.4695 179.931C74.9641 179.436 75.5513 179.044 76.1975 178.777C76.8437 178.509 77.5363 178.371 78.2358 178.371Z" fill="#57A8DA"/>
<path d="M13.9163 423.777H25.4984L31.0085 379.12L13.9143 379.121L13.9163 423.777Z" fill="#FFB9B9"/>
<path d="M10.9622 419.997L33.7714 419.996H33.7723C37.6273 419.996 41.3244 421.527 44.0504 424.252C46.7763 426.977 48.3078 430.673 48.3081 434.526V434.999L10.9628 435L10.9622 419.997Z" fill="#6C63FF"/>
<path d="M5.64291 264.275C5.64291 264.275 0.623333 269.947 8.93497 292.056L7.47095 413.288L34.4064 412.763L40.3271 353.627L51.1069 267.331L5.64291 264.275Z" fill="#2F2E41"/>
<path d="M60.345 281.036L60.0501 280.991C25.5922 275.738 -0.410295 270.701 -0.668928 270.651L-0.991943 270.589L8.04092 248.627C7.96957 246.332 6.01427 181.889 9.75734 163.374C13.3809 145.45 30.461 142.513 32.4073 142.237L34.3617 135.764L59.0524 148.607L63.3586 163.422L64.2333 204.026L60.345 281.036Z" fill="#E7206F"/>
<path d="M76.2079 197.463C75.0961 197.463 73.9962 197.693 72.9775 198.138C71.9587 198.584 71.0432 199.235 70.2886 200.051H28.7876L13.5859 203.286L16.0818 222.529L70.1582 210.903C71.0536 211.914 72.1879 212.685 73.4577 213.144C74.7274 213.604 76.0922 213.739 77.4274 213.536C78.7625 213.333 80.0255 212.798 81.1011 211.982C82.1767 211.166 83.0305 210.093 83.5846 208.862C84.1388 207.631 84.3756 206.28 84.2735 204.934C84.1713 203.588 83.7335 202.289 82.9999 201.155C82.2664 200.022 81.2605 199.09 80.074 198.445C78.8876 197.8 77.5584 197.463 76.2079 197.463H76.2079Z" fill="#FFB9B9"/>
<path d="M76.568 128.489C81.8665 118.8 78.3043 106.652 68.6115 101.356C58.9188 96.0594 46.7661 99.6202 41.4676 109.309C36.1691 118.998 39.7313 131.146 49.424 136.443C59.1167 141.739 71.2695 138.178 76.568 128.489Z" fill="#FFB9B9"/>
<path d="M40.2061 102.915L39.2365 100.964L44.1155 98.5413C44.1155 98.5413 49.4979 89.787 59.2375 92.2471C68.977 94.7073 73.359 96.1796 73.359 96.1796L78.2257 98.6275L75.7831 101.057L80.165 102.529L77.2376 103.983L80.6437 105.94L78.8102 115.972C78.8102 115.972 75.7647 108.363 69.9099 111.271C64.0551 114.179 53.3458 109.768 53.3458 109.768L44.0417 127.767C44.0417 127.767 42.1223 121.458 38.7001 123.14C38.7 123.14 29.9571 109.222 40.2061 102.915Z" fill="#57A8DA"/>
<path d="M16.3474 226.136L11.6014 212.024L10.4534 164.983L12.4755 158.308C13.2034 155.906 14.4089 153.676 16.0199 151.75C17.6308 149.825 19.614 148.244 21.8506 147.104C24.0873 145.963 26.5312 145.285 29.0361 145.111C31.5411 144.937 34.0553 145.271 36.4282 146.091C38.8012 146.912 40.984 148.203 42.8458 149.887C44.7076 151.571 46.2101 153.614 47.2633 155.892C48.3164 158.171 48.8986 160.639 48.9749 163.147C49.0511 165.656 48.6199 168.155 47.7071 170.493L36.8684 198.257L37.4194 199.326L60.9014 199.135L69.2425 214.144L16.3474 226.136Z" fill="#E7206F"/>
<path d="M247.726 235.779C248.602 235.189 249.338 234.414 249.883 233.509C250.427 232.604 250.766 231.59 250.876 230.54C250.986 229.49 250.865 228.428 250.52 227.429C250.175 226.431 249.615 225.521 248.88 224.762L260.455 201.843L247.197 203.38L238.238 224.909C237.045 226.227 236.377 227.938 236.361 229.716C236.345 231.494 236.982 233.216 238.152 234.556C239.321 235.896 240.942 236.761 242.706 236.986C244.471 237.212 246.257 236.782 247.726 235.779Z" fill="#FFB9B9"/>
<path d="M340.553 398.122L330.122 398.122L325.159 357.901L340.555 357.903L340.553 398.122Z" fill="#FFB9B9"/>
<path d="M343.213 408.23L309.578 408.229V407.803C309.579 404.333 310.958 401.004 313.413 398.55C315.868 396.096 319.198 394.717 322.67 394.717H322.671L343.214 394.718L343.213 408.23Z" fill="#2F2E41"/>
<path d="M283.545 398.122L273.114 398.122L268.151 357.901L283.548 357.903L283.545 398.122Z" fill="#FFB7B7"/>
<path d="M283.653 408.23L250.018 408.229V407.803C250.018 404.333 251.398 401.004 253.853 398.55C256.308 396.096 259.638 394.717 263.11 394.717H263.111L283.654 394.718L283.653 408.23Z" fill="#2F2E41"/>
<path d="M282.691 228.252L272.481 251.765L264.058 386.915L285.33 386.065L291.139 321.638L309.061 264.256L319.364 328.228L323.619 384.363L341.22 385.125L348.233 228.252H282.691Z" fill="#E7206F"/>
<path d="M333.729 112.226L304.136 112.966L286.762 121.882L285.809 187.66L274.973 233.074C274.973 233.074 342.676 237.732 352.036 230.928L340.975 179.045L355.81 122.975L333.729 112.226Z" fill="#F2F2F2"/>
<path d="M291.332 122.972L288.577 121.112C288.577 121.112 277.164 124.531 273.791 139.744C273.791 139.744 271.21 147.376 270.077 152.624C268.778 158.642 240.091 213.927 240.091 213.927L257.266 218.852L288.755 167.949L291.332 122.972Z" fill="#F2F2F2"/>
<path d="M351.357 123.76L354.518 122.732C354.518 122.732 364.546 129.165 363.592 144.717C363.592 144.717 363.967 152.765 363.609 158.121C363.197 164.265 368.714 225.314 368.714 225.314H350.846L343.188 170.029L351.357 123.76Z" fill="#F2F2F2"/>
<path d="M340.994 84.629C340.994 88.6847 339.79 92.6494 337.536 96.0217C335.282 99.394 332.078 102.022 328.33 103.574C324.581 105.126 320.457 105.533 316.477 104.741C312.498 103.95 308.843 101.997 305.974 99.1292C303.105 96.2613 301.151 92.6074 300.359 88.6296C299.568 84.6517 299.974 80.5286 301.527 76.7815C303.079 73.0345 305.709 69.8318 309.082 67.5786C312.456 65.3253 316.422 64.1226 320.479 64.1226C325.906 64.1091 331.117 66.2512 334.964 70.0777C338.811 73.9042 340.98 79.1017 340.994 84.5268C340.994 84.5609 340.994 84.5949 340.994 84.629Z" fill="#FFB7B7"/>
<path d="M300.033 57.0853C302.436 51.9197 307.087 52.941 311.154 54.692C316.305 53.55 321.203 50.1309 326.752 52.1529C332.219 60.1004 350.572 57.7621 346.667 70.7006C346.662 73.801 352.503 71.9964 351.484 77.0741C354.578 86.846 340.314 105.352 332.126 101.455C334.151 97.7453 338.777 89.3186 331.761 88.4828C316.667 102.521 330.204 61.7502 311.239 73.6071C304.96 79.3515 296.363 62.8311 300.033 57.0853Z" fill="#E7206F"/>
<path d="M243.346 170.795C242.179 170.913 241.004 170.94 239.832 170.877C239.633 170.855 239.432 170.913 239.275 171.037C239.117 171.162 239.014 171.343 238.989 171.542L236.747 188.349C236.575 189.569 236.075 190.719 235.301 191.678C234.663 192.441 234.189 193.327 233.908 194.282C233.627 195.236 233.545 196.237 233.667 197.224V225.773C233.667 225.773 233.523 229.58 236.448 229.58C239.95 230.02 243.493 230.02 246.995 229.58C246.995 229.58 249.338 229.137 249.338 225.624V197.513C249.517 196.533 249.48 195.525 249.23 194.56C248.98 193.594 248.524 192.695 247.892 191.924C247.144 190.962 246.66 189.82 246.489 188.614L244.161 171.455C244.134 171.262 244.036 171.087 243.884 170.964C243.733 170.842 243.541 170.781 243.346 170.795Z" fill="white"/>
<path d="M241.711 230.391C239.942 230.391 238.174 230.281 236.417 230.062C236.025 230.071 235.635 229.999 235.272 229.85C234.908 229.702 234.58 229.479 234.306 229.198C233.116 227.962 233.182 225.844 233.185 225.755L233.185 197.254C233.061 196.206 233.152 195.143 233.452 194.132C233.752 193.12 234.255 192.18 234.931 191.369C235.648 190.479 236.11 189.413 236.27 188.281L238.511 171.478C238.555 171.155 238.722 170.862 238.979 170.66C239.235 170.459 239.56 170.365 239.885 170.398C241.023 170.458 242.164 170.431 243.298 170.316L243.311 170.315C243.628 170.292 243.941 170.39 244.188 170.59C244.434 170.79 244.595 171.076 244.638 171.39L246.967 188.549C247.127 189.672 247.577 190.733 248.272 191.628C248.942 192.447 249.427 193.4 249.694 194.423C249.962 195.446 250.004 196.515 249.82 197.556V225.624C249.82 229.491 247.112 230.048 247.085 230.053C245.302 230.278 243.508 230.39 241.711 230.391ZM239.767 171.356C239.695 171.353 239.625 171.376 239.569 171.422C239.514 171.467 239.477 171.532 239.467 171.603L237.225 188.412C237.041 189.72 236.505 190.953 235.676 191.981C235.08 192.695 234.637 193.523 234.374 194.414C234.11 195.306 234.033 196.242 234.145 197.165L234.149 197.224V225.773C234.148 225.809 234.097 227.594 235.003 228.532C235.191 228.722 235.416 228.872 235.665 228.969C235.914 229.067 236.181 229.111 236.448 229.098L236.509 229.102C239.97 229.536 243.473 229.536 246.935 229.102C246.981 229.091 248.856 228.663 248.856 225.624L248.863 197.427C249.03 196.515 248.997 195.578 248.764 194.68C248.532 193.782 248.107 192.946 247.519 192.229C246.716 191.198 246.196 189.975 246.012 188.681L243.683 171.52C243.673 171.45 243.637 171.386 243.582 171.34C243.527 171.295 243.457 171.272 243.386 171.276C242.197 171.395 241 171.422 239.806 171.358C239.793 171.357 239.78 171.356 239.767 171.356Z" fill="#3F3D56"/>
<path d="M239.808 197.735H243.361C244.773 197.735 246.128 198.296 247.127 199.295C248.126 200.293 248.687 201.647 248.687 203.059V216.421C248.687 217.833 248.126 219.187 247.127 220.186C246.128 221.184 244.773 221.745 243.361 221.745H239.808C238.396 221.745 237.041 221.184 236.042 220.186C235.043 219.187 234.482 217.833 234.482 216.421V203.059C234.482 201.647 235.043 200.293 236.042 199.295C237.041 198.296 238.396 197.735 239.808 197.735Z" fill="#57A8DA"/>
<path d="M354.131 227.225C353.451 226.417 352.957 225.469 352.684 224.449C352.41 223.428 352.364 222.361 352.548 221.321C352.732 220.281 353.141 219.294 353.748 218.429C354.355 217.564 355.144 216.843 356.06 216.317L351.257 191.096L363.576 196.228L366.249 219.391C367.032 220.988 367.202 222.816 366.727 224.53C366.252 226.243 365.164 227.723 363.671 228.689C362.177 229.654 360.381 230.039 358.623 229.769C356.864 229.499 355.266 228.594 354.131 227.225Z" fill="#FFB7B7"/>
<path d="M357.722 229.27C358.699 229.467 359.707 229.446 360.676 229.211C361.644 228.976 362.549 228.531 363.327 227.908C364.105 227.286 364.737 226.5 365.178 225.607C365.619 224.713 365.859 223.734 365.881 222.738L417.391 174.275L405.801 165.033L358.726 215.7C357.049 215.774 355.458 216.46 354.255 217.629C353.051 218.797 352.317 220.366 352.194 222.039C352.07 223.712 352.564 225.372 353.583 226.705C354.602 228.037 356.075 228.95 357.722 229.27Z" fill="#FFB9B9"/>
<path d="M410.091 182.109L400.07 170.369C399.785 170.035 399.575 169.643 399.455 169.221C399.335 168.799 399.308 168.355 399.374 167.921C399.441 167.487 399.601 167.073 399.842 166.706C400.084 166.339 400.401 166.029 400.774 165.796L413.82 157.632C415.538 156.183 417.76 155.474 420 155.661C422.24 155.848 424.314 156.915 425.768 158.628C427.222 160.342 427.937 162.562 427.756 164.801C427.575 167.041 426.513 169.117 424.803 170.575L414.72 182.134C414.431 182.465 414.075 182.73 413.674 182.91C413.274 183.091 412.839 183.183 412.4 183.181C411.961 183.178 411.527 183.081 411.129 182.896C410.73 182.711 410.377 182.443 410.091 182.109V182.109Z" fill="#B0D6EE"/>
<path d="M383.144 421.25L370.55 421.249L364.558 372.691L383.146 372.692L383.144 421.25Z" fill="#FFB9B9"/>
<path d="M386.355 433.453L345.747 433.452V432.938C345.748 428.748 347.413 424.729 350.377 421.766C353.341 418.803 357.361 417.139 361.553 417.139H361.554L386.356 417.14L386.355 433.453Z" fill="#2F2E41"/>
<path d="M483.815 421.25L471.221 421.249L465.23 372.691L483.817 372.692L483.815 421.25Z" fill="#FFB9B9"/>
<path d="M487.027 433.453L446.418 433.452V432.938C446.419 428.748 448.084 424.729 451.048 421.766C454.012 418.803 458.032 417.139 462.224 417.139H462.225L487.028 417.14L487.027 433.453Z" fill="#2F2E41"/>
<path d="M449.939 207.849L462.634 160.964L446.165 151.711H423.177L414.236 161.273C414.236 161.273 399.298 171.662 402.914 183.173L408.747 209.391L399.826 251.032L354.88 313.338L344.24 374.54L386.122 385.516L431.411 296.374L453.37 395.078L494.22 393.024L480.144 273.345C480.144 273.345 476.131 236.887 455.098 214.123L449.939 207.849Z" fill="#57A8DA"/>
<path d="M476.156 249.331C476.864 248.63 477.409 247.782 477.754 246.848C478.099 245.913 478.234 244.914 478.151 243.921C478.068 242.928 477.768 241.966 477.272 241.101C476.777 240.237 476.097 239.492 475.282 238.918L465.433 172.493L451.295 176.956L465.447 240.93C464.574 242.362 464.257 244.065 464.556 245.716C464.854 247.366 465.749 248.85 467.069 249.885C468.389 250.921 470.043 251.437 471.718 251.334C473.392 251.232 474.972 250.52 476.156 249.331Z" fill="#FFB9B9"/>
<path d="M467.867 182.918L452.53 184.686C452.094 184.736 451.652 184.692 451.234 184.556C450.817 184.42 450.433 184.196 450.11 183.898C449.787 183.601 449.532 183.237 449.362 182.833C449.192 182.428 449.111 181.991 449.125 181.552L449.622 166.174C449.377 163.941 450.028 161.702 451.433 159.948C452.837 158.194 454.88 157.069 457.113 156.818C459.346 156.567 461.588 157.212 463.347 158.61C465.105 160.009 466.237 162.048 466.494 164.28L470.47 179.092C470.583 179.516 470.604 179.96 470.531 180.393C470.458 180.826 470.292 181.238 470.045 181.601C469.798 181.964 469.476 182.27 469.1 182.497C468.724 182.724 468.304 182.868 467.867 182.918V182.918Z" fill="#B0D6EE"/>
<path d="M408.964 138.378V118.623C408.964 111.603 411.754 104.87 416.72 99.9057C421.686 94.9415 428.422 92.1526 435.445 92.1526C442.468 92.1526 449.204 94.9415 454.17 99.9057C459.136 104.87 461.926 111.603 461.926 118.623V138.378C461.925 139.32 461.55 140.224 460.883 140.891C460.216 141.557 459.312 141.932 458.369 141.933H412.521C411.578 141.932 410.674 141.557 410.007 140.891C409.34 140.224 408.965 139.32 408.964 138.378Z" fill="#E7206F"/>
<path d="M439.316 139.095C448.725 133.954 452.182 122.162 447.039 112.757C441.896 103.352 430.099 99.8957 420.691 105.037C411.282 110.178 407.825 121.97 412.968 131.375C418.111 140.78 429.907 144.236 439.316 139.095Z" fill="#FFB9B9"/>
<path d="M402.699 120.204C402.706 114.652 404.915 109.33 408.842 105.404C412.769 101.479 418.093 99.2704 423.647 99.2642H427.6C433.153 99.2704 438.478 101.479 442.405 105.404C446.332 109.33 448.541 114.652 448.547 120.204V120.599H440.194L437.345 112.625L436.776 120.599H432.459L431.022 116.575L430.734 120.599H402.699V120.204Z" fill="#E7206F"/>
<path d="M428.093 144.155C427.7 143.624 427.466 142.993 427.417 142.335C427.368 141.677 427.505 141.019 427.814 140.435C432.002 132.472 437.867 117.757 430.083 108.683L429.523 108.031H452.121V141.945L431.593 145.565C431.385 145.602 431.174 145.621 430.963 145.621C430.403 145.621 429.85 145.488 429.351 145.233C428.852 144.978 428.421 144.609 428.093 144.155Z" fill="#E7206F"/>
<path d="M362.684 176.955C361.517 177.073 360.342 177.1 359.17 177.037C358.97 177.015 358.77 177.073 358.612 177.197C358.455 177.321 358.352 177.503 358.327 177.702L356.085 194.508C355.913 195.728 355.413 196.879 354.639 197.838C354.001 198.601 353.527 199.487 353.246 200.441C352.965 201.395 352.883 202.397 353.005 203.384V231.933C353.005 231.933 352.86 235.74 355.786 235.74C359.288 236.179 362.831 236.179 366.333 235.74C366.333 235.74 368.676 235.296 368.676 231.784V203.673C368.854 202.692 368.818 201.684 368.568 200.719C368.318 199.754 367.862 198.855 367.23 198.084C366.482 197.121 365.998 195.98 365.827 194.773L363.499 177.615C363.472 177.422 363.373 177.247 363.222 177.124C363.071 177.001 362.878 176.941 362.684 176.955Z" fill="white"/>
<path d="M361.05 236.55C359.28 236.55 357.512 236.44 355.755 236.221C355.363 236.23 354.973 236.158 354.61 236.01C354.246 235.861 353.918 235.639 353.645 235.357C352.454 234.121 352.52 232.004 352.524 231.915L352.523 203.413C352.399 202.365 352.49 201.303 352.79 200.291C353.09 199.28 353.594 198.34 354.269 197.529C354.986 196.639 355.448 195.572 355.608 194.441L357.849 177.638C357.893 177.315 358.06 177.021 358.317 176.82C358.573 176.618 358.898 176.524 359.223 176.558C360.361 176.618 361.502 176.59 362.636 176.476L362.649 176.474C362.966 176.451 363.279 176.55 363.526 176.75C363.772 176.949 363.933 177.235 363.976 177.55L366.305 194.709C366.465 195.831 366.915 196.892 367.61 197.788C368.28 198.606 368.765 199.56 369.032 200.583C369.3 201.606 369.342 202.675 369.158 203.716V231.783C369.158 235.65 366.45 236.208 366.423 236.213C364.641 236.437 362.846 236.55 361.05 236.55ZM359.105 177.516C359.033 177.513 358.963 177.536 358.907 177.581C358.852 177.627 358.815 177.692 358.805 177.763L356.563 194.572C356.379 195.88 355.844 197.113 355.014 198.14C354.418 198.854 353.975 199.682 353.712 200.574C353.449 201.466 353.371 202.402 353.484 203.325L353.487 203.384V231.933C353.486 231.968 353.435 233.754 354.341 234.691C354.529 234.882 354.754 235.031 355.003 235.129C355.252 235.226 355.519 235.27 355.787 235.258L355.847 235.261C359.309 235.696 362.811 235.696 366.273 235.261C366.319 235.25 368.194 234.823 368.194 231.783L368.202 203.587C368.368 202.675 368.335 201.737 368.102 200.84C367.87 199.942 367.445 199.106 366.857 198.389C366.054 197.358 365.534 196.135 365.35 194.841L363.021 177.68C363.011 177.609 362.975 177.545 362.92 177.5C362.865 177.455 362.795 177.432 362.724 177.435C361.535 177.554 360.338 177.582 359.144 177.518C359.131 177.517 359.118 177.516 359.105 177.516Z" fill="#3F3D56"/>
<path d="M359.146 203.895H362.699C364.111 203.895 365.466 204.456 366.465 205.454C367.464 206.453 368.025 207.807 368.025 209.219V222.58C368.025 223.993 367.464 225.347 366.465 226.345C365.466 227.344 364.111 227.905 362.699 227.905H359.146C357.734 227.905 356.379 227.344 355.38 226.345C354.381 225.347 353.82 223.993 353.82 222.58V209.219C353.82 207.807 354.381 206.453 355.38 205.454C356.379 204.456 357.734 203.895 359.146 203.895Z" fill="#57A8DA"/>
<path d="M38.2691 48.3394C47.6731 48.3394 55.2965 40.7189 55.2965 31.3185C55.2965 21.9181 47.6731 14.2976 38.2691 14.2976C28.8651 14.2976 21.2417 21.9181 21.2417 31.3185C21.2417 40.7189 28.8651 48.3394 38.2691 48.3394Z" fill="#F0F0F0"/>
<path d="M430.58 34.0418C439.984 34.0418 447.608 26.4213 447.608 17.0209C447.608 7.62051 439.984 0 430.58 0C421.176 0 413.553 7.62051 413.553 17.0209C413.553 26.4213 421.176 34.0418 430.58 34.0418Z" fill="#F0F0F0"/>
<path d="M235.787 76.9344C242.558 76.9344 248.047 71.4476 248.047 64.6794C248.047 57.9111 242.558 52.4243 235.787 52.4243C229.016 52.4243 223.527 57.9111 223.527 64.6794C223.527 71.4476 229.016 76.9344 235.787 76.9344Z" fill="#F0F0F0"/>
</g>
<defs>
<clipPath id="clip0">
<rect width="499" height="435" fill="white"/>
</clipPath>
</defs>
</svg>
