<svg width="175" height="130" viewBox="0 0 175 130" fill="none" xmlns="http://www.w3.org/2000/svg">
<g clip-path="url(#clip0)">
<path d="M32.8052 47.7773C32.8052 47.7773 27.0541 53.1992 20.8816 53.3608C18.2896 53.4124 15.7843 54.3025 13.7419 55.8975C12.7765 56.6599 11.8831 57.5091 11.0728 58.4343" stroke="#535461" stroke-width="2" stroke-miterlimit="10"/>
<path d="M7.18023 58.5673C8.00929 58.1464 11.1739 58.4259 11.1739 58.4259C11.1739 58.4259 9.5326 61.1444 8.70354 61.5652C8.50499 61.6828 8.28437 61.7584 8.05537 61.7873C7.82637 61.8161 7.59387 61.7977 7.37228 61.7331C7.1507 61.6686 6.94476 61.5592 6.76724 61.4118C6.58972 61.2644 6.44441 61.0822 6.3403 60.8764C6.2362 60.6706 6.17553 60.4457 6.16205 60.2155C6.14858 59.9853 6.18259 59.7548 6.26198 59.5383C6.34136 59.3218 6.46443 59.1239 6.62354 58.9568C6.78266 58.7898 6.97444 58.6572 7.18697 58.5673H7.18023Z" fill="#57A8DA"/>
<path d="M10.5114 53.7614C11.4365 53.8591 13.9405 55.8117 13.9405 55.8117C13.9405 55.8117 11.0759 57.2021 10.1592 57.1062C9.7303 57.0414 9.34293 56.814 9.07767 56.4712C8.81242 56.1284 8.68971 55.6966 8.73508 55.2656C8.78045 54.8347 8.99041 54.4379 9.32127 54.1577C9.65212 53.8775 10.0784 53.7356 10.5114 53.7614Z" fill="#57A8DA"/>
<path d="M18.411 49.8881C19.1592 50.4386 20.3354 53.3877 20.3354 53.3877C20.3354 53.3877 17.1658 53.147 16.4176 52.5983C16.0804 52.3261 15.8611 51.9346 15.8055 51.5051C15.7498 51.0756 15.862 50.6412 16.1187 50.2922C16.3754 49.9432 16.7569 49.7065 17.1838 49.6312C17.6107 49.556 18.0503 49.648 18.411 49.8881Z" fill="#57A8DA"/>
<path d="M25.0487 48.3042C25.8795 48.7199 27.5376 51.4284 27.5376 51.4284C27.5376 51.4284 24.373 51.7263 23.5422 51.3105C23.3326 51.2191 23.1439 51.086 22.9874 50.9194C22.831 50.7527 22.7101 50.556 22.6322 50.3411C22.5543 50.1263 22.521 49.8979 22.5344 49.6698C22.5477 49.4417 22.6074 49.2187 22.7097 49.0144C22.8121 48.8101 22.9551 48.6288 23.1299 48.4814C23.3047 48.3341 23.5076 48.2238 23.7265 48.1574C23.9453 48.0909 24.1754 48.0697 24.4027 48.0949C24.63 48.1201 24.8498 48.1913 25.0487 48.3042Z" fill="#57A8DA"/>
<path d="M15.7017 58.877C15.978 57.9899 15.1692 54.9195 15.1692 54.9195C15.1692 54.9195 12.7629 56.9934 12.4865 57.8805C12.4087 58.0946 12.3751 58.3222 12.3879 58.5497C12.4007 58.7771 12.4596 58.9996 12.561 59.2037C12.6623 59.4077 12.8041 59.5891 12.9777 59.7368C13.1514 59.8845 13.3532 59.9955 13.571 60.063C13.7888 60.1305 14.018 60.1531 14.2449 60.1295C14.4717 60.1059 14.6913 60.0366 14.8905 59.9257C15.0898 59.8148 15.2644 59.6647 15.4038 59.4845C15.5432 59.3042 15.6446 59.0975 15.7017 58.877Z" fill="#57A8DA"/>
<path d="M23.4413 56.9193C23.4413 55.9901 21.7477 53.3035 21.7477 53.3035C21.7477 53.3035 20.0728 55.9968 20.0745 56.9294C20.0758 57.3758 20.2546 57.8034 20.5716 58.1182C20.8885 58.4329 21.3177 58.609 21.7646 58.6076C22.2115 58.6063 22.6396 58.4276 22.9546 58.111C23.2697 57.7944 23.446 57.3657 23.4446 56.9193H23.4413Z" fill="#57A8DA"/>
<path d="M30.7021 53.9971C30.8571 53.0814 29.6438 50.1473 29.6438 50.1473C29.6438 50.1473 27.5358 52.5242 27.3825 53.4399C27.3307 53.8695 27.4465 54.3025 27.7059 54.6491C27.9653 54.9957 28.3483 55.2291 28.7754 55.301C29.2026 55.3729 29.641 55.2778 29.9998 55.0353C30.3585 54.7928 30.61 54.4216 30.7021 53.9988V53.9971Z" fill="#57A8DA"/>
<path d="M40.2784 33.4187C40.2784 33.4187 33.3511 29.6178 31.2919 23.7952C30.4459 21.3468 28.8275 19.2387 26.6798 17.7875C25.6549 17.1062 24.5697 16.5202 23.4377 16.0369" stroke="#535461" stroke-width="2" stroke-miterlimit="10"/>
<path d="M22.1234 12.3757C22.7789 13.0339 23.4849 16.1295 23.4849 16.1295C23.4849 16.1295 20.3911 15.4056 19.7356 14.7458C19.4461 14.4247 19.2914 14.0046 19.3034 13.5727C19.3154 13.1407 19.4932 12.7299 19.8001 12.4253C20.1069 12.1207 20.5193 11.9457 20.9518 11.9365C21.3843 11.9272 21.8038 12.0845 22.1234 12.3757Z" fill="#57A8DA"/>
<path d="M27.7265 14.064C27.9186 14.973 26.8283 17.9541 26.8283 17.9541C26.8283 17.9541 24.6259 15.6665 24.4338 14.7558C24.3768 14.5356 24.365 14.3061 24.3993 14.0812C24.4335 13.8563 24.5131 13.6407 24.6331 13.4474C24.7531 13.254 24.911 13.087 25.0975 12.9563C25.2839 12.8257 25.4949 12.7342 25.7177 12.6872C25.9406 12.6403 26.1706 12.639 26.3939 12.6834C26.6173 12.7278 26.8293 12.8169 27.0172 12.9454C27.2051 13.074 27.365 13.2392 27.4872 13.4312C27.6094 13.6231 27.6913 13.8378 27.7281 14.0623L27.7265 14.064Z" fill="#57A8DA"/>
<path d="M33.8431 20.3916C33.5499 21.2719 31.1015 23.2969 31.1015 23.2969C31.1015 23.2969 30.3567 20.2114 30.6499 19.3294C30.7909 18.9053 31.0948 18.5545 31.4947 18.3542C31.8946 18.1539 32.3578 18.1205 32.7824 18.2613C33.2069 18.4022 33.5581 18.7057 33.7586 19.1052C33.9591 19.5047 33.9926 19.9674 33.8516 20.3916H33.8431Z" fill="#57A8DA"/>
<path d="M37.3953 26.2074C37.2554 27.1248 35.1845 29.5336 35.1845 29.5336C35.1845 29.5336 33.9274 26.6181 34.0673 25.7007C34.0906 25.474 34.1597 25.2544 34.2705 25.0551C34.3813 24.8559 34.5315 24.6812 34.7119 24.5417C34.8923 24.4022 35.0992 24.3007 35.32 24.2434C35.5408 24.1861 35.771 24.1742 35.9966 24.2085C36.2222 24.2427 36.4384 24.3223 36.6323 24.4425C36.8261 24.5627 36.9935 24.721 37.1243 24.9078C37.2551 25.0945 37.3465 25.3058 37.3931 25.529C37.4397 25.7521 37.4404 25.9823 37.3953 26.2057V26.2074Z" fill="#57A8DA"/>
<path d="M24.4473 20.5717C25.3774 20.5616 28.0533 18.848 28.0533 18.848C28.0533 18.848 25.3387 17.1983 24.4085 17.2084C23.9616 17.2136 23.535 17.3958 23.2226 17.7151C22.9103 18.0345 22.7376 18.4646 22.7428 18.9111C22.7479 19.3575 22.9304 19.7836 23.25 20.0957C23.5697 20.4077 24.0003 20.5802 24.4473 20.575V20.5717Z" fill="#57A8DA"/>
<path d="M28.6868 27.3285C29.5698 27.0406 31.6104 24.6066 31.6104 24.6066C31.6104 24.6066 28.5251 23.844 27.6421 24.1319C27.4242 24.194 27.2211 24.2994 27.0449 24.4417C26.8687 24.5841 26.7231 24.7604 26.6167 24.9603C26.5103 25.1602 26.4454 25.3794 26.4258 25.6049C26.4061 25.8304 26.4323 26.0576 26.5026 26.2728C26.5729 26.4879 26.6859 26.6868 26.8349 26.8573C26.9838 27.0279 27.1657 27.1666 27.3696 27.2654C27.5736 27.3641 27.7953 27.4207 28.0216 27.4318C28.2479 27.443 28.4742 27.4084 28.6868 27.3302V27.3285Z" fill="#57A8DA"/>
<path d="M33.7083 33.3311C34.6283 33.1965 37.0515 31.1428 37.0515 31.1428C37.0515 31.1428 34.1397 29.8703 33.2213 30.0049C32.9951 30.0282 32.776 30.097 32.5771 30.2071C32.3783 30.3172 32.2038 30.4664 32.0641 30.6457C31.9245 30.8249 31.8226 31.0306 31.7647 31.2502C31.7067 31.4698 31.6938 31.6989 31.7268 31.9237C31.7598 32.1484 31.838 32.3641 31.9567 32.5579C32.0754 32.7516 32.2321 32.9194 32.4173 33.051C32.6026 33.1827 32.8127 33.2755 33.0348 33.324C33.257 33.3724 33.4866 33.3754 33.71 33.3328L33.7083 33.3311Z" fill="#57A8DA"/>
<path d="M87.9511 125.644C121.64 125.644 148.951 98.3618 148.951 64.708C148.951 31.0541 121.64 3.77231 87.9511 3.77231C54.2618 3.77231 26.9512 31.0541 26.9512 64.708C26.9512 98.3618 54.2618 125.644 87.9511 125.644Z" fill="url(#paint0_linear)"/>
<path d="M87.951 124.634C121.082 124.634 147.94 97.804 147.94 64.708C147.94 31.6119 121.082 4.78229 87.951 4.78229C54.8201 4.78229 27.9622 31.6119 27.9622 64.708C27.9622 97.804 54.8201 124.634 87.951 124.634Z" fill="#6F3E97"/>
<path d="M87.9512 112.346C114.288 112.346 135.639 91.0174 135.639 64.708C135.639 38.3985 114.288 17.0704 87.9512 17.0704C61.614 17.0704 40.2634 38.3985 40.2634 64.708C40.2634 91.0174 61.614 112.346 87.9512 112.346Z" fill="#E6E6E6"/>
<path opacity="0.3" d="M89.2991 25.4869H86.603V67.5696H89.2991V25.4869Z" fill="#535461"/>
<g opacity="0.1">
<path opacity="0.1" d="M128.899 63.698H90.8159V67.0646H128.899V63.698Z" fill="black"/>
<path opacity="0.1" d="M63.9289 51.1025L62.3655 54.0849L86.3276 66.6201L87.891 63.6377L63.9289 51.1025Z" fill="black"/>
<path opacity="0.1" d="M87.9512 70.4312C90.7432 70.4312 93.0065 68.1703 93.0065 65.3813C93.0065 62.5923 90.7432 60.3314 87.9512 60.3314C85.1593 60.3314 82.896 62.5923 82.896 65.3813C82.896 68.1703 85.1593 70.4312 87.9512 70.4312Z" fill="black"/>
</g>
<path d="M128.899 63.0247H90.8159V66.3913H128.899V63.0247Z" fill="#E7206F"/>
<path d="M87.9021 62.9682L63.9399 50.433L62.3765 53.4154L86.3386 65.9506L87.9021 62.9682Z" fill="#E7206F"/>
<path d="M87.9512 69.7579C90.7432 69.7579 93.0065 67.4969 93.0065 64.7079C93.0065 61.9189 90.7432 59.658 87.9512 59.658C85.1593 59.658 82.896 61.9189 82.896 64.7079C82.896 67.4969 85.1593 69.7579 87.9512 69.7579Z" fill="#E7206F"/>
<g opacity="0.1">
<path opacity="0.1" d="M43.9672 70.4312C43.9672 44.1211 65.3172 22.7936 91.655 22.7936C99.0474 22.7871 106.34 24.5001 112.954 27.797C119.569 31.0939 125.325 35.884 129.765 41.7881C121.649 27.0558 105.978 17.0704 87.9479 17.0704C61.61 17.0704 40.2601 38.3979 40.2601 64.708C40.2446 75.0437 43.6096 85.1016 49.8431 93.3511C45.9774 86.3298 43.9558 78.4444 43.9672 70.4312Z" fill="black"/>
</g>
<g opacity="0.1">
<path opacity="0.1" d="M112.231 79.3595C112.231 79.3595 111.876 80.0715 111.389 80.9266C110.645 80.5295 109.926 80.0876 109.235 79.6035L109.087 79.4992L109.008 79.4419L109.85 78.5128L112.231 79.3595Z" fill="black"/>
</g>
<g opacity="0.1">
<path opacity="0.1" d="M106.689 80.2819C106.471 80.4896 106.293 80.7362 106.165 81.0091C104.967 80.4687 103.708 79.787 103.25 79.5345L103.215 79.516C103.443 79.2284 103.705 78.9691 103.995 78.7433C103.995 78.7433 107.306 79.7432 106.689 80.2819Z" fill="black"/>
</g>
<g opacity="0.1">
<path opacity="0.1" d="M104.842 37.7632C104.632 38.3647 104.39 38.9546 104.118 39.5307C104.013 38.7699 103.584 36.824 101.883 36.1961C102.22 35.7365 102.456 35.4588 102.456 35.4588L104.842 37.7632Z" fill="black"/>
</g>
<g opacity="0.1">
<path opacity="0.1" d="M116.695 56.751C116.695 56.751 113.197 56.4732 110.162 56.3419L109.857 56.3285C109.426 56.3116 109.015 56.2982 108.612 56.2881C105.666 56.2174 102.335 55.1889 101.769 55.0087C101.981 54.68 102.211 54.3625 102.456 54.0577L107.075 55.0677C107.075 55.0677 107.803 55.3 109.421 56.0154L106.767 54.0577L114.855 55.5188C114.855 55.5188 115.137 55.4834 116.624 56.315L116.695 56.751Z" fill="black"/>
</g>
<path opacity="0.05" d="M98.4929 41.4918C98.4929 41.4918 98.8013 42.9529 98.4929 43.4141V41.4918Z" fill="black"/>
<path d="M162.327 74.7859C162.327 74.7859 155.277 81.8288 159.257 92.2788C163.237 102.729 152.436 120.107 152.436 120.107C152.436 120.107 152.552 120.09 152.773 120.053C167.253 117.5 174.446 100.958 166.395 88.6681C163.394 84.0979 160.937 78.7383 162.327 74.7859Z" fill="#6C63FF"/>
<path opacity="0.1" d="M162.327 74.9037C162.327 74.9037 155.277 81.9467 159.257 92.3967C163.237 102.847 152.436 120.223 152.436 120.223C152.436 120.223 152.552 120.207 152.773 120.17C167.253 117.616 174.446 101.074 166.395 88.7843C163.394 84.2158 160.937 78.8562 162.327 74.9037Z" fill="black"/>
<path d="M162.327 74.7859C162.327 74.7859 158.347 83.4179 162.327 90.4608C166.307 97.5038 163.001 117.267 152.434 120.107" stroke="#535461" stroke-miterlimit="10"/>
<path d="M174.884 103.271C174.884 103.271 166.84 101.991 166.107 109.193C165.374 116.394 150.633 117.392 150.633 117.392L150.909 117.576C163.075 125.554 174.708 122.657 172.953 112.063C172.306 108.125 172.36 104.17 174.884 103.271Z" fill="#57A8DA"/>
<path d="M174.885 103.271C174.885 103.271 168.64 104.639 169.155 110.312C169.671 115.985 159.887 122.784 150.64 117.394" stroke="#535461" stroke-miterlimit="10"/>
<path d="M167.807 117.655C167.807 117.655 161.471 116.389 159.781 114.7C158.091 113.012 150.488 110.06 149.644 112.175C148.799 114.291 138.239 121.459 145.419 122.725C152.599 123.991 162.316 124.408 164.427 123.566C166.538 122.725 167.807 117.655 167.807 117.655Z" fill="#A8A8A8"/>
<path opacity="0.2" d="M145.419 121.935C152.601 123.201 162.315 123.619 164.427 122.777C166.036 122.134 167.153 119.047 167.595 117.609L167.805 117.653C167.805 117.653 166.538 122.716 164.427 123.56C162.315 124.403 152.599 123.982 145.419 122.718C143.346 122.353 142.753 121.494 142.977 120.409C143.153 121.117 143.876 121.663 145.419 121.935Z" fill="black"/>
</g>
<defs>
<linearGradient id="paint0_linear" x1="87.9511" y1="125.644" x2="87.9511" y2="3.77231" gradientUnits="userSpaceOnUse">
<stop stop-color="#808080" stop-opacity="0.25"/>
<stop offset="0.54" stop-color="#808080" stop-opacity="0.12"/>
<stop offset="1" stop-color="#808080" stop-opacity="0.1"/>
</linearGradient>
<clipPath id="clip0">
<rect width="174.901" height="130" fill="white"/>
</clipPath>
</defs>
</svg>
