<svg width="150" height="130" viewBox="0 0 150 130" fill="none" xmlns="http://www.w3.org/2000/svg">
<g clip-path="url(#clip0)">
<path d="M134.571 67.6541C134.59 83.7402 128.373 99.2074 117.225 110.804C116.553 111.508 115.863 112.195 115.154 112.864C114.075 113.891 112.96 114.878 111.808 115.825C101.034 124.701 87.5836 129.689 73.6271 129.984C73.1621 129.995 72.6953 130 72.2268 130C61.0962 130 47.0964 124.055 34.3918 115.825C33.3407 115.144 32.2989 114.447 31.2665 113.735C30.7839 113.405 30.3037 113.07 29.8258 112.731C24.9258 109.271 20.2747 105.471 15.9068 101.36C13.047 98.6761 10.3653 95.8086 7.87866 92.7756C-1.88324 80.7343 -4.03636 69.8844 9.88087 67.6541C11.5286 67.3908 13.1278 67.1095 14.6785 66.81C16.9246 66.3783 19.0742 65.9121 21.1273 65.4114C23.8929 64.7394 26.4911 64.0105 28.9221 63.225C29.7398 62.9618 30.5388 62.6933 31.3191 62.4195C42.8551 58.3677 50.5762 53.084 55.8318 47.3511C56.7232 46.3807 57.5451 45.3986 58.2973 44.4048C59.4482 42.8922 60.4936 41.3021 61.4261 39.6459C62.7131 37.3446 63.7942 34.9341 64.6566 32.4424L64.704 32.3056C68.8857 20.2431 67.6134 9.05461 72.2268 5.30989C91.9471 -10.6991 116.498 12.0992 128.022 38.9843C128.603 40.339 129.149 41.7019 129.661 43.073C129.891 43.6854 130.113 44.299 130.326 44.9137C130.888 46.5159 131.397 48.1221 131.855 49.7324C132.03 50.3466 132.197 50.9602 132.356 51.5732C132.527 52.2347 132.69 52.8945 132.841 53.5543C133.962 58.3853 134.571 63.1495 134.571 67.6541Z" fill="#55A9DD"/>
<path d="M73.6272 129.984C73.1622 129.995 72.6954 130 72.2269 130C61.0963 130 47.0966 124.055 34.3919 115.825C33.3408 115.144 32.299 114.447 31.2666 113.735L32.1721 108.225L59.5836 104.585L73.3412 115.105L73.6272 129.984Z" fill="#2F2E41"/>
<path d="M74.9469 31.5949H71.0407C70.9197 31.595 70.8037 31.643 70.7181 31.7286C70.6326 31.8141 70.5845 31.9301 70.5845 32.0511V35.959C70.5845 36.0189 70.5964 36.0781 70.6193 36.1333C70.6423 36.1885 70.676 36.2387 70.7183 36.2809C70.7607 36.3231 70.811 36.3566 70.8663 36.3793C70.9216 36.4021 70.9809 36.4137 71.0407 36.4135H74.9469C75.0676 36.4136 75.1834 36.3658 75.2689 36.2806C75.3545 36.1954 75.4027 36.0798 75.4031 35.959V32.0511C75.4028 31.9302 75.3546 31.8144 75.2691 31.7289C75.1836 31.6434 75.0678 31.5953 74.9469 31.5949Z" fill="white"/>
<path d="M74.9469 38.2544H71.0407C70.9197 38.2544 70.8037 38.3025 70.7181 38.3881C70.6326 38.4736 70.5845 38.5896 70.5845 38.7106V42.6185C70.5845 42.6783 70.5964 42.7375 70.6193 42.7928C70.6423 42.848 70.676 42.8982 70.7183 42.9404C70.7607 42.9826 70.811 43.016 70.8663 43.0388C70.9216 43.0615 70.9809 43.0732 71.0407 43.073H74.9469C75.0676 43.073 75.1834 43.0252 75.2689 42.94C75.3545 42.8549 75.4027 42.7392 75.4031 42.6185V38.7106C75.4028 38.5897 75.3546 38.4739 75.2691 38.3884C75.1836 38.3029 75.0678 38.2547 74.9469 38.2544Z" fill="#E6E6E6"/>
<path d="M74.9469 44.9138H71.0407C70.9197 44.9138 70.8037 44.9619 70.7181 45.0475C70.6326 45.133 70.5845 45.249 70.5845 45.37V49.2762C70.5844 49.3361 70.5961 49.3955 70.619 49.4509C70.6418 49.5063 70.6754 49.5567 70.7178 49.5991C70.7602 49.6414 70.8105 49.675 70.866 49.6979C70.9214 49.7208 70.9808 49.7325 71.0407 49.7324H74.9469C75.0679 49.7324 75.1839 49.6843 75.2694 49.5987C75.355 49.5132 75.4031 49.3972 75.4031 49.2762V45.37C75.4028 45.2491 75.3546 45.1333 75.2691 45.0478C75.1836 44.9623 75.0678 44.9141 74.9469 44.9138Z" fill="#E6E6E6"/>
<path d="M75.3961 51.9487C75.3766 51.8436 75.3211 51.7486 75.2391 51.6801C75.1571 51.6115 75.0537 51.5737 74.9469 51.5732H71.0407C70.9197 51.5732 70.8037 51.6213 70.7182 51.7069C70.6326 51.7924 70.5845 51.9085 70.5845 52.0294V55.9356C70.5844 55.9955 70.5961 56.0549 70.619 56.1103C70.6418 56.1657 70.6754 56.2161 70.7178 56.2585C70.7602 56.3008 70.8105 56.3344 70.866 56.3573C70.9214 56.3802 70.9807 56.3919 71.0407 56.3918H74.9469C75.0679 56.3918 75.1839 56.3437 75.2694 56.2581C75.355 56.1726 75.4031 56.0566 75.4031 55.9356V52.0294C75.4035 52.0024 75.4011 51.9753 75.3961 51.9487Z" fill="#E6E6E6"/>
<path d="M75.1238 58.2677C75.0676 58.2445 75.0074 58.2325 74.9466 58.2326H71.0404C70.9805 58.2325 70.9211 58.2442 70.8657 58.2671C70.8103 58.29 70.76 58.3236 70.7176 58.366C70.6752 58.4084 70.6416 58.4587 70.6187 58.5141C70.5958 58.5695 70.5841 58.6289 70.5842 58.6889V62.595C70.584 62.655 70.5956 62.7145 70.6184 62.7699C70.6412 62.8254 70.6748 62.8758 70.7172 62.9182C70.7597 62.9607 70.8101 62.9942 70.8655 63.0171C70.921 63.0399 70.9805 63.0515 71.0404 63.0513H74.9466C75.0676 63.0512 75.1836 63.0031 75.2692 62.9176C75.3547 62.832 75.4028 62.716 75.4029 62.595V58.6889C75.4026 58.5991 75.3761 58.5113 75.3265 58.4364C75.2769 58.3616 75.2064 58.3029 75.1238 58.2677Z" fill="#E6E6E6"/>
<path d="M83.1522 31.5949H79.246C79.125 31.595 79.009 31.643 78.9235 31.7286C78.8379 31.8141 78.7898 31.9301 78.7898 32.0511V35.959C78.7899 36.0189 78.8017 36.0781 78.8247 36.1333C78.8476 36.1885 78.8813 36.2387 78.9237 36.2809C78.966 36.3231 79.0163 36.3566 79.0716 36.3793C79.1269 36.4021 79.1862 36.4137 79.246 36.4135H83.1522C83.2729 36.4136 83.3887 36.3658 83.4742 36.2806C83.5597 36.1954 83.608 36.0798 83.6084 35.959V32.0511C83.6081 31.9302 83.5599 31.8144 83.4744 31.7289C83.3889 31.6434 83.2731 31.5953 83.1522 31.5949Z" fill="#E6E6E6"/>
<path d="M83.1522 38.2544H79.246C79.125 38.2544 79.009 38.3025 78.9235 38.3881C78.8379 38.4736 78.7898 38.5896 78.7898 38.7106V42.6185C78.7899 42.6783 78.8017 42.7375 78.8247 42.7928C78.8476 42.848 78.8813 42.8982 78.9237 42.9404C78.966 42.9826 79.0163 43.016 79.0716 43.0388C79.1269 43.0615 79.1862 43.0732 79.246 43.073H83.1522C83.2729 43.073 83.3887 43.0252 83.4742 42.94C83.5598 42.8549 83.608 42.7392 83.6084 42.6185V38.7106C83.6081 38.5897 83.5599 38.4739 83.4744 38.3884C83.3889 38.3029 83.2731 38.2547 83.1522 38.2544Z" fill="#6F3E97"/>
<path d="M83.1522 44.9138H79.246C79.125 44.9138 79.009 44.9619 78.9235 45.0475C78.8379 45.133 78.7898 45.249 78.7898 45.37V49.2762C78.7897 49.3361 78.8014 49.3955 78.8243 49.4509C78.8472 49.5063 78.8808 49.5567 78.9232 49.5991C78.9655 49.6414 79.0159 49.675 79.0713 49.6979C79.1267 49.7208 79.1861 49.7325 79.246 49.7324H83.1522C83.2732 49.7324 83.3892 49.6843 83.4747 49.5987C83.5603 49.5132 83.6084 49.3972 83.6084 49.2762V45.37C83.6081 45.2491 83.5599 45.1333 83.4744 45.0478C83.3889 44.9623 83.2731 44.9141 83.1522 44.9138Z" fill="#6F3E97"/>
<path d="M83.1522 51.5732H79.246C79.1504 51.5733 79.0572 51.6035 78.9797 51.6595C78.9022 51.7156 78.8443 51.7947 78.8143 51.8855C78.7981 51.9318 78.7898 51.9804 78.7898 52.0294V55.9356C78.7897 55.9955 78.8014 56.0549 78.8243 56.1103C78.8472 56.1657 78.8808 56.2161 78.9231 56.2585C78.9655 56.3009 79.0159 56.3345 79.0713 56.3574C79.1267 56.3802 79.1861 56.392 79.246 56.3918H83.1522C83.2732 56.3918 83.3892 56.3437 83.4747 56.2582C83.5603 56.1726 83.6084 56.0566 83.6084 55.9356V52.0294C83.6081 51.9085 83.5599 51.7927 83.4744 51.7072C83.3889 51.6217 83.2731 51.5735 83.1522 51.5732Z" fill="#6F3E97"/>
<path d="M83.1522 58.2326H79.246C79.1861 58.2325 79.1267 58.2442 79.0713 58.2671C79.0159 58.29 78.9655 58.3236 78.9232 58.366C78.8808 58.4084 78.8472 58.4587 78.8243 58.5141C78.8014 58.5695 78.7897 58.6289 78.7898 58.6889V62.595C78.7897 62.655 78.8014 62.7143 78.8243 62.7698C78.8472 62.8252 78.8808 62.8755 78.9232 62.9179C78.9655 62.9603 79.0159 62.9939 79.0713 63.0168C79.1267 63.0397 79.1861 63.0514 79.246 63.0513H83.1522C83.2732 63.0512 83.3892 63.0031 83.4747 62.9176C83.5603 62.832 83.6084 62.716 83.6084 62.595V58.6889C83.6084 58.5679 83.5603 58.4518 83.4747 58.3663C83.3892 58.2807 83.2732 58.2327 83.1522 58.2326Z" fill="#E6E6E6"/>
<path d="M91.3575 31.5949H87.4513C87.3304 31.595 87.2144 31.643 87.1288 31.7286C87.0433 31.8141 86.9952 31.9301 86.9951 32.0511V35.959C86.9952 36.0189 87.007 36.0781 87.03 36.1333C87.053 36.1885 87.0866 36.2387 87.129 36.2809C87.1714 36.3231 87.2216 36.3566 87.277 36.3793C87.3323 36.4021 87.3915 36.4137 87.4513 36.4135H91.3575C91.4782 36.4136 91.5941 36.3658 91.6796 36.2806C91.7651 36.1954 91.8134 36.0798 91.8138 35.959V32.0511C91.8134 31.9302 91.7652 31.8144 91.6797 31.7289C91.5943 31.6434 91.4784 31.5953 91.3575 31.5949Z" fill="#6F3E97"/>
<path d="M91.3575 38.2544H87.4513C87.3304 38.2544 87.2143 38.3025 87.1288 38.3881C87.0432 38.4736 86.9952 38.5896 86.9951 38.7106V42.6185C86.9952 42.6783 87.007 42.7375 87.03 42.7928C87.053 42.848 87.0866 42.8982 87.129 42.9404C87.1714 42.9826 87.2216 43.016 87.277 43.0388C87.3323 43.0615 87.3915 43.0732 87.4513 43.073H91.3575C91.4782 43.073 91.5941 43.0252 91.6796 42.94C91.7651 42.8549 91.8134 42.7392 91.8138 42.6185V38.7106C91.8134 38.5897 91.7652 38.4739 91.6798 38.3884C91.5943 38.3029 91.4784 38.2547 91.3575 38.2544Z" fill="#6F3E97"/>
<path d="M91.3575 44.9138H87.4513C87.3304 44.9138 87.2143 44.9619 87.1288 45.0475C87.0432 45.133 86.9952 45.249 86.9951 45.37V49.2762C86.995 49.3361 87.0067 49.3955 87.0296 49.4509C87.0525 49.5063 87.0861 49.5567 87.1285 49.5991C87.1709 49.6414 87.2212 49.675 87.2766 49.6979C87.332 49.7208 87.3914 49.7325 87.4513 49.7324H91.3575C91.4785 49.7324 91.5945 49.6843 91.6801 49.5987C91.7656 49.5132 91.8137 49.3972 91.8138 49.2762V45.37C91.8134 45.2491 91.7653 45.1333 91.6798 45.0478C91.5943 44.9623 91.4784 44.9141 91.3575 44.9138Z" fill="#E6E6E6"/>
<path d="M91.3575 51.5732H87.4513C87.3304 51.5732 87.2144 51.6213 87.1288 51.7069C87.0433 51.7924 86.9952 51.9085 86.9951 52.0294V55.9356C86.995 55.9955 87.0067 56.0549 87.0296 56.1103C87.0525 56.1657 87.0861 56.2161 87.1285 56.2585C87.1709 56.3008 87.2212 56.3344 87.2766 56.3573C87.332 56.3802 87.3914 56.3919 87.4513 56.3918H91.3575C91.4785 56.3918 91.5945 56.3437 91.6801 56.2581C91.7657 56.1726 91.8137 56.0566 91.8138 55.9356V52.0294C91.8134 51.9085 91.7653 51.7927 91.6798 51.7072C91.5943 51.6217 91.4784 51.5735 91.3575 51.5732Z" fill="#6F3E97"/>
<path d="M91.3575 58.2326H87.4513C87.3914 58.2325 87.332 58.2442 87.2766 58.2671C87.2212 58.29 87.1709 58.3236 87.1285 58.366C87.0861 58.4084 87.0525 58.4587 87.0296 58.5141C87.0067 58.5695 86.995 58.6289 86.9951 58.6889V62.595C86.995 62.655 87.0067 62.7143 87.0296 62.7698C87.0525 62.8252 87.0861 62.8755 87.1285 62.9179C87.1709 62.9603 87.2212 62.9939 87.2766 63.0168C87.332 63.0397 87.3914 63.0514 87.4513 63.0513H91.3575C91.4785 63.0512 91.5945 63.0031 91.6801 62.9176C91.7657 62.832 91.8137 62.716 91.8138 62.595V58.6889C91.8137 58.5679 91.7657 58.4518 91.6801 58.3663C91.5945 58.2807 91.4785 58.2327 91.3575 58.2326Z" fill="#6F3E97"/>
<path d="M99.5628 31.5949H95.6567C95.5357 31.595 95.4197 31.643 95.3341 31.7286C95.2486 31.8141 95.2005 31.9301 95.2004 32.0511V35.959C95.2005 36.0189 95.2124 36.0781 95.2353 36.1333C95.2583 36.1885 95.2919 36.2387 95.3343 36.2809C95.3767 36.3231 95.427 36.3566 95.4823 36.3793C95.5376 36.4021 95.5969 36.4137 95.6567 36.4135H99.5628C99.6836 36.4136 99.7994 36.3658 99.8849 36.2806C99.9704 36.1954 100.019 36.0798 100.019 35.959V32.0511C100.019 31.9302 99.9706 31.8144 99.8851 31.7289C99.7996 31.6434 99.6837 31.5953 99.5628 31.5949Z" fill="#6F3E97"/>
<path d="M99.5628 38.2544H95.6567C95.5357 38.2544 95.4197 38.3025 95.3341 38.3881C95.2486 38.4736 95.2005 38.5896 95.2004 38.7106V42.6185C95.2005 42.6783 95.2124 42.7375 95.2353 42.7928C95.2583 42.848 95.2919 42.8982 95.3343 42.9404C95.3767 42.9826 95.427 43.016 95.4823 43.0388C95.5376 43.0615 95.5969 43.0732 95.6567 43.073H99.5628C99.6836 43.073 99.7994 43.0252 99.8849 42.94C99.9704 42.8549 100.019 42.7392 100.019 42.6185V38.7106C100.019 38.5897 99.9706 38.4739 99.8851 38.3884C99.7996 38.3029 99.6837 38.2547 99.5628 38.2544Z" fill="white"/>
<path d="M99.5629 44.9138H95.6567C95.5357 44.9138 95.4197 44.9619 95.3341 45.0475C95.2486 45.133 95.2005 45.249 95.2004 45.37V49.2762C95.2003 49.3361 95.212 49.3955 95.2349 49.4509C95.2578 49.5063 95.2914 49.5567 95.3338 49.5991C95.3762 49.6414 95.4265 49.675 95.4819 49.6979C95.5373 49.7208 95.5967 49.7325 95.6567 49.7324H99.5629C99.6838 49.7324 99.7999 49.6843 99.8854 49.5987C99.971 49.5132 100.019 49.3972 100.019 49.2762V45.37C100.019 45.2491 99.9706 45.1333 99.8851 45.0478C99.7996 44.9623 99.6838 44.9141 99.5629 44.9138Z" fill="white"/>
<path d="M99.5629 51.5732H95.6567C95.5357 51.5732 95.4197 51.6213 95.3341 51.7069C95.2486 51.7924 95.2005 51.9085 95.2004 52.0294V55.9356C95.2003 55.9955 95.212 56.0549 95.2349 56.1103C95.2578 56.1657 95.2914 56.2161 95.3338 56.2585C95.3762 56.3009 95.4265 56.3345 95.4819 56.3573C95.5374 56.3802 95.5967 56.3919 95.6567 56.3918H99.5629C99.6838 56.3918 99.7999 56.3437 99.8854 56.2581C99.971 56.1726 100.019 56.0566 100.019 55.9356V52.0294C100.019 51.9085 99.9706 51.7927 99.8851 51.7072C99.7996 51.6217 99.6838 51.5735 99.5629 51.5732Z" fill="#E6E6E6"/>
<path d="M99.5629 58.2326H95.6567C95.5967 58.2325 95.5374 58.2442 95.4819 58.2671C95.4265 58.29 95.3762 58.3236 95.3338 58.366C95.2914 58.4084 95.2578 58.4587 95.2349 58.5141C95.212 58.5695 95.2003 58.6289 95.2004 58.6889V62.595C95.2003 62.655 95.212 62.7143 95.2349 62.7698C95.2578 62.8252 95.2914 62.8755 95.3338 62.9179C95.3762 62.9603 95.4265 62.9939 95.4819 63.0168C95.5373 63.0397 95.5967 63.0514 95.6567 63.0513H99.5629C99.6838 63.0512 99.7999 63.0031 99.8854 62.9176C99.971 62.832 100.019 62.716 100.019 62.595V58.6889C100.019 58.5679 99.971 58.4518 99.8854 58.3663C99.7999 58.2807 99.6838 58.2327 99.5629 58.2326Z" fill="#6F3E97"/>
<path d="M107.768 31.5949H103.861C103.74 31.5953 103.624 31.6436 103.539 31.7291C103.454 31.8146 103.406 31.9304 103.406 32.0511V35.9591C103.406 36.0796 103.454 36.1952 103.539 36.2804C103.624 36.3656 103.74 36.4135 103.861 36.4136H107.768C107.889 36.4136 108.005 36.3658 108.09 36.2806C108.176 36.1954 108.224 36.0798 108.225 35.9591V32.0511C108.224 31.9302 108.176 31.8144 108.091 31.7289C108.005 31.6434 107.889 31.5953 107.768 31.5949Z" fill="white"/>
<path d="M107.768 38.2544H103.861C103.74 38.2548 103.624 38.303 103.539 38.3886C103.454 38.4741 103.406 38.5899 103.406 38.7106V42.6185C103.406 42.739 103.454 42.8546 103.539 42.9399C103.624 43.0251 103.74 43.073 103.861 43.073H107.768C107.889 43.0731 108.005 43.0252 108.09 42.94C108.176 42.8549 108.224 42.7392 108.225 42.6185V38.7106C108.224 38.5897 108.176 38.4739 108.091 38.3884C108.005 38.3029 107.889 38.2547 107.768 38.2544Z" fill="white"/>
<path d="M107.768 44.9138H103.861C103.74 44.9142 103.624 44.9624 103.539 45.048C103.454 45.1335 103.406 45.2493 103.406 45.37V49.2762C103.406 49.336 103.417 49.3953 103.44 49.4506C103.463 49.5059 103.496 49.5562 103.539 49.5985C103.581 49.6409 103.631 49.6745 103.686 49.6975C103.741 49.7205 103.801 49.7323 103.861 49.7324H107.768C107.889 49.7324 108.005 49.6843 108.091 49.5987C108.177 49.5132 108.225 49.3972 108.225 49.2762V45.37C108.224 45.2491 108.176 45.1333 108.091 45.0478C108.005 44.9623 107.889 44.9141 107.768 44.9138Z" fill="white"/>
<path d="M107.768 51.5732H103.861C103.74 51.5736 103.624 51.6219 103.539 51.7074C103.454 51.7929 103.406 51.9087 103.406 52.0294V55.9356C103.406 55.9954 103.417 56.0547 103.44 56.11C103.463 56.1653 103.496 56.2156 103.539 56.258C103.581 56.3003 103.631 56.334 103.686 56.357C103.741 56.3799 103.801 56.3918 103.861 56.3918H107.768C107.889 56.3918 108.005 56.3437 108.091 56.2582C108.177 56.1726 108.225 56.0566 108.225 55.9356V52.0294C108.224 51.9085 108.176 51.7927 108.091 51.7072C108.005 51.6217 107.889 51.5735 107.768 51.5732Z" fill="#6F3E97"/>
<path d="M107.768 58.2326H103.861C103.801 58.2327 103.741 58.2445 103.686 58.2675C103.631 58.2905 103.581 58.3241 103.539 58.3665C103.496 58.4089 103.463 58.4591 103.44 58.5145C103.417 58.5698 103.406 58.629 103.406 58.6889V62.595C103.406 62.6548 103.417 62.7141 103.44 62.7694C103.463 62.8247 103.496 62.875 103.539 62.9174C103.581 62.9598 103.631 62.9934 103.686 63.0164C103.741 63.0394 103.801 63.0512 103.861 63.0513H107.768C107.889 63.0512 108.005 63.0031 108.091 62.9176C108.177 62.832 108.225 62.716 108.225 62.595V58.6889C108.225 58.5679 108.177 58.4518 108.091 58.3663C108.005 58.2807 107.889 58.2327 107.768 58.2326Z" fill="#E6E6E6"/>
<path d="M115.973 31.5949H112.066C111.945 31.5953 111.829 31.6436 111.744 31.7291C111.659 31.8146 111.611 31.9304 111.611 32.0511V35.9591C111.611 36.0796 111.659 36.1952 111.744 36.2804C111.829 36.3656 111.945 36.4135 112.066 36.4136H115.973C116.094 36.4136 116.21 36.3658 116.296 36.2806C116.381 36.1954 116.429 36.0798 116.43 35.9591V32.0511C116.429 31.9302 116.381 31.8144 116.296 31.7289C116.21 31.6434 116.094 31.5953 115.973 31.5949Z" fill="white"/>
<path d="M115.973 38.2544H112.066C111.945 38.2548 111.829 38.303 111.744 38.3886C111.659 38.4741 111.611 38.5899 111.611 38.7106V42.6185C111.611 42.739 111.659 42.8546 111.744 42.9399C111.829 43.0251 111.945 43.073 112.066 43.073H115.973C116.094 43.073 116.21 43.0252 116.296 42.94C116.381 42.8549 116.429 42.7392 116.43 42.6185V38.7106C116.429 38.5897 116.381 38.4739 116.296 38.3884C116.21 38.3029 116.094 38.2547 115.973 38.2544Z" fill="white"/>
<path d="M115.973 44.9138H112.066C111.945 44.9142 111.829 44.9624 111.744 45.048C111.659 45.1335 111.611 45.2493 111.611 45.37V49.2762C111.611 49.336 111.623 49.3953 111.645 49.4506C111.668 49.5059 111.702 49.5562 111.744 49.5985C111.786 49.6409 111.836 49.6745 111.891 49.6975C111.947 49.7205 112.006 49.7323 112.066 49.7324H115.973C116.094 49.7323 116.21 49.6843 116.296 49.5987C116.382 49.5132 116.43 49.3972 116.43 49.2762V45.37C116.429 45.2491 116.381 45.1333 116.296 45.0478C116.21 44.9623 116.094 44.9141 115.973 44.9138Z" fill="#6F3E97"/>
<path d="M115.973 51.5732H112.066C111.945 51.5736 111.829 51.6219 111.744 51.7074C111.659 51.7929 111.611 51.9087 111.611 52.0294V55.9356C111.611 55.9954 111.623 56.0547 111.645 56.11C111.668 56.1653 111.702 56.2156 111.744 56.258C111.786 56.3003 111.836 56.334 111.891 56.357C111.947 56.3799 112.006 56.3918 112.066 56.3918H115.973C116.094 56.3918 116.21 56.3437 116.296 56.2582C116.382 56.1726 116.43 56.0566 116.43 55.9356V52.0294C116.429 51.9085 116.381 51.7927 116.296 51.7072C116.21 51.6217 116.094 51.5735 115.973 51.5732Z" fill="#E6E6E6"/>
<path d="M115.973 58.2326H112.066C112.006 58.2327 111.947 58.2445 111.891 58.2675C111.836 58.2905 111.786 58.3241 111.744 58.3665C111.702 58.4089 111.668 58.4591 111.645 58.5145C111.623 58.5698 111.611 58.629 111.611 58.6889V62.595C111.611 62.6548 111.623 62.7141 111.645 62.7694C111.668 62.8247 111.702 62.875 111.744 62.9174C111.786 62.9598 111.836 62.9934 111.891 63.0164C111.947 63.0394 112.006 63.0512 112.066 63.0513H115.973C116.094 63.0512 116.21 63.0031 116.296 62.9176C116.382 62.832 116.43 62.716 116.43 62.595V58.6889C116.43 58.5679 116.382 58.4518 116.296 58.3663C116.21 58.2807 116.094 58.2327 115.973 58.2326Z" fill="white"/>
<path d="M124.179 31.5949H120.271C120.151 31.5953 120.035 31.6436 119.95 31.7291C119.865 31.8146 119.817 31.9304 119.817 32.0511V35.9591C119.817 36.0796 119.865 36.1952 119.95 36.2804C120.035 36.3656 120.151 36.4135 120.271 36.4136H124.179C124.3 36.4136 124.416 36.3658 124.501 36.2806C124.587 36.1954 124.635 36.0798 124.636 35.9591V32.0511C124.635 31.9302 124.587 31.8144 124.502 31.7289C124.416 31.6434 124.3 31.5953 124.179 31.5949Z" fill="#6F3E97"/>
<path d="M124.179 38.2544H120.271C120.151 38.2548 120.035 38.303 119.95 38.3886C119.865 38.4741 119.817 38.5899 119.817 38.7106V42.6185C119.817 42.739 119.865 42.8546 119.95 42.9399C120.035 43.0251 120.151 43.073 120.271 43.073H124.179C124.3 43.073 124.416 43.0252 124.501 42.94C124.587 42.8549 124.635 42.7392 124.636 42.6185V38.7106C124.635 38.5897 124.587 38.4739 124.502 38.3884C124.416 38.3029 124.3 38.2547 124.179 38.2544Z" fill="#6F3E97"/>
<path d="M124.179 44.9138H120.271C120.151 44.9142 120.035 44.9624 119.95 45.048C119.865 45.1335 119.817 45.2493 119.817 45.37V49.2762C119.817 49.336 119.828 49.3953 119.851 49.4506C119.874 49.5059 119.907 49.5562 119.95 49.5985C119.992 49.6409 120.042 49.6745 120.097 49.6975C120.152 49.7205 120.212 49.7323 120.271 49.7324H124.179C124.3 49.7323 124.416 49.6843 124.502 49.5987C124.587 49.5132 124.636 49.3972 124.636 49.2762V45.37C124.635 45.2491 124.587 45.1333 124.502 45.0478C124.416 44.9623 124.3 44.9141 124.179 44.9138Z" fill="#E6E6E6"/>
<path d="M124.179 51.5732H120.271C120.151 51.5736 120.035 51.6219 119.95 51.7074C119.865 51.7929 119.817 51.9087 119.817 52.0294V55.9356C119.817 55.9954 119.828 56.0547 119.851 56.11C119.874 56.1653 119.907 56.2156 119.95 56.258C119.992 56.3003 120.042 56.334 120.097 56.357C120.152 56.3799 120.212 56.3918 120.271 56.3918H124.179C124.3 56.3918 124.416 56.3437 124.502 56.2582C124.587 56.1726 124.636 56.0566 124.636 55.9356V52.0294C124.635 51.9085 124.587 51.7927 124.502 51.7072C124.416 51.6217 124.3 51.5735 124.179 51.5732Z" fill="white"/>
<path d="M124.179 58.2326H120.271C120.212 58.2327 120.152 58.2445 120.097 58.2675C120.042 58.2905 119.992 58.3241 119.95 58.3665C119.907 58.4089 119.874 58.4591 119.851 58.5145C119.828 58.5698 119.817 58.629 119.817 58.6889V62.595C119.817 62.6548 119.828 62.7141 119.851 62.7694C119.874 62.8247 119.907 62.875 119.95 62.9174C119.992 62.9598 120.042 62.9934 120.097 63.0164C120.152 63.0394 120.212 63.0512 120.271 63.0513H124.179C124.3 63.0512 124.416 63.0031 124.502 62.9176C124.587 62.832 124.636 62.716 124.636 62.595V58.6889C124.636 58.5679 124.587 58.4518 124.502 58.3663C124.416 58.2807 124.3 58.2327 124.179 58.2326Z" fill="#6F3E97"/>
<path d="M132.384 31.5949H128.476C128.356 31.5953 128.24 31.6436 128.155 31.7291C128.07 31.8146 128.022 31.9304 128.022 32.0511V35.9591C128.022 36.0796 128.07 36.1952 128.155 36.2804C128.24 36.3656 128.356 36.4135 128.476 36.4136H132.384C132.505 36.4136 132.621 36.3658 132.706 36.2806C132.792 36.1954 132.84 36.0798 132.841 35.9591V32.0511C132.84 31.9302 132.792 31.8144 132.707 31.7289C132.621 31.6434 132.505 31.5953 132.384 31.5949Z" fill="#6F3E97"/>
<path d="M132.384 38.2544H128.476C128.356 38.2548 128.24 38.303 128.155 38.3886C128.07 38.4741 128.022 38.5899 128.022 38.7106V42.6185C128.022 42.739 128.07 42.8546 128.155 42.9399C128.24 43.0251 128.356 43.073 128.476 43.073H132.384C132.505 43.073 132.621 43.0252 132.706 42.94C132.792 42.8549 132.84 42.7392 132.841 42.6185V38.7106C132.84 38.5897 132.792 38.4739 132.707 38.3884C132.621 38.3029 132.505 38.2547 132.384 38.2544Z" fill="#6C63FF"/>
<path d="M132.384 44.9138H128.476C128.356 44.9142 128.24 44.9624 128.155 45.048C128.07 45.1335 128.022 45.2493 128.022 45.37V49.2762C128.022 49.336 128.033 49.3953 128.056 49.4506C128.079 49.5059 128.112 49.5562 128.155 49.5985C128.197 49.6409 128.247 49.6745 128.302 49.6975C128.357 49.7205 128.417 49.7323 128.476 49.7324H132.384C132.505 49.7323 132.621 49.6843 132.707 49.5987C132.792 49.5132 132.841 49.3972 132.841 49.2762V45.37C132.84 45.2491 132.792 45.1333 132.707 45.0478C132.621 44.9623 132.505 44.9141 132.384 44.9138Z" fill="#E6E6E6"/>
<path d="M132.384 51.5732H128.476C128.356 51.5736 128.24 51.6219 128.155 51.7074C128.07 51.7929 128.022 51.9087 128.022 52.0294V55.9356C128.022 55.9954 128.033 56.0547 128.056 56.11C128.079 56.1653 128.112 56.2156 128.155 56.258C128.197 56.3003 128.247 56.334 128.302 56.357C128.357 56.3799 128.417 56.3918 128.476 56.3918H132.384C132.505 56.3918 132.621 56.3437 132.707 56.2582C132.792 56.1726 132.841 56.0566 132.841 55.9356V52.0294C132.84 51.9085 132.792 51.7927 132.707 51.7072C132.621 51.6217 132.505 51.5735 132.384 51.5732Z" fill="#6F3E97"/>
<path d="M132.384 58.2326H128.476C128.417 58.2327 128.357 58.2445 128.302 58.2675C128.247 58.2905 128.197 58.3241 128.155 58.3665C128.112 58.4089 128.079 58.4591 128.056 58.5145C128.033 58.5698 128.022 58.629 128.022 58.6889V62.595C128.022 62.6548 128.033 62.7141 128.056 62.7694C128.079 62.8247 128.112 62.875 128.155 62.9174C128.197 62.9598 128.247 62.9934 128.302 63.0164C128.357 63.0394 128.417 63.0512 128.476 63.0513H132.384C132.505 63.0512 132.621 63.0031 132.707 62.9176C132.792 62.832 132.841 62.716 132.841 62.595V58.6889C132.841 58.5679 132.792 58.4518 132.707 58.3663C132.621 58.2807 132.505 58.2327 132.384 58.2326Z" fill="#6F3E97"/>
<path d="M140.59 31.5949H136.682C136.561 31.5953 136.446 31.6436 136.361 31.7291C136.275 31.8146 136.227 31.9304 136.228 32.0511V35.9591C136.228 36.0796 136.275 36.1952 136.361 36.2804C136.446 36.3656 136.561 36.4135 136.682 36.4136H140.59C140.711 36.4136 140.826 36.3658 140.912 36.2806C140.998 36.1954 141.046 36.0798 141.046 35.9591V32.0511C141.046 31.9302 140.998 31.8144 140.912 31.7289C140.827 31.6434 140.711 31.5953 140.59 31.5949Z" fill="#E6E6E6"/>
<path d="M140.59 38.2544H136.682C136.561 38.2548 136.446 38.303 136.36 38.3886C136.275 38.4741 136.227 38.5899 136.228 38.7106V42.6185C136.228 42.739 136.275 42.8546 136.361 42.9399C136.446 43.0251 136.561 43.073 136.682 43.073H140.59C140.711 43.073 140.826 43.0252 140.912 42.94C140.998 42.8549 141.046 42.7392 141.046 42.6185V38.7106C141.046 38.5897 140.998 38.4739 140.912 38.3884C140.827 38.3029 140.711 38.2547 140.59 38.2544Z" fill="#6F3E97"/>
<path d="M140.59 44.9138H136.682C136.561 44.9142 136.446 44.9624 136.361 45.048C136.275 45.1335 136.227 45.2493 136.228 45.37V49.2762C136.227 49.336 136.239 49.3953 136.262 49.4506C136.285 49.5059 136.318 49.5562 136.36 49.5985C136.402 49.6409 136.453 49.6745 136.508 49.6975C136.563 49.7205 136.622 49.7323 136.682 49.7324H140.59C140.711 49.7323 140.827 49.6843 140.913 49.5987C140.998 49.5132 141.046 49.3972 141.046 49.2762V45.37C141.046 45.2491 140.998 45.1333 140.912 45.0478C140.827 44.9623 140.711 44.9141 140.59 44.9138Z" fill="#6F3E97"/>
<path d="M140.59 51.5732H136.682C136.561 51.5736 136.446 51.6219 136.361 51.7074C136.275 51.7929 136.227 51.9087 136.228 52.0294V55.9356C136.227 55.9954 136.239 56.0547 136.262 56.11C136.285 56.1653 136.318 56.2156 136.36 56.258C136.402 56.3003 136.453 56.334 136.508 56.357C136.563 56.3799 136.622 56.3918 136.682 56.3918H140.59C140.711 56.3918 140.827 56.3437 140.913 56.2582C140.998 56.1726 141.046 56.0566 141.046 55.9356V52.0294C141.046 51.9085 140.998 51.7927 140.912 51.7072C140.827 51.6217 140.711 51.5735 140.59 51.5732Z" fill="#6F3E97"/>
<path d="M140.59 58.2326H136.682C136.622 58.2327 136.563 58.2445 136.508 58.2675C136.453 58.2905 136.402 58.3241 136.36 58.3665C136.318 58.4089 136.285 58.4591 136.262 58.5145C136.239 58.5698 136.227 58.629 136.228 58.6889V62.595C136.227 62.6548 136.239 62.7141 136.262 62.7694C136.285 62.8247 136.318 62.875 136.36 62.9174C136.402 62.9598 136.453 62.9934 136.508 63.0164C136.563 63.0394 136.622 63.0512 136.682 63.0513H140.59C140.711 63.0512 140.827 63.0031 140.913 62.9176C140.998 62.832 141.046 62.716 141.046 62.595V58.6889C141.046 58.5679 140.998 58.4518 140.913 58.3663C140.827 58.2807 140.711 58.2327 140.59 58.2326Z" fill="#E6E6E6"/>
<path d="M148.795 31.5949H144.887C144.767 31.5953 144.651 31.6436 144.566 31.7291C144.481 31.8146 144.433 31.9304 144.433 32.0511V35.9591C144.433 36.0796 144.481 36.1952 144.566 36.2804C144.651 36.3656 144.767 36.4135 144.887 36.4136H148.795C148.916 36.4136 149.032 36.3658 149.117 36.2806C149.203 36.1954 149.251 36.0798 149.252 35.9591V32.0511C149.251 31.9302 149.203 31.8144 149.118 31.7289C149.032 31.6434 148.916 31.5953 148.795 31.5949Z" fill="#E6E6E6"/>
<path d="M148.795 38.2544H144.887C144.767 38.2548 144.651 38.303 144.566 38.3886C144.481 38.4741 144.433 38.5899 144.433 38.7106V42.6185C144.433 42.739 144.481 42.8546 144.566 42.9399C144.651 43.0251 144.767 43.073 144.887 43.073H148.795C148.916 43.073 149.032 43.0252 149.117 42.94C149.203 42.8549 149.251 42.7392 149.252 42.6185V38.7106C149.251 38.5897 149.203 38.4739 149.118 38.3884C149.032 38.3029 148.916 38.2547 148.795 38.2544Z" fill="#E6E6E6"/>
<path d="M148.795 44.9138H144.887C144.767 44.9142 144.651 44.9624 144.566 45.048C144.481 45.1335 144.433 45.2493 144.433 45.37V49.2762C144.433 49.336 144.444 49.3953 144.467 49.4506C144.49 49.5059 144.523 49.5562 144.566 49.5985C144.608 49.6409 144.658 49.6745 144.713 49.6975C144.768 49.7205 144.828 49.7323 144.887 49.7324H148.795C148.916 49.7323 149.032 49.6843 149.118 49.5987C149.203 49.5132 149.251 49.3972 149.252 49.2762V45.37C149.251 45.2491 149.203 45.1333 149.118 45.0478C149.032 44.9623 148.916 44.9141 148.795 44.9138Z" fill="#6F3E97"/>
<path d="M148.795 51.5732H144.887C144.767 51.5736 144.651 51.6219 144.566 51.7074C144.481 51.7929 144.433 51.9087 144.433 52.0294V55.9356C144.433 55.9954 144.444 56.0547 144.467 56.11C144.49 56.1653 144.523 56.2156 144.566 56.258C144.608 56.3003 144.658 56.334 144.713 56.357C144.768 56.3799 144.828 56.3918 144.887 56.3918H148.795C148.916 56.3918 149.032 56.3437 149.118 56.2582C149.203 56.1726 149.251 56.0566 149.252 55.9356V52.0294C149.251 51.9085 149.203 51.7927 149.118 51.7072C149.032 51.6217 148.916 51.5735 148.795 51.5732Z" fill="#E6E6E6"/>
<path d="M148.795 58.2326H144.887C144.828 58.2327 144.768 58.2445 144.713 58.2675C144.658 58.2905 144.608 58.3241 144.566 58.3665C144.523 58.4089 144.49 58.4591 144.467 58.5145C144.444 58.5698 144.433 58.629 144.433 58.6889V62.595C144.433 62.6548 144.444 62.7141 144.467 62.7694C144.49 62.8247 144.523 62.875 144.566 62.9174C144.608 62.9598 144.658 62.9934 144.713 63.0164C144.768 63.0394 144.828 63.0512 144.887 63.0513H148.795C148.916 63.0512 149.032 63.0031 149.118 62.9176C149.203 62.832 149.251 62.716 149.252 62.595V58.6889C149.251 58.5679 149.203 58.4518 149.118 58.3663C149.032 58.2807 148.916 58.2327 148.795 58.2326Z" fill="#E6E6E6"/>
<path d="M58.9775 115.825H58.8687L58.9617 115.813L58.9775 115.825Z" fill="#2F2E41"/>
<path d="M49.628 43.002C56.2493 43.002 61.617 37.6343 61.617 31.0129C61.617 24.3915 56.2493 19.0239 49.628 19.0239C43.0066 19.0239 37.6389 24.3915 37.6389 31.0129C37.6389 37.6343 43.0066 43.002 49.628 43.002Z" fill="#FFB9B9"/>
<path d="M60.1272 22.2227C60.1272 22.2227 63.2629 16.2282 56.3643 15.6832C56.3643 15.6832 50.4831 10.3483 44.4886 14.7079C44.4886 14.7079 41.2189 14.7079 39.4309 18.408C39.4309 18.408 36.8592 17.4327 36.2941 20.0429C36.2941 20.0429 34.4123 25.4925 36.2941 30.3971C38.1758 35.3017 38.8009 35.8466 38.8009 35.8466C38.8009 35.8466 35.7088 25.5639 43.2352 25.0189C50.7616 24.4739 59.1839 19.7704 59.8112 25.7649C60.4384 31.7594 61.3823 33.2364 61.3823 33.2364C61.3823 33.2364 67.3397 24.675 60.1272 22.2227Z" fill="#E7206F"/>
<path d="M80.6411 60.5595L80.6025 60.763L80.1691 63.0513L77.1737 78.8794L76.9964 79.8113L76.6244 81.7819L76.1155 84.4702L74.9872 90.4277L74.6643 92.1351L74.5432 92.7756L74.5011 93.0002L74.166 94.7673L74.0642 95.3008L73.2464 101.36L72.5322 106.64L74.9223 109.03L73.4974 110.455L72.5621 115.812L72.5638 115.825H34.3919C32.8477 114.825 31.3257 113.793 29.826 112.731L30.1401 110.38C30.1401 110.38 31.221 106.18 30.7665 105.679C30.3138 105.177 29.3205 104.28 29.3205 104.28L30.5717 101.36L30.7455 100.955L30.4542 94.913L30.4472 94.7673L30.3506 92.7756L30.3383 92.5194L30.319 92.1351L29.9488 84.4702L29.9418 84.3438L29.8295 82.0205L29.7242 79.8112L29.6785 78.8794L29.2276 69.5562L28.9222 63.225L28.6555 57.7132L29.7277 57.3499L41.1953 53.4525L45.9454 47.2774L55.8319 47.3511L60.6717 47.388L68.7472 54.8774L70.5845 55.7548L70.5985 55.7618L71.9163 56.3918L75.2575 57.9869L78.7899 59.675L80.6025 60.5401L80.6411 60.5595Z" fill="#F8F8F8"/>
<path d="M47.2229 97.8385C46.4984 98.1191 45.7212 98.2376 44.946 98.1854C44.1708 98.1332 43.4165 97.9116 42.7362 97.5364C42.0559 97.1611 41.4661 96.6412 41.0085 96.0134C40.5508 95.3856 40.2363 94.665 40.0873 93.9025L21.3884 91.2496L27.8887 83.8967L44.6488 87.5432C45.9464 87.3776 47.2597 87.6938 48.3397 88.4319C49.4197 89.1699 50.1915 90.2785 50.5088 91.5475C50.8261 92.8165 50.6668 94.1579 50.0612 95.3173C49.4556 96.4768 48.4457 97.3739 47.2229 97.8385V97.8385Z" fill="#FFB9B9"/>
<path d="M38.8857 84.4702C38.5394 84.0311 38.049 83.7284 37.5012 83.6156L29.8293 82.0205L29.0414 81.8573C28.5835 81.7618 28.1509 81.5706 27.772 81.2963C27.3931 81.0221 27.0764 80.6709 26.8426 80.2657C26.6001 79.8405 26.4534 79.3673 26.4127 78.8795C26.3761 78.4359 26.4292 77.9895 26.5689 77.5669L29.2274 69.5563L30.9523 64.3586C31.1614 63.7317 31.2848 63.0795 31.3191 62.4195C31.4152 60.5933 30.8502 58.7936 29.7275 57.35C28.7405 56.0811 27.3715 55.1634 25.8228 54.7324C24.2741 54.3013 22.6279 54.3799 21.1273 54.9564C21.0834 54.9722 21.0378 54.9898 20.9939 55.0073C19.9177 55.437 18.9563 56.1111 18.1854 56.9763C17.4146 57.8416 16.8556 58.8742 16.5525 59.9927L14.6784 66.81L10.8126 80.8641C10.4256 82.2722 10.3474 83.7473 10.5834 85.1884C10.8194 86.6296 11.3639 88.0027 12.1798 89.2138C12.9957 90.4249 14.0636 91.4455 15.3105 92.2056C16.5573 92.9658 17.9537 93.4475 19.4041 93.6179L30.454 94.913L35.5674 95.5131C36.1587 95.5842 36.7551 95.4298 37.2377 95.0809C37.7203 94.732 38.0537 94.214 38.1715 93.6302C38.1798 93.5984 38.1862 93.5662 38.1908 93.5337L38.3137 92.7756L39.3543 86.3917L39.3648 86.3268C39.419 86.001 39.4044 85.6675 39.3219 85.3478C39.2394 85.028 39.0908 84.7291 38.8857 84.4702Z" fill="#F8F8F8"/>
<path d="M59.1334 98.0431C59.8902 98.2188 60.6764 98.2264 61.4365 98.0654C62.1965 97.9044 62.9121 97.5787 63.5327 97.1113C64.1533 96.6439 64.6639 96.046 65.0284 95.3599C65.393 94.6738 65.6027 93.9161 65.6427 93.1402L83.7806 87.8769L76.3084 81.5142L60.2299 87.4877C58.922 87.5068 57.6664 88.005 56.7013 88.888C55.7361 89.7709 55.1284 90.9773 54.9932 92.2784C54.858 93.5795 55.2049 94.8849 55.9679 95.9474C56.731 97.0099 57.8573 97.7556 59.1334 98.0431V98.0431Z" fill="#FFB9B9"/>
<path d="M92.786 76.1034L84.1594 56.2497C83.4538 54.6197 82.1936 53.2924 80.6024 52.5032C80.1106 52.2611 79.5941 52.0728 79.0618 51.9417C78.9793 51.9206 78.8968 51.9013 78.8143 51.8855C77.6856 51.6392 76.5149 51.6609 75.396 51.9487C74.3733 52.2115 73.4174 52.6868 72.5907 53.3439C71.7641 54.0009 71.0852 54.8248 70.5984 55.7619C70.5931 55.7697 70.5884 55.7779 70.5844 55.7864C70.0406 56.8384 69.7514 58.0033 69.7402 59.1874C69.7289 60.3715 69.9958 61.5417 70.5194 62.6038L70.6265 62.8179L76.7226 75.061C76.9308 75.4797 77.0481 75.9377 77.0668 76.4048C77.0855 76.872 77.0053 77.3379 76.8313 77.7718C76.6573 78.2058 76.3935 78.5981 76.0572 78.923C75.721 79.2478 75.3198 79.4979 74.8801 79.6568L74.4519 79.8113L66.7519 82.5926C66.1741 82.7988 65.6989 83.2211 65.4262 83.7706C65.1536 84.3202 65.1048 84.9541 65.2901 85.5389L65.3095 85.6003L67.4678 92.5072C67.4784 92.5387 67.4889 92.5703 67.5012 92.6019C67.5202 92.6615 67.5436 92.7196 67.5714 92.7756C67.8008 93.2901 68.2062 93.7058 68.7148 93.9481C69.2233 94.1903 69.8017 94.2431 70.3457 94.097L74.501 93.0002L75.3486 92.7756L86.0791 89.9417C87.4911 89.5686 88.8057 88.8948 89.933 87.9664C91.0603 87.038 91.9737 85.877 92.6107 84.5628C93.2476 83.2486 93.593 81.8123 93.6233 80.3523C93.6535 78.8922 93.3679 77.4428 92.786 76.1034L92.786 76.1034Z" fill="#F8F8F8"/>
<path d="M7.87866 92.7756C10.3653 95.8086 13.047 98.6761 15.9068 101.36H95.2181C95.9822 101.361 96.7146 101.665 97.2548 102.206C97.7949 102.746 98.0987 103.479 98.0994 104.243L98.2135 124.341C103.093 122.099 107.662 119.237 111.808 115.825C112.959 114.879 114.074 113.892 115.154 112.864C115.861 112.194 116.552 111.507 117.225 110.804C122.272 105.546 126.36 99.4443 129.301 92.7756H7.87866Z" fill="#6F3E97"/>
<path d="M117.225 110.804C116.553 111.508 115.862 112.195 115.154 112.864H98.2712V110.804H117.225Z" fill="white"/>
<path d="M80.4832 44.9137C80.3998 44.7598 80.2763 44.6313 80.1259 44.5417C79.9755 44.4521 79.8037 44.4048 79.6286 44.4049H22.0996C21.8417 44.4056 21.5945 44.5084 21.4123 44.691C21.2301 44.8735 21.1277 45.1208 21.1274 45.3788V79.8113H80.6025V45.3788C80.6034 45.2161 80.5623 45.0559 80.4832 44.9137Z" fill="#6F3E97"/>
<path d="M21.0752 78.8791V83.1281C21.0752 83.3042 21.1099 83.4786 21.1773 83.6414C21.2447 83.8041 21.3435 83.952 21.4681 84.0765C21.5926 84.2011 21.7405 84.2999 21.9032 84.3673C22.066 84.4347 22.2404 84.4694 22.4165 84.4694H44.3684V92.8549H44.0767C44.0539 92.8549 44.0312 92.8594 44.0101 92.8682C43.9889 92.8769 43.9697 92.8898 43.9535 92.906C43.9373 92.9221 43.9245 92.9413 43.9158 92.9625C43.907 92.9836 43.9025 93.0063 43.9025 93.0292V93.6124C43.9025 93.6353 43.907 93.658 43.9158 93.6791C43.9245 93.7002 43.9373 93.7195 43.9535 93.7356C43.9697 93.7518 43.9889 93.7647 44.0101 93.7734C44.0312 93.7822 44.0539 93.7867 44.0767 93.7867H57.7042C57.727 93.7867 57.7497 93.7822 57.7708 93.7734C57.792 93.7647 57.8112 93.7518 57.8274 93.7356C57.8436 93.7195 57.8564 93.7002 57.8651 93.6791C57.8739 93.658 57.8784 93.6353 57.8784 93.6124V93.0292C57.8784 93.0063 57.8739 92.9836 57.8651 92.9625C57.8564 92.9413 57.8436 92.9221 57.8274 92.906C57.8112 92.8898 57.792 92.8769 57.7708 92.8682C57.7497 92.8594 57.727 92.8549 57.7042 92.8549H57.4125V84.4694H79.3644C79.5405 84.4694 79.7149 84.4347 79.8777 84.3673C80.0404 84.2999 80.1883 84.2011 80.3128 84.0765C80.4374 83.952 80.5362 83.8041 80.6036 83.6414C80.671 83.4786 80.7057 83.3042 80.7057 83.1281V78.8791H21.0752Z" fill="#3F3D56"/>
<path d="M50.1699 66.6838C53.2039 66.6838 55.6635 64.2242 55.6635 61.1902C55.6635 58.1561 53.2039 55.6965 50.1699 55.6965C47.1358 55.6965 44.6763 58.1561 44.6763 61.1902C44.6763 64.2242 47.1358 66.6838 50.1699 66.6838Z" fill="#55A9DD"/>
<path d="M64.167 30.3578H63.2896C63.2896 23.7247 56.725 19.3781 50.1024 19.3746C49.1391 19.3718 48.178 19.4652 47.2333 19.6536C46.1699 19.8659 45.0662 20.1204 43.9817 20.452C39.7053 21.7629 35.7395 24.2968 35.7395 30.3578C35.7385 31.5349 35.8883 32.7073 36.1852 33.8463L35.3359 34.0674C35.0208 32.8561 34.8616 31.6095 34.8621 30.3578C34.8621 25.0619 37.0362 21.4242 40.7915 19.2553C42.7656 18.1147 45.175 17.3794 47.9352 17.0214C49.0839 16.8686 50.2451 16.8333 51.401 16.9161C59.0167 17.4636 64.167 23.3036 64.167 30.3578Z" fill="#6F3E97"/>
<path d="M65.6287 30.8438L65.283 28.2889C65.1978 27.6436 64.887 27.0494 64.4056 26.6113C64.0966 26.3257 63.7268 26.1141 63.324 25.9925C62.9211 25.8709 62.496 25.8425 62.0805 25.9094L61.5313 25.9848C61.381 26.0046 61.2361 26.054 61.1051 26.1302C60.9741 26.2065 60.8595 26.3079 60.768 26.4288C60.6757 26.5492 60.6082 26.6868 60.5693 26.8334C60.5305 26.9801 60.521 27.133 60.5416 27.2834L61.34 33.1689C61.3729 33.4088 61.4804 33.6323 61.6474 33.8077C61.8143 33.9831 62.0321 34.1016 62.2701 34.1464C62.3405 34.1605 62.4123 34.1675 62.4842 34.1674C62.5358 34.1674 62.5874 34.1639 62.6386 34.1569L63.2528 34.0744C63.6272 34.0247 63.9875 33.899 64.3116 33.705C64.6357 33.5109 64.9167 33.2527 65.1374 32.9461C65.1848 32.8794 65.2304 32.811 65.2725 32.7408C65.6014 32.1666 65.7269 31.4982 65.6287 30.8438Z" fill="#6C63FF"/>
<path d="M61.1768 26.0919C61.0157 26.1702 60.8756 26.2857 60.768 26.4288C60.6757 26.5493 60.6082 26.6868 60.5693 26.8335C60.5305 26.9801 60.521 27.1331 60.5416 27.2834L61.34 33.169C61.3729 33.4088 61.4804 33.6323 61.6473 33.8077C61.8143 33.9831 62.0321 34.1016 62.2701 34.1464L61.1768 26.0919Z" fill="white"/>
<path d="M65.6286 30.8439L65.2829 28.2889C65.1976 27.6436 64.8868 27.0494 64.4055 26.6113L65.2004 32.467C65.2123 32.561 65.2365 32.6531 65.2724 32.7408C65.6013 32.1666 65.7268 31.4982 65.6286 30.8439Z" fill="#3F3D56"/>
<path d="M62.8966 32.6847C63.1367 32.6522 63.2574 32.0808 63.1662 31.4086C63.075 30.7363 62.8064 30.2178 62.5663 30.2503C62.3262 30.2829 62.2055 30.8543 62.2967 31.5265C62.3879 32.1987 62.6565 32.7173 62.8966 32.6847Z" fill="#3F3D56"/>
<path d="M62.3702 29.5261C62.6103 29.4936 62.731 28.9222 62.6398 28.25C62.5486 27.5777 62.28 27.0592 62.0399 27.0917C61.7999 27.1243 61.6792 27.6957 61.7703 28.3679C61.8615 29.0401 62.1301 29.5587 62.3702 29.5261Z" fill="#3F3D56"/>
<path d="M65.7042 30.7545C65.9442 30.7219 66.0649 30.1506 65.9737 29.4783C65.8826 28.8061 65.614 28.2875 65.3739 28.3201C65.1338 28.3527 65.0131 28.924 65.1043 29.5963C65.1955 30.2685 65.4641 30.7871 65.7042 30.7545Z" fill="#3F3D56"/>
<path d="M50.1024 19.3745C49.1392 19.3717 48.178 19.4652 47.2333 19.6535C46.1699 19.8659 45.0662 20.1203 43.9817 20.452C42.2883 20.3695 41.0424 19.9308 40.7915 19.2552C42.7656 18.1146 45.175 17.3793 47.9353 17.0214C49.0839 16.8685 50.2452 16.8333 51.401 16.9161C51.5233 16.9878 51.6291 17.0846 51.7114 17.2001C51.7937 17.3157 51.8505 17.4473 51.8783 17.5864C51.9608 18.1971 51.2641 18.8463 50.1024 19.3745Z" fill="#3F3D56"/>
<path d="M38.8997 36.4469L37.5485 30.8298C37.5003 30.6272 37.3934 30.4433 37.241 30.3012C37.0886 30.1592 36.8977 30.0653 36.6922 30.0314C36.6341 30.0224 36.5755 30.0177 36.5167 30.0174C36.4339 30.0177 36.3515 30.0277 36.271 30.0472L35.7481 30.1735C35.0748 30.3364 34.4936 30.7597 34.1321 31.3505C33.7705 31.9414 33.6581 32.6515 33.8196 33.3251L34.425 35.845C34.5632 36.4383 34.8924 36.9697 35.3621 37.3577C35.4382 37.4191 35.5178 37.4759 35.6007 37.5279C35.8948 37.7122 36.2229 37.8358 36.5656 37.8912C36.9083 37.9467 37.2586 37.9329 37.5959 37.8508L38.1171 37.7244C38.2549 37.6923 38.3845 37.6319 38.4979 37.5472C38.6664 37.4243 38.7946 37.2541 38.8661 37.0582C38.9377 36.8622 38.9494 36.6495 38.8997 36.4469Z" fill="#6C63FF"/>
<path d="M36.0672 35.4018C36.3028 35.3451 36.3651 34.7645 36.2063 34.1049C36.0476 33.4453 35.728 32.9566 35.4924 33.0133C35.2569 33.07 35.1946 33.6506 35.3533 34.3102C35.512 34.9697 35.8317 35.4585 36.0672 35.4018Z" fill="#3F3D56"/>
<path d="M34.3123 35.9282C34.5479 35.8715 34.6102 35.2909 34.4515 34.6313C34.2928 33.9718 33.9731 33.483 33.7376 33.5397C33.502 33.5964 33.4397 34.1771 33.5984 34.8366C33.7571 35.4962 34.0768 35.9849 34.3123 35.9282Z" fill="#3F3D56"/>
<path d="M38.9858 36.4258L37.6346 30.8087C37.5819 30.5895 37.4658 30.3906 37.3007 30.237C37.1355 30.0835 36.9288 29.982 36.7063 29.9454L38.5506 37.6173C38.7327 37.4839 38.8713 37.2996 38.9487 37.0875C39.0262 36.8754 39.0391 36.6452 38.9858 36.4258Z" fill="white"/>
<path d="M34.1251 32.2126C34.0878 32.0564 34.0178 31.9099 33.9198 31.7827C33.7299 32.2746 33.695 32.8128 33.8198 33.3251L34.4252 35.845C34.5634 36.4383 34.8926 36.9697 35.3622 37.3577L34.1251 32.2126Z" fill="#3F3D56"/>
</g>
<defs>
<clipPath id="clip0">
<rect width="149.252" height="130" fill="white"/>
</clipPath>
</defs>
</svg>
