<svg width="145" height="130" viewBox="0 0 145 130" fill="none" xmlns="http://www.w3.org/2000/svg">
<path d="M21.3088 66.8874L13.3825 75.5733C19.9673 78.3037 26.6327 74.5131 29.365 72.6127C38.1876 77.3521 48.5258 78.6274 58.2762 76.1794C68.0265 73.7313 76.4566 67.7437 81.8511 59.4349C87.2456 51.126 89.1992 41.1201 87.3145 31.453C85.4298 21.7859 79.8484 13.1839 71.7058 7.39722C63.5632 1.61051 53.4713 -0.926169 43.4833 0.30331C33.4954 1.53279 24.3618 6.43605 17.9409 14.0155C11.52 21.5949 8.29418 31.281 8.91985 41.1031C9.54551 50.9251 13.9756 60.1452 21.3088 66.8874V66.8874Z" fill="#E7206F"/>
<path d="M27.0708 32.3527C35.2479 32.2695 43.4239 32.1266 51.6006 32.018C54.3266 31.9818 57.0526 31.9501 59.7786 31.9228C62.1274 31.8989 62.1335 28.3283 59.7786 28.3523C51.6015 28.4355 43.4255 28.5784 35.2487 28.687C32.5228 28.7232 29.7968 28.755 27.0708 28.7822C24.7219 28.8061 24.7159 32.3767 27.0708 32.3527Z" fill="white"/>
<path d="M27.0708 40.6839L60.1193 40.3492L69.5184 40.254C71.8672 40.2302 71.8732 36.6596 69.5184 36.6835L36.4699 37.0182L27.0708 37.1134C24.7219 37.1372 24.7159 40.7078 27.0708 40.6839Z" fill="white"/>
<path d="M27.0708 49.0151L60.1193 48.6804L69.5184 48.5852C71.8672 48.5614 71.8732 44.9908 69.5184 45.0146L36.4699 45.3494L27.0708 45.4446C24.7219 45.4684 24.7159 49.039 27.0708 49.0151Z" fill="white"/>
<path d="M2.87942 83.0854C4.46968 83.0854 5.75884 81.8251 5.75884 80.2705C5.75884 78.7159 4.46968 77.4557 2.87942 77.4557C1.28916 77.4557 0 78.7159 0 80.2705C0 81.8251 1.28916 83.0854 2.87942 83.0854Z" fill="#E6E6E6"/>
<path d="M145 91.3601C144.996 82.8949 142.148 74.6653 136.894 67.9369C131.639 61.2085 124.269 56.354 115.916 54.12C107.564 51.886 98.6921 52.3962 90.6653 55.5723C82.6385 58.7483 75.9014 64.4142 71.49 71.6985C67.0786 78.9829 65.2373 87.4822 66.2493 95.8894C67.2613 104.297 71.0706 112.146 77.0912 118.23C83.1119 124.314 91.0105 128.297 99.5722 129.564C108.134 130.832 116.884 129.315 124.478 125.247C127.21 127.147 133.876 130.938 140.461 128.207L132.534 119.521C136.475 115.912 139.614 111.55 141.759 106.706C143.903 101.862 145.006 96.6385 145 91.3601Z" fill="#55A9DD"/>
<path d="M85.268 84.9867C93.4451 84.9035 101.621 84.7606 109.798 84.652C112.524 84.6158 115.25 84.584 117.976 84.5568C120.325 84.5329 120.331 80.9623 117.976 80.9863C109.799 81.0695 101.623 81.2124 93.446 81.321C90.7201 81.3572 87.9941 81.3889 85.268 81.4162C82.9192 81.4401 82.9132 85.0107 85.268 84.9867Z" fill="white"/>
<path d="M85.268 93.318L118.317 92.9832L127.716 92.888C130.065 92.8642 130.07 89.2937 127.716 89.3175L94.6671 89.6523L85.268 89.7475C82.9192 89.7712 82.9132 93.3418 85.268 93.318V93.318Z" fill="white"/>
<path d="M85.268 101.649L118.317 101.314L127.716 101.219C130.065 101.195 130.07 97.6248 127.716 97.6487L94.6671 97.9834L85.268 98.0786C82.9192 98.1024 82.9132 101.673 85.268 101.649Z" fill="white"/>
</svg>
