<svg width="130" height="130" viewBox="0 0 130 130" fill="none" xmlns="http://www.w3.org/2000/svg">
<g clip-path="url(#clip0)">
<path d="M130 65C130.012 73.799 128.231 82.5081 124.765 90.5961L124.55 91.0923C118.689 104.427 108.525 115.411 95.6847 122.287C82.8443 129.164 68.0689 131.536 53.7211 129.025C53.3308 128.956 52.941 128.884 52.5519 128.81C48.5314 128.03 44.5943 126.869 40.7942 125.342C40.1769 125.094 39.5641 124.837 38.9558 124.571C38.5404 124.39 38.125 124.204 37.7135 124.012C26.4556 118.794 16.9241 110.467 10.2422 100.011C3.56029 89.5558 0.00660896 77.4081 0 65C0 29.1019 29.1019 0 65 0C100.898 0 130 29.1019 130 65Z" fill="#6F3E97"/>
<path opacity="0.2" d="M53.721 129.025C53.3306 128.956 52.9409 128.884 52.5518 128.81C52.298 121.442 51.4268 106.321 48.4556 90.4846C46.8306 81.8173 44.5749 72.9327 41.446 64.9904C40.3741 62.2423 39.1498 59.556 37.7787 56.9442C34.6172 50.9731 30.7826 45.9462 26.1326 42.5404L26.8172 41.6058C30.6845 44.4404 34.1601 48.4199 37.2441 53.5442C38.1691 55.0788 39.0576 56.716 39.9095 58.4558C40.823 60.3173 41.6941 62.2936 42.523 64.3846C43.0518 65.7154 43.5627 67.0923 44.0557 68.5154C46.2018 74.6942 48.0262 81.7442 49.5287 89.6654C49.8614 91.4154 50.1781 93.2083 50.4787 95.0442C52.8076 109.269 53.5095 122.421 53.721 129.025Z" fill="black"/>
<path opacity="0.2" d="M38.9557 124.571C38.5403 124.39 38.1249 124.204 37.7134 124.012C37.3114 119.646 36.573 114.231 35.223 109.09C34.6317 106.782 33.8727 104.519 32.9518 102.321C31.4115 98.7154 29.4172 95.65 26.8384 93.7596L27.523 92.8269C30.223 94.8039 32.3057 97.9289 33.9153 101.585C35.7288 105.704 36.9384 110.498 37.7441 115.079C38.3422 118.481 38.7191 121.767 38.9557 124.571Z" fill="black"/>
<path opacity="0.2" d="M19.6657 42.5135C22.8613 42.5135 25.4519 39.9229 25.4519 36.7272C25.4519 33.5316 22.8613 30.941 19.6657 30.941C16.47 30.941 13.8794 33.5316 13.8794 36.7272C13.8794 39.9229 16.47 42.5135 19.6657 42.5135Z" fill="black"/>
<path opacity="0.2" d="M21.5292 92.323C24.7248 92.323 27.3154 89.7324 27.3154 86.5367C27.3154 83.3411 24.7248 80.7505 21.5292 80.7505C18.3335 80.7505 15.7429 83.3411 15.7429 86.5367C15.7429 89.7324 18.3335 92.323 21.5292 92.323Z" fill="black"/>
<path opacity="0.2" d="M42.6373 46.4464C41.4103 53.369 44.119 59.6372 44.119 59.6372C44.119 59.6372 48.817 54.6818 50.044 47.7592C51.271 40.8367 48.5624 34.5684 48.5624 34.5684C48.5624 34.5684 43.8643 39.5239 42.6373 46.4464Z" fill="black"/>
<path opacity="0.2" d="M23.4072 62.8791C30.01 65.2935 36.645 63.7441 36.645 63.7441C36.645 63.7441 32.5746 58.2801 25.9717 55.8656C19.3689 53.4512 12.7339 55.0006 12.7339 55.0006C12.7339 55.0006 16.8043 60.4646 23.4072 62.8791Z" fill="black"/>
<path opacity="0.2" d="M22.2875 106.987C26.9156 108.679 31.5727 107.575 31.5727 107.575C31.5727 107.575 28.7263 103.728 24.0982 102.035C19.4701 100.343 14.813 101.447 14.813 101.447C14.813 101.447 17.6595 105.295 22.2875 106.987Z" fill="black"/>
<path d="M64.8665 79.394C78.8617 79.394 90.2069 68.0487 90.2069 54.0536C90.2069 40.0585 78.8617 28.7132 64.8665 28.7132C50.8714 28.7132 39.5261 40.0585 39.5261 54.0536C39.5261 68.0487 50.8714 79.394 64.8665 79.394Z" fill="#FFB9B9"/>
<path d="M54.9678 73.4549C54.9678 73.4549 58.1353 88.5007 58.1353 90.0845C58.1353 91.6683 73.1812 98.7953 73.1812 98.7953L86.6433 96.4196L91.3946 82.1656C91.3946 82.1656 83.4757 70.2873 83.4757 65.536L54.9678 73.4549Z" fill="#FFB9B9"/>
<path d="M124.765 90.5962L124.55 91.0923C118.689 104.427 108.525 115.411 95.6848 122.287C82.8444 129.164 68.069 131.536 53.7213 129.025C53.3309 128.956 52.9411 128.884 52.552 128.81C48.5315 128.03 44.5944 126.869 40.7943 125.342C40.177 125.094 39.5642 124.837 38.9559 124.571C38.5405 124.39 38.1251 124.204 37.7136 124.012C33.9833 122.283 30.4257 120.205 27.0886 117.804L24.0847 109.09L25.7732 107.802L29.2463 105.15L32.952 102.321L33.9155 101.585L48.4559 90.4846L49.5289 89.6654L57.0866 83.8962L57.0886 83.8942C57.0886 83.8942 65.2616 97.2115 77.1405 93.2519C89.0193 89.2923 88.7597 77.9385 88.7597 77.9385L124.765 90.5962Z" fill="#E7206F"/>
<path d="M42.8913 33.6377C42.8913 33.6377 50.9368 16.2058 66.3573 20.2285C81.7778 24.2513 90.4938 30.2854 91.1642 36.3195C91.8347 42.3536 90.829 51.4048 90.829 51.4048C90.829 51.4048 89.1529 39.0013 78.4256 41.6832C67.6983 44.365 50.9368 42.3536 50.9368 42.3536L48.255 66.4901C48.255 66.4901 45.2379 62.1321 41.8856 64.814C38.5334 67.4958 32.164 39.0013 42.8913 33.6377Z" fill="#57A8DA"/>
<path d="M40.7942 125.342C40.1768 125.094 39.564 124.837 38.9557 124.571C38.5403 124.39 38.1249 124.204 37.7134 124.012C31.544 121.151 25.8604 117.342 20.8691 112.723C22.6364 110.315 24.0845 109.09 24.0845 109.09H35.9634L37.7441 115.079L40.7942 125.342Z" fill="#E7206F"/>
<path d="M114.36 89.2923L124.55 91.0923C121.823 97.3048 118.14 103.052 113.635 108.125L114.36 89.2923Z" fill="#E7206F"/>
</g>
<defs>
<clipPath id="clip0">
<rect width="130" height="130" fill="white"/>
</clipPath>
</defs>
</svg>
