<svg viewBox="0 0 1440 239" fill="none" preserveAspectRatio="none" xmlns="http://www.w3.org/2000/svg">
<path fill-rule="evenodd" clip-rule="evenodd" d="M1600.99 530.103C1582.86 371.65 2470.27 99.0139 2143.14 34.257C1816 -30.5 1247 85.2581 380 13.7582C-487 -57.7418 -1142.74 185.18 -1865.05 355.84C-2587.36 526.5 -3447.45 161.594 -4098.41 462.468C-4749.38 763.342 -3751.54 527.325 -4530.59 750.182C-5307.65 972.471 -6930.89 896.369 -7532 1132.01C-8059.09 1338.64 -6808.54 1372.66 -6421.24 1491.34C-6168.43 1568.82 -5822.28 1622.33 -5636.09 1713.01C-5413.33 1821.5 -5817.99 2072.21 -5220.78 2076C-4586.79 2080.02 -3831.42 1813.14 -3093.56 1729.13C-2535.97 1665.65 -2057.45 1681.75 -1526.45 1655.38C-549.267 1606.84 422.074 1694.6 1374.11 1507.23C2186.76 1347.3 2226.64 1091.44 2269.14 908.391C2307.34 743.853 1619.09 688.316 1600.99 530.103Z" fill="#120227"/>
</svg>
