<svg version="1.1" viewBox="0 0 375 191" fill="none"  preserveAspectRatio="none" xmlns="http://www.w3.org/2000/svg">
<path fill-rule="evenodd" clip-rule="evenodd" d="M-397.341 263.233C-393.663 300.505 -252.282 306.305 -194.691 334.2C-147.729 356.947 -160.801 398.972 -91.5825 411.332C-20.0034 424.114 73.9303 390.158 152.811 396.252C243.716 403.275 290.158 457.106 384.435 448.107C473.906 439.566 473.665 384.129 542.833 359.022C611.335 334.158 741.772 336.747 780.599 304.309C819.154 272.099 741.023 241.036 722.965 208.532C708.007 181.609 715.003 152.245 682.807 128.289C650.429 104.196 603.994 81.6259 538.437 71.2271C474.602 61.1015 390.085 81.6883 326.07 71.7024C230.091 56.7305 194.242 -3.31474 86.1966 0.68133C-8.54914 4.18551 -48.6535 55.8387 -103.775 87.6003C-149.793 114.117 -165.937 144.976 -210.724 171.771C-265.698 204.661 -400.988 226.292 -397.341 263.233Z" fill="#120227"/>
</svg>
